<?xml version="1.0" standalone="yes"?>
<svg xmlns="http://www.w3.org/2000/svg" width="512" height="512">
<path style="fill:#020202; stroke:none;" d="M0 0L0 512L512 512L512 0L0 0z"/>
<path style="fill:#966767; stroke:none;" d="M58 29L61 28L58 29z"/>
<path style="fill:#e2e4e3; stroke:none;" d="M85 67C75.6302 53.6985 64.3224 45.2325 62 28C42.4961 34.0992 54.8291 72.3191 72 73.8781C76.4223 74.2796 81.5487 69.3282 85 67z"/>
<path style="fill:#53575b; stroke:none;" d="M62 29L63 30L62 29z"/>
<path style="fill:#966767; stroke:none;" d="M57 30L58 31L57 30M62.3333 30.6667L62.6667 31.3333L62.3333 30.6667z"/>
<path style="fill:#53575b; stroke:none;" d="M56 31L57 32L56 31z"/>
<path style="fill:#f97977; stroke:none;" d="M56 32L57 33L56 32z"/>
<path style="fill:#53575b; stroke:none;" d="M55 33L56 34L55 33z"/>
<path style="fill:#966767; stroke:none;" d="M55 34L56 35L55 34z"/>
<path style="fill:#53575b; stroke:none;" d="M63 34L64 35L63 34z"/>
<path style="fill:#966767; stroke:none;" d="M63 35L64 36L63 35M54 36L55 37L54 36z"/>
<path style="fill:#53575b; stroke:none;" d="M53 38L54 39L53 38z"/>
<path style="fill:#966767; stroke:none;" d="M64 38L65 39L64 38M53 39L54 40L53 39z"/>
<path style="fill:#53575b; stroke:none;" d="M65 40L66 41L65 40z"/>
<path style="fill:#f97977; stroke:none;" d="M65 41L66 42L65 41z"/>
<path style="fill:#53575b; stroke:none;" d="M52 42L53 43L52 42z"/>
<path style="fill:#966767; stroke:none;" d="M52 43L53 44L52 43M66 43L67 44L66 43z"/>
<path style="fill:#f97977; stroke:none;" d="M52 44L53 45L52 44z"/>
<path style="fill:#966767; stroke:none;" d="M67 45L68 46L67 45z"/>
<path style="fill:#53575b; stroke:none;" d="M68 46L69 47L68 46M51 48L51 51L52 51L51 48z"/>
<path style="fill:#966767; stroke:none;" d="M69 48L70 49L69 48M70 50L71 51L70 50z"/>
<path style="fill:#53575b; stroke:none;" d="M71 51L72 52L71 51M24 52L25 53L24 52z"/>
<path style="fill:#e2e4e3; stroke:none;" d="M25 52L26 53L25 52z"/>
<path style="fill:#966767; stroke:none;" d="M26 52L27 53L26 52z"/>
<path style="fill:#53575b; stroke:none;" d="M26 54L29 53L26 54M72 52L73 53L72 52z"/>
<path style="fill:#e2e4e3; stroke:none;" d="M27 53L27 54C38.5015 60.6471 43.5785 71.626 52.3002 80.9059C56.121 84.9712 60.1766 86.5305 63 81C50.3356 72.079 44.0672 54.4995 27 53z"/>
<path style="fill:#53575b; stroke:none;" d="M31 53L32 54L31 53z"/>
<path style="fill:#966767; stroke:none;" d="M28 54L29 55L28 54z"/>
<path style="fill:#53575b; stroke:none;" d="M34 54L35 55L34 54z"/>
<path style="fill:#966767; stroke:none;" d="M52 54L53 55L52 54M73 54L74 55L73 54z"/>
<path style="fill:#53575b; stroke:none;" d="M29 55L30 56L29 55M36 55L37 56L36 55z"/>
<path style="fill:#f97977; stroke:none;" d="M53 55L54 56L53 55z"/>
<path style="fill:#53575b; stroke:none;" d="M74 55L75 56L74 55z"/>
<path style="fill:#966767; stroke:none;" d="M31 56L32 57L31 56z"/>
<path style="fill:#53575b; stroke:none;" d="M38 56L39 57L38 56M75 56L76 57L75 56M32 57L33 58L32 57z"/>
<path style="fill:#966767; stroke:none;" d="M39 57L40 58L39 57z"/>
<path style="fill:#53575b; stroke:none;" d="M76 57L77 58L76 57M10 58L11 59L10 58z"/>
<path style="fill:#f97977; stroke:none;" d="M11 58C12.2134 72.8559 19.8424 88.46 33 96.1234C37.0998 98.5113 45.138 103.202 49.2569 98.6783C53.8339 93.6514 45.9133 88.6517 43.0147 84.9962C33.5958 73.1177 26.4815 62.2343 11 58z"/>
<path style="fill:#966767; stroke:none;" d="M13 58L14 59L13 58z"/>
<path style="fill:#53575b; stroke:none;" d="M33 58L34 59L33 58z"/>
<path style="fill:#966767; stroke:none;" d="M15 59L16 60L15 59z"/>
<path style="fill:#53575b; stroke:none;" d="M16 59L17 60L16 59M42 59L43 60L42 59z"/>
<path style="fill:#966767; stroke:none;" d="M56 59L57 60L56 59z"/>
<path style="fill:#53575b; stroke:none;" d="M18 60L19 61L18 60M43 60L44 61L43 60M20 61L21 62L20 61M44 61L45 62L44 61z"/>
<path style="fill:#966767; stroke:none;" d="M11 62L12 63L11 62z"/>
<path style="fill:#53575b; stroke:none;" d="M22 62L23 63L22 62z"/>
<path style="fill:#966767; stroke:none;" d="M38 62L39 63L38 62z"/>
<path style="fill:#53575b; stroke:none;" d="M45 62L46 63L45 62M58 62L59 63L58 62M11 63L12 64L11 63z"/>
<path style="fill:#966767; stroke:none;" d="M23 63L24 64L23 63z"/>
<path style="fill:#53575b; stroke:none;" d="M46 63L47 64L46 63M25 64L26 65L25 64M83 64L84 65L83 64z"/>
<path style="fill:#966767; stroke:none;" d="M26 65L27 66L26 65z"/>
<path style="fill:#53575b; stroke:none;" d="M84 65L85 66L84 65z"/>
<path style="fill:#966767; stroke:none;" d="M12 66L13 67L12 66M27 66L28 67L27 66M48 66L49 67L48 66z"/>
<path style="fill:#53575b; stroke:none;" d="M61 66L62 67L61 66M85 66L86 67L85 66M12 67L13 68L12 67M42 67L43 68L42 67M62 67L63 68L62 67z"/>
<path style="fill:#966767; stroke:none;" d="M84 67L85 68L84 67z"/>
<path style="fill:#53575b; stroke:none;" d="M115 67L115 68L118 68L115 67z"/>
<path style="fill:#966767; stroke:none;" d="M118 67L118 68L126 68L118 67z"/>
<path style="fill:#53575b; stroke:none;" d="M126.667 67.3333L127.333 67.6667L126.667 67.3333z"/>
<path style="fill:#966767; stroke:none;" d="M43 68L44 69L43 68z"/>
<path style="fill:#53575b; stroke:none;" d="M63 68L64 69L63 68z"/>
<path style="fill:#f97977; stroke:none;" d="M82 68L83 69L82 68z"/>
<path style="fill:#53575b; stroke:none;" d="M110 68L111 69L110 68z"/>
<path style="fill:#966767; stroke:none;" d="M111 68L112 69L111 68z"/>
<path style="fill:#e2e4e3; stroke:none;" d="M81 83C107.584 83.0732 128.388 108.996 126.907 135C126.549 141.283 118.218 159.364 122.361 163.667C126.715 168.189 140.037 160.937 146 161.054C165.939 161.445 184.367 178.033 186 198C227.659 177.248 214.121 113.607 184.985 88.4391C171.371 76.6787 159.456 78.7453 144 73.3009C124.267 66.3502 96.4205 64.8781 81 83z"/>
<path style="fill:#966767; stroke:none;" d="M131 68L132 69L131 68z"/>
<path style="fill:#53575b; stroke:none;" d="M132 68L133 69L132 68z"/>
<path style="fill:#966767; stroke:none;" d="M50 69L51 70L50 69z"/>
<path style="fill:#53575b; stroke:none;" d="M64 69L65 70L64 69M81 69L82 70L81 69M106 69L107 70L106 69z"/>
<path style="fill:#966767; stroke:none;" d="M107 69L108 70L107 69z"/>
<path style="fill:#53575b; stroke:none;" d="M135 69L136 70L135 69z"/>
<path style="fill:#966767; stroke:none;" d="M13 70L14 71L13 70z"/>
<path style="fill:#53575b; stroke:none;" d="M51 70L52 71L51 70z"/>
<path style="fill:#966767; stroke:none;" d="M79 70L80 71L79 70z"/>
<path style="fill:#53575b; stroke:none;" d="M102 70L103 71L102 70z"/>
<path style="fill:#966767; stroke:none;" d="M103 70L104 71L103 70M137 70L138 71L137 70z"/>
<path style="fill:#53575b; stroke:none;" d="M45 71L46 72L45 71z"/>
<path style="fill:#966767; stroke:none;" d="M100 71L101 72L100 71M139 71L140 72L139 71M33 72L34 73L33 72M68 72L69 73L68 72z"/>
<path style="fill:#53575b; stroke:none;" d="M76 72L77 73L76 72z"/>
<path style="fill:#966767; stroke:none;" d="M98 72L99 73L98 72M141 72L142 73L141 72z"/>
<path style="fill:#53575b; stroke:none;" d="M142 72L143 73L142 72M242 72L243 73L242 72z"/>
<path style="fill:#e2e4e3; stroke:none;" d="M205 96C206.962 99.5376 209.467 105.985 213.213 107.883C220.019 111.33 237.87 102.539 241.637 96.8673C246.504 89.5362 246 80.3652 246 72L230 84.9066L205 96z"/>
<path style="fill:#53575b; stroke:none;" d="M14 73L15 74L14 73z"/>
<path style="fill:#966767; stroke:none;" d="M34 73L35 74L34 73z"/>
<path style="fill:#53575b; stroke:none;" d="M95 73L96 74L95 73z"/>
<path style="fill:#966767; stroke:none;" d="M144 73L145 74L144 73z"/>
<path style="fill:#53575b; stroke:none;" d="M246 73L246 77L247 77L246 73M35 74L36 75L35 74M47 74L48 75L47 74z"/>
<path style="fill:#966767; stroke:none;" d="M71 74L72 75L71 74M73 74L74 75L73 74z"/>
<path style="fill:#53575b; stroke:none;" d="M93 74L94 75L93 74z"/>
<path style="fill:#966767; stroke:none;" d="M147 74L148 75L147 74z"/>
<path style="fill:#53575b; stroke:none;" d="M148.667 74.3333L149.333 74.6667L148.667 74.3333z"/>
<path style="fill:#966767; stroke:none;" d="M241 74L242 75L241 74M15 75L16 76L15 75z"/>
<path style="fill:#53575b; stroke:none;" d="M91 75L92 76L91 75z"/>
<path style="fill:#966767; stroke:none;" d="M159.667 75.3333L160.333 75.6667L159.667 75.3333z"/>
<path style="fill:#53575b; stroke:none;" d="M161 75L162 76L161 75z"/>
<path style="fill:#966767; stroke:none;" d="M240 75L241 76L240 75z"/>
<path style="fill:#53575b; stroke:none;" d="M89 76L90 77L89 76z"/>
<path style="fill:#966767; stroke:none;" d="M164 76L165 77L164 76z"/>
<path style="fill:#53575b; stroke:none;" d="M165 76L166 77L165 76M239 76L240 77L239 76z"/>
<path style="fill:#966767; stroke:none;" d="M16 77L17 78L16 77M37 77L38 78L37 77z"/>
<path style="fill:#53575b; stroke:none;" d="M49 77L50 78L49 77z"/>
<path style="fill:#966767; stroke:none;" d="M167 77L168 78L167 77z"/>
<path style="fill:#53575b; stroke:none;" d="M168 77L169 78L168 77M238 77L239 78L238 77z"/>
<path style="fill:#966767; stroke:none;" d="M246 77L247 78L246 77M50 78L51 79L50 78M86 78L87 79L86 78z"/>
<path style="fill:#53575b; stroke:none;" d="M170 78L171 79L170 78M237 78L238 79L237 78M246 78L246 83L247 83L246 78z"/>
<path style="fill:#966767; stroke:none;" d="M17 79L18 80L17 79z"/>
<path style="fill:#53575b; stroke:none;" d="M60 79L61 80L60 79M84 79L85 80L84 79M172 79L173 80L172 79M236 79L237 80L236 79z"/>
<path style="fill:#966767; stroke:none;" d="M39 80L40 81L39 80M61 80L62 81L61 80z"/>
<path style="fill:#53575b; stroke:none;" d="M174 80L175 81L174 80M235 80L236 81L235 80z"/>
<path style="fill:#966767; stroke:none;" d="M18 81L19 82L18 81z"/>
<path style="fill:#53575b; stroke:none;" d="M81 81L82 82L81 81z"/>
<path style="fill:#966767; stroke:none;" d="M175 81L176 82L175 81z"/>
<path style="fill:#53575b; stroke:none;" d="M234 81L235 82L234 81z"/>
<path style="fill:#966767; stroke:none;" d="M63 82L64 83L63 82M80 82L81 83L80 82z"/>
<path style="fill:#53575b; stroke:none;" d="M177 82L178 83L177 82z"/>
<path style="fill:#966767; stroke:none;" d="M233 82L234 83L233 82z"/>
<path style="fill:#53575b; stroke:none;" d="M19 83L20 84L19 83z"/>
<path style="fill:#966767; stroke:none;" d="M41 83L42 84L41 83M62 83L63 84L62 83z"/>
<path style="fill:#53575b; stroke:none;" d="M87 83L88 84L87 83z"/>
<path style="fill:#966767; stroke:none;" d="M88.6667 83.3333L89.3333 83.6667L88.6667 83.3333M178 83L179 84L178 83z"/>
<path style="fill:#f97977; stroke:none;" d="M232 83L233 84L232 83z"/>
<path style="fill:#966767; stroke:none;" d="M20 84L21 85L20 84z"/>
<path style="fill:#53575b; stroke:none;" d="M42 84L43 85L42 84z"/>
<path style="fill:#966767; stroke:none;" d="M56 84L57 85L56 84z"/>
<path style="fill:#53575b; stroke:none;" d="M61 84L62 85L61 84M92 84L93 85L92 84M180 84L181 85L180 84M230 84L231 85L230 84z"/>
<path style="fill:#966767; stroke:none;" d="M57 85L58 86L57 85z"/>
<path style="fill:#53575b; stroke:none;" d="M60 85L61 86L60 85M95 85L96 86L95 85M181 85L182 86L181 85z"/>
<path style="fill:#966767; stroke:none;" d="M229 85L230 86L229 85z"/>
<path style="fill:#53575b; stroke:none;" d="M58.6667 86.3333L59.3333 86.6667L58.6667 86.3333M97 86L98 87L97 86z"/>
<path style="fill:#966767; stroke:none;" d="M98 86L99 87L98 86M182 86L183 87L182 86M227 86L228 87L227 86M245 86L246 87L245 86z"/>
<path style="fill:#53575b; stroke:none;" d="M22 87L23 88L22 87z"/>
<path style="fill:#966767; stroke:none;" d="M100 87L101 88L100 87M183 87L184 88L183 87z"/>
<path style="fill:#53575b; stroke:none;" d="M225 87L226 88L225 87M245.333 87.6667L245.667 88.3333L245.333 87.6667z"/>
<path style="fill:#966767; stroke:none;" d="M23 88L24 89L23 88M45 88L46 89L45 88M102 88L103 89L102 88z"/>
<path style="fill:#53575b; stroke:none;" d="M223 88L224 89L223 88z"/>
<path style="fill:#f97977; stroke:none;" d="M224 88L225 89L224 88z"/>
<path style="fill:#966767; stroke:none;" d="M24 89L25 90L24 89M46 89L47 90L46 89z"/>
<path style="fill:#53575b; stroke:none;" d="M103 89L104 90L103 89M221 89L222 90L221 89z"/>
<path style="fill:#f97977; stroke:none;" d="M222 89L223 90L222 89z"/>
<path style="fill:#966767; stroke:none;" d="M25 90L26 91L25 90M47 90L48 91L47 90M105 90L106 91L105 90z"/>
<path style="fill:#53575b; stroke:none;" d="M219 90L220 91L219 90z"/>
<path style="fill:#f97977; stroke:none;" d="M220 90L221 91L220 90z"/>
<path style="fill:#966767; stroke:none;" d="M244 90L245 91L244 90M26 91L27 92L26 91z"/>
<path style="fill:#53575b; stroke:none;" d="M106 91L107 92L106 91z"/>
<path style="fill:#966767; stroke:none;" d="M217 91L218 92L217 91z"/>
<path style="fill:#53575b; stroke:none;" d="M244 91L245 92L244 91M27 92L28 93L27 92M214 92L215 93L214 92z"/>
<path style="fill:#f97977; stroke:none;" d="M215 92L216 93L215 92z"/>
<path style="fill:#53575b; stroke:none;" d="M28 93L29 94L28 93M51 93L52 94L51 93M56 166C70.8967 146.451 90.8934 145.224 112 154C115.409 146.3 117.273 137.408 116.278 129C115.482 122.278 113.909 115.864 110.37 110C107.72 105.61 104.181 101.77 100 98.7894C68.0876 76.0406 43.048 117.198 47.7539 146C48.8969 152.996 50.4734 161.177 56 166z"/>
<path style="fill:#966767; stroke:none;" d="M109 93L110 94L109 93z"/>
<path style="fill:#53575b; stroke:none;" d="M211 93L212 94L211 93z"/>
<path style="fill:#966767; stroke:none;" d="M212 93L213 94L212 93M243 93L244 94L243 93M30 94L31 95L30 94z"/>
<path style="fill:#53575b; stroke:none;" d="M52 94L53 95L52 94z"/>
<path style="fill:#966767; stroke:none;" d="M110 94L111 95L110 94M190 94L191 95L190 94z"/>
<path style="fill:#53575b; stroke:none;" d="M207 94L208 95L207 94z"/>
<path style="fill:#966767; stroke:none;" d="M208 94L209 95L208 94z"/>
<path style="fill:#53575b; stroke:none;" d="M243 94L244 95L243 94M31 95L32 96L31 95z"/>
<path style="fill:#966767; stroke:none;" d="M111 95L112 96L111 95z"/>
<path style="fill:#53575b; stroke:none;" d="M191 95L192 96L191 95M204 95L205 96L204 95z"/>
<path style="fill:#f97977; stroke:none;" d="M205 95L206 96L205 95z"/>
<path style="fill:#966767; stroke:none;" d="M242 95L243 96L242 95M33 96L34 97L33 96M112 96L113 97L112 96z"/>
<path style="fill:#53575b; stroke:none;" d="M34 97L35 98L34 97z"/>
<path style="fill:#966767; stroke:none;" d="M35 97L36 98L35 97M113 97L114 98L113 97M241 97L242 98L241 97M37 98L38 99L37 98M49 98L50 99L49 98M206 98L207 99L206 98z"/>
<path style="fill:#53575b; stroke:none;" d="M39 99L40 100L39 99z"/>
<path style="fill:#966767; stroke:none;" d="M194 99L195 100L194 99z"/>
<path style="fill:#53575b; stroke:none;" d="M42 100L43 101L42 100z"/>
<path style="fill:#966767; stroke:none;" d="M43 100L44 101L43 100z"/>
<path style="fill:#53575b; stroke:none;" d="M115 100L116 101L115 100M195 100L196 101L195 100z"/>
<path style="fill:#f97977; stroke:none;" d="M237 100L238 101L237 100z"/>
<path style="fill:#53575b; stroke:none;" d="M46.6667 101.333L47.3333 101.667L46.6667 101.333z"/>
<path style="fill:#966767; stroke:none;" d="M116 101L117 102L116 101M208 101L209 102L208 101M235 101L236 102L235 101M117 102L118 103L117 102M233 102L234 103L233 102z"/>
<path style="fill:#53575b; stroke:none;" d="M197 103L198 104L197 103M209 103L210 104L209 103z"/>
<path style="fill:#f97977; stroke:none;" d="M231 103L232 104L231 103z"/>
<path style="fill:#966767; stroke:none;" d="M118 104L119 105L118 104z"/>
<path style="fill:#53575b; stroke:none;" d="M210 105L211 106L210 105M119 106L120 107L119 106M199 106L200 107L199 106M225 106L226 107L225 106z"/>
<path style="fill:#966767; stroke:none;" d="M120 107L121 108L120 107z"/>
<path style="fill:#f97977; stroke:none;" d="M221 107L222 108L221 107z"/>
<path style="fill:#53575b; stroke:none;" d="M222 107L223 108L222 107M120 108L121 109L120 108z"/>
<path style="fill:#966767; stroke:none;" d="M200 108L201 109L200 108z"/>
<path style="fill:#f97977; stroke:none;" d="M212 108L213 109L212 108z"/>
<path style="fill:#966767; stroke:none;" d="M216 108L217 109L216 108z"/>
<path style="fill:#53575b; stroke:none;" d="M217 108L218 109L217 108M247 108L248 109L247 108z"/>
<path style="fill:#966767; stroke:none;" d="M248 108L249 109L248 108z"/>
<path style="fill:#e2e4e3; stroke:none;" d="M217 119L221.225 124.498L238 118.247L263 110C247.272 102.442 232.424 117.74 217 119z"/>
<path style="fill:#966767; stroke:none;" d="M258 108L259 109L258 108z"/>
<path style="fill:#53575b; stroke:none;" d="M259.667 108.333L260.333 108.667L259.667 108.333M243 109L244 110L243 109z"/>
<path style="fill:#966767; stroke:none;" d="M262 110L262 111L266 111L262 110z"/>
<path style="fill:#53575b; stroke:none;" d="M121 110L122 111L121 110z"/>
<path style="fill:#966767; stroke:none;" d="M201 110L202 111L201 110M241 110L242 111L241 110M255 111L256 112L255 111z"/>
<path style="fill:#53575b; stroke:none;" d="M256.667 111.333L257.333 111.667L256.667 111.333M122 112L123 113L122 112z"/>
<path style="fill:#966767; stroke:none;" d="M237 112L238 113L237 112M251 112L252 113L251 112z"/>
<path style="fill:#53575b; stroke:none;" d="M252 112L253 113L252 112z"/>
<path style="fill:#966767; stroke:none;" d="M235 113L236 114L235 113z"/>
<path style="fill:#53575b; stroke:none;" d="M248 113L249 114L248 113z"/>
<path style="fill:#966767; stroke:none;" d="M123 114L124 115L123 114M233 114L234 115L233 114M245 114L246 115L245 114z"/>
<path style="fill:#020202; stroke:none;" d="M83 115.653C78.2682 117.138 66.8514 131.057 77.0432 132.418C82.4102 133.135 83.4869 124.483 88.9591 125.752C94.8258 127.112 92.1904 139.577 99.8704 137.149C105.476 135.377 103.961 126.815 101.86 123.004C98.2325 116.422 90.1373 113.412 83 115.653z"/>
<path style="fill:#53575b; stroke:none;" d="M123 115L124 116L123 115z"/>
<path style="fill:#966767; stroke:none;" d="M231 115L232 116L231 115z"/>
<path style="fill:#53575b; stroke:none;" d="M243 115L244 116L243 115z"/>
<path style="fill:#966767; stroke:none;" d="M204 116L205 117L204 116z"/>
<path style="fill:#53575b; stroke:none;" d="M228 116L229 117L228 116M241 116L242 117L241 116z"/>
<path style="fill:#966767; stroke:none;" d="M124 117L125 118L124 117M225 117L226 118L225 117z"/>
<path style="fill:#53575b; stroke:none;" d="M239 117L240 118L239 117M124 118L125 119L124 118M205 118L206 119L205 118M220 118L221 119L220 118z"/>
<path style="fill:#966767; stroke:none;" d="M221 118L222 119L221 118z"/>
<path style="fill:#53575b; stroke:none;" d="M237 118L238 119L237 118z"/>
<path style="fill:#966767; stroke:none;" d="M235 119L236 120L235 119z"/>
<path style="fill:#53575b; stroke:none;" d="M206 120L207 121L206 120M217 120L218 121L217 120z"/>
<path style="fill:#966767; stroke:none;" d="M233 120L234 121L233 120z"/>
<path style="fill:#53575b; stroke:none;" d="M262 120L262 121L270 121L262 120z"/>
<path style="fill:#966767; stroke:none;" d="M125.333 121.667L125.667 122.333L125.333 121.667M231 121L232 122L231 121z"/>
<path style="fill:#53575b; stroke:none;" d="M256 121L257 122L256 121z"/>
<path style="fill:#966767; stroke:none;" d="M257 121L258 122L257 121z"/>
<path style="fill:#f97977; stroke:none;" d="M222 135C222.227 145.575 230.671 146.852 240 145.41C254.384 143.186 267.626 134.757 275 122C254.839 116.041 240.65 132.476 222 135z"/>
<path style="fill:#966767; stroke:none;" d="M274 121L275 122L274 121z"/>
<path style="fill:#53575b; stroke:none;" d="M275 121L276 122L275 121z"/>
<path style="fill:#966767; stroke:none;" d="M229 122L230 123L229 122z"/>
<path style="fill:#53575b; stroke:none;" d="M252 122L253 123L252 122z"/>
<path style="fill:#966767; stroke:none;" d="M253 122L254 123L253 122z"/>
<path style="fill:#53575b; stroke:none;" d="M125 123L126 124L125 123M207 123L208 124L207 123M218 123L219 124L218 123z"/>
<path style="fill:#966767; stroke:none;" d="M226 123L227 124L226 123z"/>
<path style="fill:#53575b; stroke:none;" d="M227 123L228 124L227 123M249 123L250 124L249 123z"/>
<path style="fill:#966767; stroke:none;" d="M250 123L251 124L250 123z"/>
<path style="fill:#53575b; stroke:none;" d="M274 123L275 124L274 123z"/>
<path style="fill:#966767; stroke:none;" d="M223 124L224 125L223 124z"/>
<path style="fill:#53575b; stroke:none;" d="M224 124L225 125L224 124M247 124L248 125L247 124z"/>
<path style="fill:#966767; stroke:none;" d="M273 124L274 125L273 124z"/>
<path style="fill:#53575b; stroke:none;" d="M219 125L220 126L219 125z"/>
<path style="fill:#966767; stroke:none;" d="M245 125L246 126L245 125z"/>
<path style="fill:#53575b; stroke:none;" d="M208 126L209 127L208 126z"/>
<path style="fill:#966767; stroke:none;" d="M243 126L244 127L243 126z"/>
<path style="fill:#53575b; stroke:none;" d="M241 127L242 128L241 127z"/>
<path style="fill:#966767; stroke:none;" d="M126 128L126 131L127 131L126 128M240 128L241 129L240 128z"/>
<path style="fill:#53575b; stroke:none;" d="M270 128L271 129L270 128M209 129L210 130L209 129z"/>
<path style="fill:#966767; stroke:none;" d="M238 129L239 130L238 129z"/>
<path style="fill:#53575b; stroke:none;" d="M269 129L270 130L269 129z"/>
<path style="fill:#966767; stroke:none;" d="M236 130L237 131L236 130z"/>
<path style="fill:#53575b; stroke:none;" d="M268 130L269 131L268 130M126 131L127 132L126 131z"/>
<path style="fill:#966767; stroke:none;" d="M234 131L235 132L234 131z"/>
<path style="fill:#53575b; stroke:none;" d="M267 131L268 132L267 131z"/>
<path style="fill:#966767; stroke:none;" d="M126 132L126 139L127 139L126 132z"/>
<path style="fill:#53575b; stroke:none;" d="M231 132L232 133L231 132M266 132L267 133L266 132M210 133L211 134L210 133M228 133L229 134L228 133z"/>
<path style="fill:#966767; stroke:none;" d="M229 133L230 134L229 133z"/>
<path style="fill:#53575b; stroke:none;" d="M265 133L266 134L265 133M224 134L225 135L224 134z"/>
<path style="fill:#966767; stroke:none;" d="M225 134L226 135L225 134z"/>
<path style="fill:#53575b; stroke:none;" d="M264 134L265 135L264 134z"/>
<path style="fill:#966767; stroke:none;" d="M171.667 135.333L172.333 135.667L171.667 135.333z"/>
<path style="fill:#53575b; stroke:none;" d="M173.667 135.333L174.333 135.667L173.667 135.333z"/>
<path style="fill:#966767; stroke:none;" d="M175.667 135.333L176.333 135.667L175.667 135.333z"/>
<path style="fill:#53575b; stroke:none;" d="M221 135L222 136L221 135z"/>
<path style="fill:#966767; stroke:none;" d="M168 136L169 137L168 136z"/>
<path style="fill:#53575b; stroke:none;" d="M169 136L170 137L169 136z"/>
<path style="fill:#020202; stroke:none;" d="M170 136.533C165.181 137.703 152.716 151.421 163.043 152.534C168.498 153.122 169.989 143.693 175.892 146.288C180.496 148.312 179.273 159.584 185.856 157.338C190.616 155.715 189.242 147.355 187.543 144.004C184.223 137.454 176.93 134.851 170 136.533z"/>
<path style="fill:#53575b; stroke:none;" d="M179 136L180 137L179 136z"/>
<path style="fill:#966767; stroke:none;" d="M261 136L262 137L261 136z"/>
<path style="fill:#53575b; stroke:none;" d="M166 137L167 138L166 137M181 137L182 138L181 137M211.333 137.667L211.667 138.333L211.333 137.667M260 137L261 138L260 137z"/>
<path style="fill:#966767; stroke:none;" d="M183 138L184 139L183 138M163 139L164 140L163 139z"/>
<path style="fill:#53575b; stroke:none;" d="M184 139L185 140L184 139z"/>
<path style="fill:#966767; stroke:none;" d="M211 139L212 140L211 139z"/>
<path style="fill:#53575b; stroke:none;" d="M257 139L258 140L257 139z"/>
<path style="fill:#966767; stroke:none;" d="M162 140L163 141L162 140z"/>
<path style="fill:#53575b; stroke:none;" d="M185 140L186 141L185 140z"/>
<path style="fill:#966767; stroke:none;" d="M255 140L256 141L255 140M161 141L162 142L161 141M186 141L187 142L186 141M222 141L223 142L222 141M253 141L254 142L253 141z"/>
<path style="fill:#53575b; stroke:none;" d="M222.333 142.667L222.667 143.333L222.333 142.667z"/>
<path style="fill:#966767; stroke:none;" d="M251 142L252 143L251 142z"/>
<path style="fill:#53575b; stroke:none;" d="M125 143L126 144L125 143M160 143L161 144L160 143M187 143L188 144L187 143M249 143L250 144L249 143z"/>
<path style="fill:#966767; stroke:none;" d="M125 144L126 145L125 144z"/>
<path style="fill:#53575b; stroke:none;" d="M212 144L212 148L213 148L212 144M224 144L225 145L224 144z"/>
<path style="fill:#966767; stroke:none;" d="M225 144L226 145L225 144M245 144L246 145L245 144z"/>
<path style="fill:#53575b; stroke:none;" d="M246 144L247 145L246 144M159 145L160 146L159 145M172 145L173 146L172 145z"/>
<path style="fill:#966767; stroke:none;" d="M173.667 145.333L174.333 145.667L173.667 145.333z"/>
<path style="fill:#53575b; stroke:none;" d="M175 145L176 146L175 145M188 145L189 146L188 145M228.667 145.333L229.333 145.667L228.667 145.333z"/>
<path style="fill:#966767; stroke:none;" d="M230.667 145.333L231.333 145.667L230.667 145.333M239 145L239 146L242 146L239 145z"/>
<path style="fill:#53575b; stroke:none;" d="M242 145L243 146L242 145M170 146L171 147L170 146M177 146L178 147L177 146M169 147L170 148L169 147M178 147L179 148L178 147z"/>
<path style="fill:#966767; stroke:none;" d="M189.333 147.667L189.667 148.333L189.333 147.667z"/>
<path style="fill:#53575b; stroke:none;" d="M124 148L125 149L124 148z"/>
<path style="fill:#966767; stroke:none;" d="M158 148L159 149L158 148M212 148L212 156L213 156L212 148M124 149L125 150L124 149z"/>
<path style="fill:#53575b; stroke:none;" d="M168 149L169 150L168 149M179 149L180 150L179 149M189 149L189 153L190 153L189 149z"/>
<path style="fill:#966767; stroke:none;" d="M168 150L169 151L168 150M179 150L179 153L180 153L179 150z"/>
<path style="fill:#53575b; stroke:none;" d="M123 151L124 152L123 151z"/>
<path style="fill:#966767; stroke:none;" d="M159 151L160 152L159 151z"/>
<path style="fill:#53575b; stroke:none;" d="M167 151L168 152L167 151z"/>
<path style="fill:#966767; stroke:none;" d="M123 152L124 153L123 152M160 152L161 153L160 152z"/>
<path style="fill:#53575b; stroke:none;" d="M166 152L167 153L166 152z"/>
<path style="fill:#966767; stroke:none;" d="M162 153L163 154L162 153z"/>
<path style="fill:#53575b; stroke:none;" d="M163.667 153.333L164.333 153.667L163.667 153.333z"/>
<path style="fill:#966767; stroke:none;" d="M165 153L166 154L165 153z"/>
<path style="fill:#53575b; stroke:none;" d="M179 153L180 154L179 153z"/>
<path style="fill:#966767; stroke:none;" d="M189.333 153.667L189.667 154.333L189.333 153.667z"/>
<path style="fill:#53575b; stroke:none;" d="M122 154L123 155L122 154z"/>
<path style="fill:#966767; stroke:none;" d="M179 154L180 155L179 154z"/>
<path style="fill:#53575b; stroke:none;" d="M180 156L181 157L180 156z"/>
<path style="fill:#966767; stroke:none;" d="M188 156L189 157L188 156z"/>
<path style="fill:#53575b; stroke:none;" d="M212.333 156.667L212.667 157.333L212.333 156.667z"/>
<path style="fill:#966767; stroke:none;" d="M121 157L122 158L121 157z"/>
<path style="fill:#53575b; stroke:none;" d="M181 157L182 158L181 157z"/>
<path style="fill:#966767; stroke:none;" d="M187 157L188 158L187 157z"/>
<path style="fill:#53575b; stroke:none;" d="M85 158L86 159L85 158z"/>
<path style="fill:#966767; stroke:none;" d="M86 158L87 159L86 158z"/>
<path style="fill:#f97977; stroke:none;" d="M87 158.454C61.1878 161.884 49.7193 194.132 70.0147 211.787C77.309 218.133 87.7372 220.177 97 217.96C102.229 216.708 107.458 213.061 113 214.576C119.193 216.269 123.094 222.73 128 226.468C134.743 231.604 143.753 233.088 152 231.532C175.26 227.144 183.509 196.498 166.816 180.301C159.643 173.342 148.751 170.438 139 172.518C133.796 173.628 128.461 177.6 123 176.156C109.059 172.468 104.255 156.16 87 158.454z"/>
<path style="fill:#966767; stroke:none;" d="M92 158L93 159L92 158z"/>
<path style="fill:#53575b; stroke:none;" d="M93 158L94 159L93 158z"/>
<path style="fill:#966767; stroke:none;" d="M183 158L184 159L183 158z"/>
<path style="fill:#53575b; stroke:none;" d="M184 158L185 159L184 158z"/>
<path style="fill:#966767; stroke:none;" d="M185 158L186 159L185 158M81 159L82 160L81 159z"/>
<path style="fill:#53575b; stroke:none;" d="M98 159L99 160L98 159z"/>
<path style="fill:#966767; stroke:none;" d="M120 159L121 160L120 159M78 160L79 161L78 160z"/>
<path style="fill:#53575b; stroke:none;" d="M103 161L104 162L103 161z"/>
<path style="fill:#966767; stroke:none;" d="M140 161L141 162L140 161z"/>
<path style="fill:#53575b; stroke:none;" d="M141 161L141 162L150 162L141 161z"/>
<path style="fill:#966767; stroke:none;" d="M150 161L151 162L150 161M211.333 161.667L211.667 162.333L211.333 161.667M74 162L75 163L74 162M135 162L136 163L135 162z"/>
<path style="fill:#53575b; stroke:none;" d="M136 162L137 163L136 162M154 162L155 163L154 162z"/>
<path style="fill:#966767; stroke:none;" d="M155 162L156 163L155 162z"/>
<path style="fill:#53575b; stroke:none;" d="M72 163L73 164L72 163z"/>
<path style="fill:#966767; stroke:none;" d="M106 163L107 164L106 163z"/>
<path style="fill:#53575b; stroke:none;" d="M132 163L133 164L132 163M158 163L159 164L158 163M211 163L212 164L211 163z"/>
<path style="fill:#966767; stroke:none;" d="M71 164L72 165L71 164z"/>
<path style="fill:#53575b; stroke:none;" d="M122 164L123 165L122 164z"/>
<path style="fill:#966767; stroke:none;" d="M129 164L130 165L129 164M161 164L162 165L161 164z"/>
<path style="fill:#53575b; stroke:none;" d="M109 165L110 166L109 165z"/>
<path style="fill:#966767; stroke:none;" d="M123 165L124 166L123 165M127 165L128 166L127 165z"/>
<path style="fill:#53575b; stroke:none;" d="M163 165L164 166L163 165z"/>
<path style="fill:#966767; stroke:none;" d="M110 166L111 167L110 166M165 166L166 167L165 166M210 166L211 167L210 166M111 167L112 168L111 167M167 167L168 168L167 167z"/>
<path style="fill:#53575b; stroke:none;" d="M210 167L211 168L210 167z"/>
<path style="fill:#966767; stroke:none;" d="M112 168L113 169L112 168z"/>
<path style="fill:#53575b; stroke:none;" d="M168 168L169 169L168 168M113 169L114 170L113 169z"/>
<path style="fill:#966767; stroke:none;" d="M209 169L210 170L209 169M65 170L66 171L65 170M171 170L172 171L171 170z"/>
<path style="fill:#53575b; stroke:none;" d="M209 170L210 171L209 170M64 171L65 172L64 171z"/>
<path style="fill:#966767; stroke:none;" d="M86 171L87 172L86 171z"/>
<path style="fill:#53575b; stroke:none;" d="M87 171L88 172L87 171z"/>
<path style="fill:#020202; stroke:none;" d="M88 171.537C80.4075 173.29 71.8169 189.206 82.2099 193.214C91.5847 196.829 85.2612 182.207 90.9259 182.207C95.6222 182.206 93.3376 192.217 99.9568 190.288C104.732 188.896 104.323 182.629 102.772 179.015C100.322 173.306 94.0519 170.14 88 171.537z"/>
<path style="fill:#53575b; stroke:none;" d="M94 171L95 172L94 171z"/>
<path style="fill:#966767; stroke:none;" d="M95 171L96 172L95 171z"/>
<path style="fill:#53575b; stroke:none;" d="M144 171L144 172L147 172L144 171z"/>
<path style="fill:#966767; stroke:none;" d="M172 171L173 172L172 171z"/>
<path style="fill:#53575b; stroke:none;" d="M84 172L85 173L84 172z"/>
<path style="fill:#966767; stroke:none;" d="M97 172L98 173L97 172z"/>
<path style="fill:#53575b; stroke:none;" d="M138 172L139 173L138 172z"/>
<path style="fill:#966767; stroke:none;" d="M152 172L153 173L152 172z"/>
<path style="fill:#53575b; stroke:none;" d="M173 172L174 173L173 172M208 172L209 173L208 172z"/>
<path style="fill:#966767; stroke:none;" d="M63 173L64 174L63 173M82 173L83 174L82 173z"/>
<path style="fill:#53575b; stroke:none;" d="M98 173L99 174L98 173z"/>
<path style="fill:#966767; stroke:none;" d="M135 173L136 174L135 173M155 173L156 174L155 173z"/>
<path style="fill:#53575b; stroke:none;" d="M174 173L175 174L174 173z"/>
<path style="fill:#966767; stroke:none;" d="M81 174L82 175L81 174z"/>
<path style="fill:#53575b; stroke:none;" d="M118 174L119 175L118 174M132 174L133 175L132 174M158 174L159 175L158 174M175 174L176 175L175 174M207 174L208 175L207 174z"/>
<path style="fill:#966767; stroke:none;" d="M62 175L63 176L62 175M80 175L81 176L80 175z"/>
<path style="fill:#53575b; stroke:none;" d="M120 175L121 176L120 175M130 175L131 176L130 175M160 175L161 176L160 175z"/>
<path style="fill:#966767; stroke:none;" d="M176 175L177 176L176 175z"/>
<path style="fill:#53575b; stroke:none;" d="M101 176L102 177L101 176z"/>
<path style="fill:#966767; stroke:none;" d="M123 176L124 177L123 176z"/>
<path style="fill:#53575b; stroke:none;" d="M124 176L124 177L127 177L124 176z"/>
<path style="fill:#966767; stroke:none;" d="M127 176L128 177L127 176z"/>
<path style="fill:#53575b; stroke:none;" d="M206 176L207 177L206 176M61 177L62 178L61 177z"/>
<path style="fill:#966767; stroke:none;" d="M102 177L103 178L102 177z"/>
<path style="fill:#53575b; stroke:none;" d="M163 177L164 178L163 177z"/>
<path style="fill:#966767; stroke:none;" d="M78 178L79 179L78 178M164 178L165 179L164 178z"/>
<path style="fill:#53575b; stroke:none;" d="M205 178L206 179L205 178M60 179L61 180L60 179M78 179L79 180L78 179z"/>
<path style="fill:#966767; stroke:none;" d="M103 179L104 180L103 179M179 179L180 180L179 179M60 180L61 181L60 180z"/>
<path style="fill:#53575b; stroke:none;" d="M103 180L104 181L103 180M204 180L205 181L204 180z"/>
<path style="fill:#966767; stroke:none;" d="M77 181L78 182L77 181M92 181L93 182L92 181z"/>
<path style="fill:#53575b; stroke:none;" d="M180 181L181 182L180 181z"/>
<path style="fill:#966767; stroke:none;" d="M203 181L204 182L203 181z"/>
<path style="fill:#53575b; stroke:none;" d="M77 182L77 186L78 186L77 182z"/>
<path style="fill:#966767; stroke:none;" d="M93 182L94 183L93 182z"/>
<path style="fill:#e2e4e3; stroke:none;" d="M215 182C211.227 189.94 204.89 197.062 198 202.482C194.671 205.101 187.992 207.301 186.086 211.213C184.332 214.815 188.332 218.207 190.01 221C192.77 225.593 193.566 230.812 192.239 236C188.501 250.61 175.485 254.725 167.652 266.001C162.713 273.111 163.962 283.026 160.934 291C154.175 308.806 137.095 318.701 119 321C125.579 336.801 136.668 348.526 152 356.191C159.815 360.099 171.835 360.871 177.351 368.094C181.128 373.039 181.483 380.065 182.41 386C184.743 400.937 185.622 416.887 184.961 432C184.702 437.91 181.027 451.222 185.028 456.262C188.693 460.879 201.7 459.999 207 460C207 447.402 205.887 434.337 208.898 422C211.483 411.409 217.355 402.303 220.656 392C222.872 385.084 221.925 372.637 227.394 367.573C232.716 362.645 241.723 366.243 248 366.95C264.789 368.841 282.209 368.638 299 366.834C315.265 365.086 331.569 361.013 347 355.656C353.987 353.23 363.552 346.848 371 347.318C381.51 347.981 385.525 361.947 390.899 369C396.812 376.761 408.267 381.237 412.427 390.001C415.126 395.688 412.68 403.192 411.349 409C407.87 424.178 401.072 438.112 397 453C401.759 455.507 415.185 461.89 420.272 457.971C425.79 453.721 427.137 435.646 428.884 429C432.302 416.001 438.505 401.478 438.957 388C439.461 372.95 434.056 359.299 436 344C426.762 338.659 426.85 330.333 420.298 323.699C414.167 317.491 405.35 315.299 399.329 308C384.808 290.398 388.647 264.617 406.001 250.468C413.361 244.467 422.431 244.844 429.816 240.062C438.547 234.407 441.395 225.74 453 224C452.776 219.103 451.399 214.533 449.546 210C436.428 177.902 400.822 183.77 373 184C376.124 197.127 369.058 211.336 358.999 219.671C354.923 223.049 349.008 224.535 345.434 228.39C342.158 231.924 343.003 237.655 341.451 242C338.444 250.421 331.421 257.444 323 260.451C311.763 264.464 300.013 260.525 292.105 251.985C289.249 248.901 287.791 244.395 284.61 241.703C279.708 237.556 271.566 237.056 266 233.452C250.771 223.593 245 208.372 245 191L215 182z"/>
<path style="fill:#966767; stroke:none;" d="M216 182L217 183L216 182z"/>
<path style="fill:#53575b; stroke:none;" d="M217 182L218 183L217 182M389 182L389 183L404 183L389 182M59 183L60 184L59 183M87 183L88 184L87 183z"/>
<path style="fill:#966767; stroke:none;" d="M169 183L170 184L169 183M214 183L215 184L214 183z"/>
<path style="fill:#53575b; stroke:none;" d="M219 183L220 184L219 183M374 183L374 184L377 184L374 183z"/>
<path style="fill:#966767; stroke:none;" d="M377 183L377 184L381 184L377 183M409 183L409 184L412 184L409 183z"/>
<path style="fill:#53575b; stroke:none;" d="M412.667 183.333L413.333 183.667L412.667 183.333z"/>
<path style="fill:#966767; stroke:none;" d="M59 184L59 187L60 187L59 184M87 184L88 185L87 184M143 184L144 185L143 184z"/>
<path style="fill:#53575b; stroke:none;" d="M144 184L144 185L149 185L144 184z"/>
<path style="fill:#966767; stroke:none;" d="M149 184L150 185L149 184z"/>
<path style="fill:#53575b; stroke:none;" d="M170 184L171 185L170 184z"/>
<path style="fill:#966767; stroke:none;" d="M182 184L183 185L182 184M201 184L202 185L201 184M221 184L222 185L221 184M417 184L418 185L417 184z"/>
<path style="fill:#53575b; stroke:none;" d="M418 184L419 185L418 184M87 185L88 186L87 185M141 185L142 186L141 185z"/>
<path style="fill:#020202; stroke:none;" d="M142.004 185.653C137.84 186.973 128.986 197.92 137.144 199.878C141.165 200.843 144.18 193.916 147.638 195.917C150.724 197.704 141.46 212.407 152.001 209.338C167.6 204.796 157.501 180.739 142.004 185.653z"/>
<path style="fill:#53575b; stroke:none;" d="M151 185L152 186L151 185z"/>
<path style="fill:#966767; stroke:none;" d="M152 185L153 186L152 185M200 185L201 186L200 185M213 185L214 186L213 185z"/>
<path style="fill:#53575b; stroke:none;" d="M224 185L225 186L224 185M255 193C255.009 206.379 259.738 218.828 272 225.651C277.715 228.832 284.819 229.285 289.985 233.394C300.076 241.422 303.388 256.668 320 250.891C335.148 245.623 329.094 230.601 338.329 221.329C350.34 209.271 366.832 206.603 363 185L255 193z"/>
<path style="fill:#966767; stroke:none;" d="M373.333 185.667L373.667 186.333L373.333 185.667M421 185L422 186L421 185z"/>
<path style="fill:#53575b; stroke:none;" d="M422 185L423 186L422 185z"/>
<path style="fill:#966767; stroke:none;" d="M77.3333 186.667L77.6667 187.333L77.3333 186.667z"/>
<path style="fill:#53575b; stroke:none;" d="M139 186L140 187L139 186M153 186L154 187L153 186z"/>
<path style="fill:#966767; stroke:none;" d="M171 186L172 187L171 186z"/>
<path style="fill:#53575b; stroke:none;" d="M212 186L213 187L212 186z"/>
<path style="fill:#966767; stroke:none;" d="M226 186L227 187L226 186z"/>
<path style="fill:#53575b; stroke:none;" d="M227 186L228 187L227 186z"/>
<path style="fill:#966767; stroke:none;" d="M424 186L425 187L424 186z"/>
<path style="fill:#53575b; stroke:none;" d="M425 186L426 187L425 186M88 187L89 188L88 187z"/>
<path style="fill:#966767; stroke:none;" d="M155 187L156 188L155 187z"/>
<path style="fill:#53575b; stroke:none;" d="M183 187L184 188L183 187z"/>
<path style="fill:#966767; stroke:none;" d="M229 187L230 188L229 187z"/>
<path style="fill:#53575b; stroke:none;" d="M230 187L231 188L230 187M373 187L373 192L374 192L373 187z"/>
<path style="fill:#966767; stroke:none;" d="M427 187L428 188L427 187z"/>
<path style="fill:#53575b; stroke:none;" d="M94 188L95 189L94 188z"/>
<path style="fill:#966767; stroke:none;" d="M103 188L104 189L103 188M156 188L157 189L156 188M211 188L212 189L211 188M233 188L234 189L233 188z"/>
<path style="fill:#53575b; stroke:none;" d="M234 188L235 189L234 188z"/>
<path style="fill:#966767; stroke:none;" d="M429 188L430 189L429 188z"/>
<path style="fill:#53575b; stroke:none;" d="M78 189L79 190L78 189M102 189L103 190L102 189z"/>
<path style="fill:#966767; stroke:none;" d="M184 189L185 190L184 189z"/>
<path style="fill:#53575b; stroke:none;" d="M197 189L198 190L197 189M210 189L211 190L210 189z"/>
<path style="fill:#966767; stroke:none;" d="M236 189L237 190L236 189z"/>
<path style="fill:#53575b; stroke:none;" d="M237.667 189.333L238.333 189.667L237.667 189.333z"/>
<path style="fill:#966767; stroke:none;" d="M431 189L432 190L431 189z"/>
<path style="fill:#53575b; stroke:none;" d="M96 190L97 191L96 190M101 190L102 191L101 190M135 190L136 191L135 190z"/>
<path style="fill:#966767; stroke:none;" d="M173 190L174 191L173 190z"/>
<path style="fill:#53575b; stroke:none;" d="M184 190L185 191L184 190M196 190L197 191L196 190z"/>
<path style="fill:#966767; stroke:none;" d="M241 190L242 191L241 190z"/>
<path style="fill:#53575b; stroke:none;" d="M242 190L243 191L242 190M433 190L434 191L433 190z"/>
<path style="fill:#966767; stroke:none;" d="M59.3333 191.667L59.6667 192.333L59.3333 191.667z"/>
<path style="fill:#53575b; stroke:none;" d="M79 191L80 192L79 191z"/>
<path style="fill:#966767; stroke:none;" d="M88 191L89 192L88 191M98 191L99 192L98 191M134 191L135 192L134 191M158 191L159 192L158 191z"/>
<path style="fill:#53575b; stroke:none;" d="M195 191L196 192L195 191M435 191L436 192L435 191M174 192L175 193L174 192z"/>
<path style="fill:#966767; stroke:none;" d="M208 192L209 193L208 192M373 192L373 195L374 195L373 192z"/>
<path style="fill:#53575b; stroke:none;" d="M436 192L437 193L436 192M59.3333 193.667L59.6667 194.333L59.3333 193.667M81 193L82 194L81 193M86 193L87 194L86 193z"/>
<path style="fill:#966767; stroke:none;" d="M159 193L160 194L159 193M185 193L186 194L185 193z"/>
<path style="fill:#53575b; stroke:none;" d="M207 193L208 194L207 193z"/>
<path style="fill:#966767; stroke:none;" d="M437 193L438 194L437 193M83 194L84 195L83 194M133 194L134 195L133 194z"/>
<path style="fill:#53575b; stroke:none;" d="M145 194L146 195L145 194z"/>
<path style="fill:#966767; stroke:none;" d="M146 194L147 195L146 194z"/>
<path style="fill:#53575b; stroke:none;" d="M147 194L148 195L147 194M159 194L160 195L159 194M185 194L186 195L185 194z"/>
<path style="fill:#966767; stroke:none;" d="M191 194L192 195L191 194z"/>
<path style="fill:#53575b; stroke:none;" d="M206 194L207 195L206 194M133.333 195.667L133.667 196.333L133.333 195.667M190 195L191 196L190 195z"/>
<path style="fill:#966767; stroke:none;" d="M143 196L144 197L143 196M149 196L150 197L149 196z"/>
<path style="fill:#53575b; stroke:none;" d="M175 196L176 197L175 196z"/>
<path style="fill:#966767; stroke:none;" d="M60 197L61 198L60 197M133 197L134 198L133 197M175 197L176 198L175 197z"/>
<path style="fill:#53575b; stroke:none;" d="M187 197L188 198L187 197M372.333 197.667L372.667 198.333L372.333 197.667M142 198L143 199L142 198M141 199L142 200L141 199M149 199L150 200L149 199M201 199L202 200L201 199z"/>
<path style="fill:#966767; stroke:none;" d="M372 199L373 200L372 199M443 199L444 200L443 199z"/>
<path style="fill:#53575b; stroke:none;" d="M61 200L62 201L61 200z"/>
<path style="fill:#966767; stroke:none;" d="M136 200L137 201L136 200z"/>
<path style="fill:#53575b; stroke:none;" d="M137 200L138 201L137 200M139 200L140 201L139 200z"/>
<path style="fill:#966767; stroke:none;" d="M140 200L141 201L140 200z"/>
<path style="fill:#53575b; stroke:none;" d="M148 200L149 201L148 200M159 200L160 201L159 200M200 200L201 201L200 200M444 200L445 201L444 200z"/>
<path style="fill:#966767; stroke:none;" d="M159 201L160 202L159 201M199 201L200 202L199 201z"/>
<path style="fill:#53575b; stroke:none;" d="M245.333 201.667L245.667 202.333L245.333 201.667M371 201L372 202L371 201z"/>
<path style="fill:#966767; stroke:none;" d="M62 202L63 203L62 202M198 202L199 203L198 202M371 202L372 203L371 202M445 202L446 203L445 202M145 203L146 204L145 203z"/>
<path style="fill:#53575b; stroke:none;" d="M158 203L159 204L158 203z"/>
<path style="fill:#966767; stroke:none;" d="M245 203L246 204L245 203z"/>
<path style="fill:#53575b; stroke:none;" d="M446 203L447 204L446 203z"/>
<path style="fill:#e2e4e3; stroke:none;" d="M458 203C463.078 216.163 476.476 221.37 480.56 235C489.368 264.395 474.369 297.234 474.004 327C473.88 337.099 472.877 346.948 474.805 357C475.342 359.803 475.968 366.364 479.961 366.364C484.614 366.364 482.267 358.427 481.803 356C479.376 343.307 478.748 330.818 480.285 318C484.043 286.683 507.278 234.542 475 210.764C469.89 207 463.973 204.947 458 203z"/>
<path style="fill:#966767; stroke:none;" d="M459 203L460 204L459 203z"/>
<path style="fill:#53575b; stroke:none;" d="M460 203L461 204L460 203M63 204L64 205L63 204M145 204L145 207L146 207L145 204M195 204L196 205L195 204M370 204L371 205L370 204M458 204L459 205L458 204z"/>
<path style="fill:#966767; stroke:none;" d="M462 204L463 205L462 204z"/>
<path style="fill:#53575b; stroke:none;" d="M463 204L464 205L463 204z"/>
<path style="fill:#966767; stroke:none;" d="M64 205L65 206L64 205M157 205L158 206L157 205M447 205L448 206L447 205M465 205L466 206L465 205z"/>
<path style="fill:#53575b; stroke:none;" d="M156 206L157 207L156 206z"/>
<path style="fill:#966767; stroke:none;" d="M175 206L176 207L175 206z"/>
<path style="fill:#53575b; stroke:none;" d="M192 206L193 207L192 206M246 206L247 207L246 206M369 206L370 207L369 206z"/>
<path style="fill:#966767; stroke:none;" d="M459 206L460 207L459 206M467 206L468 207L467 206z"/>
<path style="fill:#53575b; stroke:none;" d="M468 206L469 207L468 206M65 207L66 208L65 207M155 207L156 208L155 207M175 207L176 208L175 207M190 207L191 208L190 207z"/>
<path style="fill:#966767; stroke:none;" d="M246 207L247 208L246 207M448 207L449 208L448 207z"/>
<path style="fill:#53575b; stroke:none;" d="M470 207L471 208L470 207M66 208L67 209L66 208z"/>
<path style="fill:#966767; stroke:none;" d="M146 208L147 209L146 208z"/>
<path style="fill:#53575b; stroke:none;" d="M154 208L155 209L154 208M368 208L369 209L368 208z"/>
<path style="fill:#966767; stroke:none;" d="M471 208L472 209L471 208M67 209L68 210L67 209M147 209L148 210L147 209M153 209L154 210L153 209z"/>
<path style="fill:#53575b; stroke:none;" d="M449 209L450 210L449 209M460 209L461 210L460 209M473 209L474 210L473 209z"/>
<path style="fill:#966767; stroke:none;" d="M68 210L69 211L68 210M150 210L151 211L150 210M185 210L186 211L185 210z"/>
<path style="fill:#53575b; stroke:none;" d="M247 210L248 211L247 210z"/>
<path style="fill:#966767; stroke:none;" d="M367 210L368 211L367 210M474 210L475 211L474 210M69 211L70 212L69 211z"/>
<path style="fill:#53575b; stroke:none;" d="M174 211L175 212L174 211M450 211L451 212L450 211M476 211L477 212L476 211M70 212L71 213L70 212z"/>
<path style="fill:#966767; stroke:none;" d="M450 212L451 213L450 212z"/>
<path style="fill:#53575b; stroke:none;" d="M461 212L462 213L461 212M477 212L478 213L477 212z"/>
<path style="fill:#966767; stroke:none;" d="M173 213L174 214L173 213z"/>
<path style="fill:#53575b; stroke:none;" d="M184.333 213.667L184.667 214.333L184.333 213.667z"/>
<path style="fill:#966767; stroke:none;" d="M248 213L249 214L248 213M365 213L366 214L365 213z"/>
<path style="fill:#53575b; stroke:none;" d="M478 213L479 214L478 213z"/>
<path style="fill:#966767; stroke:none;" d="M73 214L74 215L73 214M106 214L107 215L106 214z"/>
<path style="fill:#53575b; stroke:none;" d="M113 214L114 215L113 214M364 214L365 215L364 214M451 214L452 215L451 214z"/>
<path style="fill:#966767; stroke:none;" d="M462 214L463 215L462 214z"/>
<path style="fill:#53575b; stroke:none;" d="M479 214L480 215L479 214z"/>
<path style="fill:#966767; stroke:none;" d="M75 215L76 216L75 215M116 215L117 216L116 215M249 215L250 216L249 215z"/>
<path style="fill:#53575b; stroke:none;" d="M363 215L364 216L363 215z"/>
<path style="fill:#966767; stroke:none;" d="M451 215L452 216L451 215M464 215L465 216L464 215z"/>
<path style="fill:#53575b; stroke:none;" d="M480 215L481 216L480 215z"/>
<path style="fill:#966767; stroke:none;" d="M77 216L78 217L77 216M101 216L102 217L101 216z"/>
<path style="fill:#53575b; stroke:none;" d="M362 216L363 217L362 216z"/>
<path style="fill:#966767; stroke:none;" d="M466 216L467 217L466 216z"/>
<path style="fill:#53575b; stroke:none;" d="M481 216L482 217L481 216M79 217L80 218L79 217z"/>
<path style="fill:#966767; stroke:none;" d="M80 217L81 218L80 217z"/>
<path style="fill:#53575b; stroke:none;" d="M99 217L100 218L99 217z"/>
<path style="fill:#966767; stroke:none;" d="M171 217L172 218L171 217M250 217L251 218L250 217z"/>
<path style="fill:#53575b; stroke:none;" d="M361 217L362 218L361 217M467 217L468 218L467 217M82 218L83 219L82 218z"/>
<path style="fill:#966767; stroke:none;" d="M83.6667 218.333L84.3333 218.667L83.6667 218.333M94 218L95 219L94 218z"/>
<path style="fill:#53575b; stroke:none;" d="M95 218L96 219L95 218M188 218L189 219L188 218M360 218L361 219L360 218z"/>
<path style="fill:#966767; stroke:none;" d="M452 218L453 219L452 218M469 218L470 219L469 218z"/>
<path style="fill:#53575b; stroke:none;" d="M170 219L171 220L170 219z"/>
<path style="fill:#966767; stroke:none;" d="M189 219L190 220L189 219z"/>
<path style="fill:#53575b; stroke:none;" d="M359 219L360 220L359 219z"/>
<path style="fill:#966767; stroke:none;" d="M470 219L471 220L470 219M483 219L484 220L483 219M169 220L170 221L169 220z"/>
<path style="fill:#53575b; stroke:none;" d="M252 220L253 221L252 220z"/>
<path style="fill:#966767; stroke:none;" d="M358 220L359 221L358 220z"/>
<path style="fill:#53575b; stroke:none;" d="M471 220L472 221L471 220M484 220L485 221L484 220M122 221L123 222L122 221z"/>
<path style="fill:#966767; stroke:none;" d="M190 221L191 222L190 221z"/>
<path style="fill:#53575b; stroke:none;" d="M356 221L357 222L356 221M453 221L454 222L453 221M472 221L473 222L472 221z"/>
<path style="fill:#966767; stroke:none;" d="M123 222L124 223L123 222M355 222L356 223L355 222M453.333 222.667L453.667 223.333L453.333 222.667z"/>
<path style="fill:#53575b; stroke:none;" d="M473 222L474 223L473 222M485 222L486 223L485 222z"/>
<path style="fill:#966767; stroke:none;" d="M124 223L125 224L124 223M191 223L192 224L191 223M254 223L255 224L254 223z"/>
<path style="fill:#53575b; stroke:none;" d="M353 223L354 224L353 223z"/>
<path style="fill:#966767; stroke:none;" d="M474 223L475 224L474 223M125 224L126 225L125 224z"/>
<path style="fill:#53575b; stroke:none;" d="M180 224C171.711 233.487 162.911 240.844 150 242.7C145.197 243.39 139.513 241.072 135 242.618C125.686 245.809 120.756 253.55 110 255C110 263.655 110.688 272.413 111.715 281C112.557 288.04 111.312 302.739 116.013 308.397C123.911 317.903 144.724 300.164 148.532 294C155.111 283.348 152.427 270.283 159.789 260.001C166.821 250.181 191.49 239.441 180 224M191 224L192 225L191 224M255 224L256 225L255 224M351 224L352 225L351 224z"/>
<path style="fill:#966767; stroke:none;" d="M449 224L450 225L449 224z"/>
<path style="fill:#53575b; stroke:none;" d="M450 224L451 225L450 224z"/>
<path style="fill:#966767; stroke:none;" d="M475 224L476 225L475 224z"/>
<path style="fill:#53575b; stroke:none;" d="M486 224L487 225L486 224z"/>
<path style="fill:#f97977; stroke:none;" d="M105 227L105 228L115 230C112.221 225.558 109.751 224.763 105 227z"/>
<path style="fill:#53575b; stroke:none;" d="M126 225L127 226L126 225z"/>
<path style="fill:#966767; stroke:none;" d="M164 225L165 226L164 225z"/>
<path style="fill:#53575b; stroke:none;" d="M256 225L257 226L256 225M349 225L350 226L349 225z"/>
<path style="fill:#966767; stroke:none;" d="M446 225L447 226L446 225z"/>
<path style="fill:#53575b; stroke:none;" d="M447 225L448 226L447 225M105 226L106 227L105 226M163 226L164 227L163 226z"/>
<path style="fill:#966767; stroke:none;" d="M192.333 226.667L192.667 227.333L192.333 226.667z"/>
<path style="fill:#53575b; stroke:none;" d="M257 226L258 227L257 226z"/>
<path style="fill:#966767; stroke:none;" d="M347 226L348 227L347 226M444 226L445 227L444 226z"/>
<path style="fill:#53575b; stroke:none;" d="M476 226L477 227L476 226M487 226L488 227L487 226z"/>
<path style="fill:#966767; stroke:none;" d="M104 227L105 228L104 227M113 227L114 228L113 227M129 227L130 228L129 227z"/>
<path style="fill:#53575b; stroke:none;" d="M258 227L259 228L258 227M345 227L346 228L345 227z"/>
<path style="fill:#966767; stroke:none;" d="M442 227L443 228L442 227M477 227L478 228L477 227M487 227L488 228L487 227M105 228L106 229L105 228M114 228L115 229L114 228z"/>
<path style="fill:#53575b; stroke:none;" d="M160 228L161 229L160 228M192 228L192 234L193 234L192 228M259 228L260 229L259 228M344 228L345 229L344 228M441 228L442 229L441 228M92 229L92 231L94 229L92 229z"/>
<path style="fill:#966767; stroke:none;" d="M107 229L108 230L107 229z"/>
<path style="fill:#53575b; stroke:none;" d="M132 229L133 230L132 229M158 229L159 230L158 229M260 229L261 230L260 229z"/>
<path style="fill:#966767; stroke:none;" d="M439 229L440 230L439 229M478 229L479 230L478 229z"/>
<path style="fill:#53575b; stroke:none;" d="M488 229L489 230L488 229z"/>
<path style="fill:#e2e4e3; stroke:none;" d="M93 230C97.2252 244.359 114.045 249.007 124 237C109.969 242.413 103.9 240.068 93 230z"/>
<path style="fill:#53575b; stroke:none;" d="M109 230L110 231L109 230z"/>
<path style="fill:#966767; stroke:none;" d="M110.667 230.333L111.333 230.667L110.667 230.333z"/>
<path style="fill:#53575b; stroke:none;" d="M112 230L113 231L112 230z"/>
<path style="fill:#966767; stroke:none;" d="M135 230L136 231L135 230M261 230L262 231L261 230M343 230L344 231L343 230z"/>
<path style="fill:#53575b; stroke:none;" d="M438 230L439 231L438 230z"/>
<path style="fill:#966767; stroke:none;" d="M488 230L489 231L488 230M94 231L95 232L94 231M138 231L139 232L138 231M152 231L153 232L152 231z"/>
<path style="fill:#53575b; stroke:none;" d="M437 231L438 232L437 231z"/>
<path style="fill:#966767; stroke:none;" d="M479 231L480 232L479 231M93 232L94 233L93 232z"/>
<path style="fill:#53575b; stroke:none;" d="M95 232L96 233L95 232M144.667 232.333L145.333 232.667L144.667 232.333M264 232L265 233L264 232M436 232L437 233L436 232M479 232L480 233L479 232M489 232L490 233L489 232M96 233L97 234L96 233z"/>
<path style="fill:#966767; stroke:none;" d="M265 233L266 234L265 233z"/>
<path style="fill:#53575b; stroke:none;" d="M435 233L436 234L435 233z"/>
<path style="fill:#966767; stroke:none;" d="M489.333 233.667L489.667 234.333L489.333 233.667M94 234L95 235L94 234M192.333 234.667L192.667 235.333L192.333 234.667M267 234L268 235L267 234M434 234L435 235L434 234z"/>
<path style="fill:#53575b; stroke:none;" d="M440 335C455.2 302.497 456.289 268.903 456 234C444.68 234.589 442.477 243.895 433.999 249.262C427.512 253.368 419.406 252.369 413 257.39C398.415 268.822 395.666 291.277 409.104 304.907C414.502 310.382 422.629 311.64 427.786 317.108C433.264 322.916 432.629 330.532 440 335z"/>
<path style="fill:#966767; stroke:none;" d="M480 234L481 235L480 234z"/>
<path style="fill:#53575b; stroke:none;" d="M98 235L99 236L98 235M269 235L270 236L269 235M480 235L481 236L480 235M95 236L96 237L95 236M99 236L100 237L99 236z"/>
<path style="fill:#966767; stroke:none;" d="M271 236L272 237L271 236z"/>
<path style="fill:#53575b; stroke:none;" d="M342.333 236.667L342.667 237.333L342.333 236.667z"/>
<path style="fill:#966767; stroke:none;" d="M96 237L97 238L96 237M100 237L101 238L100 237M122 237L123 238L122 237M273 237L274 238L273 237z"/>
<path style="fill:#53575b; stroke:none;" d="M274 237L275 238L274 237M432 237L433 238L432 237M490 237L491 238L490 237M102 238L103 239L102 238z"/>
<path style="fill:#966767; stroke:none;" d="M120 238L121 239L120 238z"/>
<path style="fill:#53575b; stroke:none;" d="M191 238L192 239L191 238z"/>
<path style="fill:#966767; stroke:none;" d="M276 238L277 239L276 238z"/>
<path style="fill:#53575b; stroke:none;" d="M277 238L278 239L277 238z"/>
<path style="fill:#966767; stroke:none;" d="M342 238L343 239L342 238M481 238L482 239L481 238M490.333 238.667L490.667 239.333L490.333 238.667M104 239L105 240L104 239z"/>
<path style="fill:#53575b; stroke:none;" d="M105 239L106 240L105 239M117 239L118 240L117 239z"/>
<path style="fill:#966767; stroke:none;" d="M280 239L281 240L280 239z"/>
<path style="fill:#53575b; stroke:none;" d="M281 239L282 240L281 239M431 239L432 240L431 239M481.333 239.667L481.667 240.333L481.333 239.667z"/>
<path style="fill:#966767; stroke:none;" d="M107.667 240.333L108.333 240.667L107.667 240.333z"/>
<path style="fill:#53575b; stroke:none;" d="M109 240L109 241L113 241L109 240z"/>
<path style="fill:#966767; stroke:none;" d="M113.667 240.333L114.333 240.667L113.667 240.333M120 240L121 241L120 240M283 240L284 241L283 240z"/>
<path style="fill:#53575b; stroke:none;" d="M430 240L431 241L430 240z"/>
<path style="fill:#966767; stroke:none;" d="M100 241L101 242L100 241M190 241L191 242L190 241z"/>
<path style="fill:#53575b; stroke:none;" d="M341 241L342 242L341 241z"/>
<path style="fill:#966767; stroke:none;" d="M426.667 241.333L427.333 241.667L426.667 241.333z"/>
<path style="fill:#53575b; stroke:none;" d="M428 241L429 242L428 241z"/>
<path style="fill:#966767; stroke:none;" d="M341 242L342 243L341 242M421 242L422 243L421 242z"/>
<path style="fill:#53575b; stroke:none;" d="M422 242L423 243L422 242z"/>
<path style="fill:#966767; stroke:none;" d="M104 243L105 244L104 243z"/>
<path style="fill:#53575b; stroke:none;" d="M114 243L115 244L114 243z"/>
<path style="fill:#966767; stroke:none;" d="M189 243L190 244L189 243z"/>
<path style="fill:#53575b; stroke:none;" d="M286 243L287 244L286 243M418 243L419 244L418 243z"/>
<path style="fill:#966767; stroke:none;" d="M340 244L341 245L340 244M415 244L416 245L415 244M482 244L482 257L483 257L482 244M188 245L189 246L188 245z"/>
<path style="fill:#53575b; stroke:none;" d="M287 245L288 246L287 245z"/>
<path style="fill:#966767; stroke:none;" d="M413 245L414 246L413 245z"/>
<path style="fill:#53575b; stroke:none;" d="M491 245L491 257L492 257L491 245M187 246L188 247L187 246M339 246L340 247L339 246z"/>
<path style="fill:#966767; stroke:none;" d="M411 246L412 247L411 246z"/>
<path style="fill:#53575b; stroke:none;" d="M288 247L289 248L288 247z"/>
<path style="fill:#966767; stroke:none;" d="M409 247L410 248L409 247M186 248L187 249L186 248M338 248L339 249L338 248z"/>
<path style="fill:#53575b; stroke:none;" d="M408 248L409 249L408 248M185 249L186 250L185 249z"/>
<path style="fill:#966767; stroke:none;" d="M289 249L290 250L289 249z"/>
<path style="fill:#53575b; stroke:none;" d="M337 249L338 250L337 249M184 250L185 251L184 250M290 250L291 251L290 250z"/>
<path style="fill:#966767; stroke:none;" d="M405 250L406 251L405 250z"/>
<path style="fill:#53575b; stroke:none;" d="M291 251L292 252L291 251z"/>
<path style="fill:#966767; stroke:none;" d="M404 251L405 252L404 251M335 252L336 253L335 252z"/>
<path style="fill:#53575b; stroke:none;" d="M403 252L404 253L403 252z"/>
<path style="fill:#966767; stroke:none;" d="M334 253L335 254L334 253z"/>
<path style="fill:#53575b; stroke:none;" d="M402 253L403 254L402 253M180 254L181 255L180 254z"/>
<path style="fill:#966767; stroke:none;" d="M333 254L334 255L333 254z"/>
<path style="fill:#53575b; stroke:none;" d="M401 254L402 255L401 254M179 255L180 256L179 255M295 255L296 256L295 255z"/>
<path style="fill:#966767; stroke:none;" d="M400 255L401 256L400 255M178 256L179 257L178 256M296 256L297 257L296 256z"/>
<path style="fill:#53575b; stroke:none;" d="M330 256L331 257L330 256z"/>
<path style="fill:#966767; stroke:none;" d="M399 256L400 257L399 256z"/>
<path style="fill:#53575b; stroke:none;" d="M298 257L299 258L298 257z"/>
<path style="fill:#966767; stroke:none;" d="M329 257L330 258L329 257M175 258L176 259L175 258M299 258L300 259L299 258z"/>
<path style="fill:#53575b; stroke:none;" d="M327 258L328 259L327 258z"/>
<path style="fill:#966767; stroke:none;" d="M301 259L302 260L301 259z"/>
<path style="fill:#53575b; stroke:none;" d="M325 259L326 260L325 259M397 259L398 260L397 259M172 260L173 261L172 260M304 260L305 261L304 260M322 260L323 261L322 260z"/>
<path style="fill:#966767; stroke:none;" d="M323 260L324 261L323 260M171 261L172 262L171 261M307 261L308 262L307 261z"/>
<path style="fill:#53575b; stroke:none;" d="M308.667 261.333L309.333 261.667L308.667 261.333M317.667 261.333L318.333 261.667L317.667 261.333z"/>
<path style="fill:#966767; stroke:none;" d="M319 261L320 262L319 261z"/>
<path style="fill:#53575b; stroke:none;" d="M396 261L397 262L396 261z"/>
<path style="fill:#966767; stroke:none;" d="M170 262L171 263L170 262M395 262L396 263L395 262M490 262L490 265L491 265L490 262M169 263L170 264L169 263z"/>
<path style="fill:#53575b; stroke:none;" d="M481 263L481 266L482 266L481 263z"/>
<path style="fill:#966767; stroke:none;" d="M168 264L169 265L168 264M394 264L395 265L394 264z"/>
<path style="fill:#53575b; stroke:none;" d="M167 265L168 266L167 265z"/>
<path style="fill:#966767; stroke:none;" d="M252.667 265.333L253.333 265.667L252.667 265.333z"/>
<path style="fill:#53575b; stroke:none;" d="M254 265L255 266L254 265z"/>
<path style="fill:#020202; stroke:none;" d="M255 265.465C242.303 267.693 232.918 278.037 232.21 291C231.987 295.078 234.038 298.948 233.531 303C232.268 313.097 228.201 320.791 232.916 331C239.801 345.91 251.139 344.191 264 348.727C275.085 352.636 282.251 359.682 295 357.384C322.528 352.423 334.222 319.051 315.535 298.093C307.493 289.074 295.81 290.318 287.015 283.467C276.444 275.234 271.041 262.65 255 265.465z"/>
<path style="fill:#53575b; stroke:none;" d="M262.667 265.333L263.333 265.667L262.667 265.333z"/>
<path style="fill:#966767; stroke:none;" d="M264 265L265 266L264 265z"/>
<path style="fill:#53575b; stroke:none;" d="M490.333 265.667L490.667 266.333L490.333 265.667z"/>
<path style="fill:#966767; stroke:none;" d="M249 266L250 267L249 266z"/>
<path style="fill:#53575b; stroke:none;" d="M250 266L251 267L250 266M267 266L268 267L267 266z"/>
<path style="fill:#966767; stroke:none;" d="M393 266L394 267L393 266M481 266L481 269L482 269L481 266M166 267L167 268L166 267z"/>
<path style="fill:#53575b; stroke:none;" d="M247 267L248 268L247 267M269 267L270 268L269 267z"/>
<path style="fill:#966767; stroke:none;" d="M270 267L271 268L270 267z"/>
<path style="fill:#53575b; stroke:none;" d="M393 267L394 268L393 267z"/>
<path style="fill:#966767; stroke:none;" d="M245 268L246 269L245 268M272 268L273 269L272 268M165 269L166 270L165 269M243 269L244 270L243 269z"/>
<path style="fill:#53575b; stroke:none;" d="M273 269L274 270L273 269z"/>
<path style="fill:#966767; stroke:none;" d="M392 269L393 270L392 269M242 270L243 271L242 270z"/>
<path style="fill:#53575b; stroke:none;" d="M392 270L393 271L392 270z"/>
<path style="fill:#966767; stroke:none;" d="M489.333 270.667L489.667 271.333L489.333 270.667z"/>
<path style="fill:#53575b; stroke:none;" d="M164 271L165 272L164 271M241 271L242 272L241 271z"/>
<path style="fill:#966767; stroke:none;" d="M276 271L277 272L276 271M164.333 272.667L164.667 273.333L164.333 272.667z"/>
<path style="fill:#53575b; stroke:none;" d="M240 272L241 273L240 272z"/>
<path style="fill:#966767; stroke:none;" d="M277 272L278 273L277 272M391 272L392 273L391 272z"/>
<path style="fill:#53575b; stroke:none;" d="M489 272L490 273L489 272M239 273L240 274L239 273z"/>
<path style="fill:#966767; stroke:none;" d="M278 273L279 274L278 273z"/>
<path style="fill:#53575b; stroke:none;" d="M391 273L392 274L391 273M480 273L480 276L481 276L480 273M238 274L239 275L238 274z"/>
<path style="fill:#966767; stroke:none;" d="M279 274L280 275L279 274M237 275L238 276L237 275z"/>
<path style="fill:#53575b; stroke:none;" d="M255 275.529C237.748 279.491 245.501 293.536 243.432 305C241.181 317.473 236.598 331.187 253 336.891C257.903 338.596 263.173 337.449 268 339.533C277.801 343.764 284.419 350.303 296 347.236C315.016 342.2 321.812 316.714 306.907 303.329C299.471 296.652 288.954 297.01 281.015 291.073C272.259 284.525 268.162 272.507 255 275.529M280 276L281 277L280 276z"/>
<path style="fill:#966767; stroke:none;" d="M480.333 276.667L480.667 277.333L480.333 276.667M488.333 276.667L488.667 277.333L488.333 276.667z"/>
<path style="fill:#53575b; stroke:none;" d="M163 277L163 280L164 280L163 277M236 277L237 278L236 277z"/>
<path style="fill:#966767; stroke:none;" d="M281 277L282 278L281 277M390 277L390 280L391 280L390 277M235 278L236 279L235 278z"/>
<path style="fill:#53575b; stroke:none;" d="M488 278L489 279L488 278M282 279L283 280L282 279z"/>
<path style="fill:#966767; stroke:none;" d="M163.333 280.667L163.667 281.333L163.333 280.667M234 280L235 281L234 280z"/>
<path style="fill:#53575b; stroke:none;" d="M283 280L284 281L283 280M390 280L390 286L391 286L390 280M284 281L285 282L284 281M479.333 281.667L479.667 282.333L479.333 281.667z"/>
<path style="fill:#966767; stroke:none;" d="M487.333 281.667L487.667 282.333L487.333 281.667M233 282L234 283L233 282z"/>
<path style="fill:#53575b; stroke:none;" d="M285 282L286 283L285 282M233 283L234 284L233 283M286 283L287 284L286 283z"/>
<path style="fill:#966767; stroke:none;" d="M479.333 283.667L479.667 284.333L479.333 283.667z"/>
<path style="fill:#53575b; stroke:none;" d="M487 283L488 284L487 283M162.333 284.667L162.667 285.333L162.333 284.667z"/>
<path style="fill:#966767; stroke:none;" d="M288 284L289 285L288 284z"/>
<path style="fill:#53575b; stroke:none;" d="M289 285L290 286L289 285z"/>
<path style="fill:#966767; stroke:none;" d="M162 286L163 287L162 286M232 286L233 287L232 286z"/>
<path style="fill:#53575b; stroke:none;" d="M291 286L292 287L291 286z"/>
<path style="fill:#966767; stroke:none;" d="M292 286L293 287L292 286M390.333 286.667L390.667 287.333L390.333 286.667M486.333 286.667L486.667 287.333L486.333 286.667z"/>
<path style="fill:#53575b; stroke:none;" d="M232.333 287.667L232.667 288.333L232.333 287.667M295.667 287.333L296.333 287.667L295.667 287.333z"/>
<path style="fill:#966767; stroke:none;" d="M297 287L298 288L297 287z"/>
<path style="fill:#53575b; stroke:none;" d="M161 288L162 289L161 288z"/>
<path style="fill:#966767; stroke:none;" d="M300 288L301 289L300 288z"/>
<path style="fill:#53575b; stroke:none;" d="M478.333 288.667L478.667 289.333L478.333 288.667M486 288L487 289L486 288z"/>
<path style="fill:#966767; stroke:none;" d="M161 289L162 290L161 289z"/>
<path style="fill:#53575b; stroke:none;" d="M302 289L303 290L302 289z"/>
<path style="fill:#966767; stroke:none;" d="M303 289L304 290L303 289M305 290L306 291L305 290M478.333 290.667L478.667 291.333L478.333 290.667z"/>
<path style="fill:#53575b; stroke:none;" d="M160 291L161 292L160 291z"/>
<path style="fill:#966767; stroke:none;" d="M307 291L308 292L307 291z"/>
<path style="fill:#53575b; stroke:none;" d="M391 291L392 292L391 291z"/>
<path style="fill:#966767; stroke:none;" d="M485 291L486 292L485 291M160 292L161 293L160 292z"/>
<path style="fill:#53575b; stroke:none;" d="M308 292L309 293L308 292z"/>
<path style="fill:#966767; stroke:none;" d="M391 292L392 293L391 292z"/>
<path style="fill:#53575b; stroke:none;" d="M485 292L486 293L485 292z"/>
<path style="fill:#966767; stroke:none;" d="M310 293L311 294L310 293M159 294L160 295L159 294z"/>
<path style="fill:#53575b; stroke:none;" d="M311 294L312 295L311 294M232.333 295.667L232.667 296.333L232.333 295.667M392 295L393 296L392 295M477.333 295.667L477.667 296.333L477.333 295.667z"/>
<path style="fill:#966767; stroke:none;" d="M484.333 295.667L484.667 296.333L484.333 295.667M158 296L159 297L158 296M392 296L393 297L392 296M232 297L233 298L232 297M477.333 297.667L477.667 298.333L477.333 297.667z"/>
<path style="fill:#53575b; stroke:none;" d="M484 297L485 298L484 297z"/>
<path style="fill:#966767; stroke:none;" d="M157 298L158 299L157 298z"/>
<path style="fill:#53575b; stroke:none;" d="M393 298L394 299L393 298M156 299L157 300L156 299M233.333 299.667L233.667 300.333L233.333 299.667M316 299L317 300L316 299M317 300L318 301L317 300M394 300L395 301L394 300z"/>
<path style="fill:#966767; stroke:none;" d="M483 300L484 301L483 300M155 301L156 302L155 301M233 301L234 302L233 301M318 301L319 302L318 301z"/>
<path style="fill:#53575b; stroke:none;" d="M483 301L484 302L483 301M154 302L155 303L154 302M395 302L396 303L395 302M476.333 302.667L476.667 303.333L476.333 302.667M153 303L154 304L153 303z"/>
<path style="fill:#966767; stroke:none;" d="M233 303L234 304L233 303z"/>
<path style="fill:#53575b; stroke:none;" d="M319 303L320 304L319 303M233 304L234 305L233 304z"/>
<path style="fill:#966767; stroke:none;" d="M320 304L321 305L320 304z"/>
<path style="fill:#53575b; stroke:none;" d="M396 304L397 305L396 304z"/>
<path style="fill:#966767; stroke:none;" d="M476 304L477 305L476 304M482 304L483 305L482 304z"/>
<path style="fill:#53575b; stroke:none;" d="M482.333 305.667L482.667 306.333L482.333 305.667z"/>
<path style="fill:#966767; stroke:none;" d="M232 306L233 307L232 306M321 306L322 307L321 306z"/>
<path style="fill:#53575b; stroke:none;" d="M398 307L399 308L398 307z"/>
<path style="fill:#966767; stroke:none;" d="M322 308L323 309L322 308z"/>
<path style="fill:#53575b; stroke:none;" d="M399 308L400 309L399 308M231 309L232 310L231 309M322 309L323 310L322 309M475.333 309.667L475.667 310.333L475.333 309.667z"/>
<path style="fill:#966767; stroke:none;" d="M481.333 309.667L481.667 310.333L481.333 309.667z"/>
<path style="fill:#53575b; stroke:none;" d="M146 310L147 311L146 310z"/>
<path style="fill:#966767; stroke:none;" d="M145 311L146 312L145 311M323 311L324 312L323 311M475 311L476 312L475 311z"/>
<path style="fill:#53575b; stroke:none;" d="M481.333 311.667L481.667 312.333L481.333 311.667z"/>
<path style="fill:#966767; stroke:none;" d="M230.333 312.667L230.667 313.333L230.333 312.667z"/>
<path style="fill:#53575b; stroke:none;" d="M323 312L324 313L323 312z"/>
<path style="fill:#966767; stroke:none;" d="M142 313L143 314L142 313z"/>
<path style="fill:#53575b; stroke:none;" d="M140 314L141 315L140 314M230.333 314.667L230.667 315.333L230.333 314.667M138 315L139 316L138 315z"/>
<path style="fill:#966767; stroke:none;" d="M324 315L325 316L324 315z"/>
<path style="fill:#53575b; stroke:none;" d="M406 315L407 316L406 315M136 316L137 317L136 316M324.333 316.667L324.667 317.333L324.333 316.667z"/>
<path style="fill:#966767; stroke:none;" d="M407 316L408 317L407 316z"/>
<path style="fill:#53575b; stroke:none;" d="M474 316L474 319L475 319L474 316z"/>
<path style="fill:#966767; stroke:none;" d="M480.333 316.667L480.667 317.333L480.333 316.667M134 317L135 318L134 317z"/>
<path style="fill:#53575b; stroke:none;" d="M409 317L410 318L409 317M130 318L131 319L130 318z"/>
<path style="fill:#966767; stroke:none;" d="M131 318L132 319L131 318M410 318L411 319L410 318z"/>
<path style="fill:#53575b; stroke:none;" d="M480 318L480 321L481 321L480 318M126 319L127 320L126 319z"/>
<path style="fill:#966767; stroke:none;" d="M127.667 319.333L128.333 319.667L127.667 319.333z"/>
<path style="fill:#53575b; stroke:none;" d="M412 319L413 320L412 319z"/>
<path style="fill:#966767; stroke:none;" d="M474.333 319.667L474.667 320.333L474.333 319.667M119 320L119 321L123 321L119 320z"/>
<path style="fill:#53575b; stroke:none;" d="M414 320L415 321L414 320M230.333 321.667L230.667 322.333L230.333 321.667z"/>
<path style="fill:#966767; stroke:none;" d="M416 321L417 322L416 321z"/>
<path style="fill:#53575b; stroke:none;" d="M417 321L418 322L417 321z"/>
<path style="fill:#966767; stroke:none;" d="M119 322L120 323L119 322z"/>
<path style="fill:#53575b; stroke:none;" d="M419 322L420 323L419 322z"/>
<path style="fill:#966767; stroke:none;" d="M230.333 323.667L230.667 324.333L230.333 323.667M120 324L121 325L120 324M421 324L422 325L421 324z"/>
<path style="fill:#53575b; stroke:none;" d="M120 325L121 326L120 325z"/>
<path style="fill:#966767; stroke:none;" d="M121 326L122 327L121 326z"/>
<path style="fill:#53575b; stroke:none;" d="M422 326L423 327L422 326M473 326L473 330L474 330L473 326M121 327L122 328L121 327M231 327L232 328L231 327M324.333 327.667L324.667 328.333L324.333 327.667z"/>
<path style="fill:#966767; stroke:none;" d="M422 327L423 328L422 327M479 327L479 338L480 338L479 327M122 328L123 329L122 328M324 329L325 330L324 329M123 330L124 331L123 330M232 330L233 331L232 330z"/>
<path style="fill:#53575b; stroke:none;" d="M423 330L424 331L423 330z"/>
<path style="fill:#966767; stroke:none;" d="M473 330L473 337L474 337L473 330z"/>
<path style="fill:#53575b; stroke:none;" d="M124 332L125 333L124 332z"/>
<path style="fill:#966767; stroke:none;" d="M233 332L234 333L233 332z"/>
<path style="fill:#53575b; stroke:none;" d="M323 332L324 333L323 332M424 332L425 333L424 332z"/>
<path style="fill:#966767; stroke:none;" d="M125 333L126 334L125 333M323 333L324 334L323 333z"/>
<path style="fill:#53575b; stroke:none;" d="M425 334L426 335L425 334M235 335L236 336L235 335M322 335L323 336L322 335M127 336L128 337L127 336M236 336L237 337L236 336z"/>
<path style="fill:#966767; stroke:none;" d="M426 336L427 337L426 336M128 337L129 338L128 337z"/>
<path style="fill:#53575b; stroke:none;" d="M321 337L322 338L321 337z"/>
<path style="fill:#966767; stroke:none;" d="M427 337L428 338L427 337z"/>
<path style="fill:#53575b; stroke:none;" d="M428 338L429 339L428 338M320 339L321 340L320 339M429 339L430 340L429 339z"/>
<path style="fill:#966767; stroke:none;" d="M430 340L431 341L430 340z"/>
<path style="fill:#53575b; stroke:none;" d="M131 341L132 342L131 341M319 341L320 342L319 341z"/>
<path style="fill:#966767; stroke:none;" d="M431 341L432 342L431 341z"/>
<path style="fill:#53575b; stroke:none;" d="M132 342L133 343L132 342M242 342L243 343L242 342M433 342L434 343L433 342M133 343L134 344L133 343z"/>
<path style="fill:#966767; stroke:none;" d="M243 343L244 344L243 343M434 343L435 344L434 343z"/>
<path style="fill:#53575b; stroke:none;" d="M435 343L436 344L435 343z"/>
<path style="fill:#966767; stroke:none;" d="M473 343L473 348L474 348L473 343M245 344L246 345L245 344M317 344L318 345L317 344z"/>
<path style="fill:#53575b; stroke:none;" d="M436 344L437 345L436 344M480 344L480 347L481 347L480 344z"/>
<path style="fill:#966767; stroke:none;" d="M247 345L248 346L247 345z"/>
<path style="fill:#53575b; stroke:none;" d="M316 345L317 346L316 345z"/>
<path style="fill:#966767; stroke:none;" d="M249 346L250 347L249 346z"/>
<path style="fill:#53575b; stroke:none;" d="M250 346L251 347L250 346M315 346L316 347L315 346z"/>
<path style="fill:#966767; stroke:none;" d="M138 347L139 348L138 347M252.667 347.333L253.333 347.667L252.667 347.333z"/>
<path style="fill:#53575b; stroke:none;" d="M254 347L255 348L254 347M314 347L315 348L314 347z"/>
<path style="fill:#966767; stroke:none;" d="M367 347L368 348L367 347z"/>
<path style="fill:#53575b; stroke:none;" d="M368 347L368 348L373 348L368 347z"/>
<path style="fill:#966767; stroke:none;" d="M373 347L374 348L373 347M435 347L436 348L435 347M480.333 347.667L480.667 348.333L480.333 347.667z"/>
<path style="fill:#53575b; stroke:none;" d="M139 348L140 349L139 348z"/>
<path style="fill:#966767; stroke:none;" d="M263 348L264 349L263 348z"/>
<path style="fill:#53575b; stroke:none;" d="M264 348L265 349L264 348M313 348L314 349L313 348M365 348L366 349L365 348M375 348L376 349L375 348M435 348L436 349L435 348M473 348L473 351L474 351L473 348M140 349L141 350L140 349M266 349L267 350L266 349M312 349L313 350L312 349z"/>
<path style="fill:#966767; stroke:none;" d="M362 349L363 350L362 349z"/>
<path style="fill:#53575b; stroke:none;" d="M377 349L378 350L377 349z"/>
<path style="fill:#966767; stroke:none;" d="M142 350L143 351L142 350M267 350L268 351L267 350M311 350L312 351L311 350z"/>
<path style="fill:#53575b; stroke:none;" d="M360 350L361 351L360 350M358 351L359 352L358 351M145 352L146 353L145 352M270 352L271 353L270 352M308 352L309 353L308 352z"/>
<path style="fill:#966767; stroke:none;" d="M355 352L356 353L355 352z"/>
<path style="fill:#53575b; stroke:none;" d="M481.333 352.667L481.667 353.333L481.333 352.667z"/>
<path style="fill:#966767; stroke:none;" d="M147 353L148 354L147 353z"/>
<path style="fill:#53575b; stroke:none;" d="M272 353L273 354L272 353M306 353L307 354L306 353z"/>
<path style="fill:#966767; stroke:none;" d="M352 353L353 354L352 353z"/>
<path style="fill:#53575b; stroke:none;" d="M353 353L354 354L353 353z"/>
<path style="fill:#966767; stroke:none;" d="M434 353L434 356L435 356L434 353M273 354L274 355L273 354z"/>
<path style="fill:#53575b; stroke:none;" d="M274 354L275 355L274 354M304 354L305 355L304 354M350 354L351 355L350 354z"/>
<path style="fill:#966767; stroke:none;" d="M382 354L383 355L382 354M481 354L482 355L481 354z"/>
<path style="fill:#53575b; stroke:none;" d="M150 355L151 356L150 355M276 355L277 356L276 355M302 355L303 356L302 355M347 355L348 356L347 355z"/>
<path style="fill:#966767; stroke:none;" d="M474.333 355.667L474.667 356.333L474.333 355.667z"/>
<path style="fill:#53575b; stroke:none;" d="M152 356L153 357L152 356z"/>
<path style="fill:#966767; stroke:none;" d="M278 356L279 357L278 356z"/>
<path style="fill:#53575b; stroke:none;" d="M279 356L280 357L279 356M299 356L300 357L299 356z"/>
<path style="fill:#966767; stroke:none;" d="M300 356L301 357L300 356M344 356L345 357L344 356M383 356L384 357L383 356M282 357L283 358L282 357z"/>
<path style="fill:#53575b; stroke:none;" d="M283.667 357.333L284.333 357.667L283.667 357.333M294.667 357.333L295.333 357.667L294.667 357.333z"/>
<path style="fill:#966767; stroke:none;" d="M296 357L297 358L296 357z"/>
<path style="fill:#53575b; stroke:none;" d="M341 357L342 358L341 357M474 357L475 358L474 357z"/>
<path style="fill:#966767; stroke:none;" d="M157 358L158 359L157 358z"/>
<path style="fill:#53575b; stroke:none;" d="M338 358L339 359L338 358z"/>
<path style="fill:#966767; stroke:none;" d="M368 358L369 359L368 358z"/>
<path style="fill:#f97977; stroke:none;" d="M368.981 358.677C358.281 359.496 345.537 367.296 335 370.29C331.886 371.175 324.97 371.57 323.121 374.564C320.878 378.195 325.767 385.176 327.789 388C336.119 399.632 350.006 404.936 364 403.91C371.43 403.365 392.248 395.916 391.079 386C390.566 381.654 384.445 377.361 381.9 374C378.866 369.995 374.845 358.229 368.981 358.677z"/>
<path style="fill:#966767; stroke:none;" d="M372 358L373 359L372 358z"/>
<path style="fill:#53575b; stroke:none;" d="M482 358L483 359L482 358M159 359L160 360L159 359z"/>
<path style="fill:#966767; stroke:none;" d="M334 359L335 360L334 359z"/>
<path style="fill:#53575b; stroke:none;" d="M335 359L336 360L335 359M365 359L366 360L365 359M384 359L385 360L384 359z"/>
<path style="fill:#966767; stroke:none;" d="M482 359L483 360L482 359z"/>
<path style="fill:#53575b; stroke:none;" d="M162 360L163 361L162 360M331 360L332 361L331 360z"/>
<path style="fill:#966767; stroke:none;" d="M363 360L364 361L363 360z"/>
<path style="fill:#53575b; stroke:none;" d="M435.333 360.667L435.667 361.333L435.333 360.667z"/>
<path style="fill:#966767; stroke:none;" d="M475 360L476 361L475 360M165 361L166 362L165 361z"/>
<path style="fill:#53575b; stroke:none;" d="M327 361L328 362L327 361z"/>
<path style="fill:#966767; stroke:none;" d="M361 361L362 362L361 361z"/>
<path style="fill:#53575b; stroke:none;" d="M475 361L476 362L475 361M168 362L169 363L168 362z"/>
<path style="fill:#966767; stroke:none;" d="M169 362L170 363L169 362z"/>
<path style="fill:#53575b; stroke:none;" d="M323 362L324 363L323 362M358 362L359 363L358 362z"/>
<path style="fill:#966767; stroke:none;" d="M374 362L375 363L374 362M386 362L387 363L386 362M435 362L436 363L435 362z"/>
<path style="fill:#53575b; stroke:none;" d="M483 362L484 363L483 362M171 363L172 364L171 363z"/>
<path style="fill:#966767; stroke:none;" d="M172 363L173 364L172 363M318 363L319 364L318 363z"/>
<path style="fill:#53575b; stroke:none;" d="M319 363L320 364L319 363M355 363L356 364L355 363z"/>
<path style="fill:#966767; stroke:none;" d="M483.333 363.667L483.667 364.333L483.333 363.667M313 364L314 365L313 364z"/>
<path style="fill:#53575b; stroke:none;" d="M314 364L315 365L314 364z"/>
<path style="fill:#966767; stroke:none;" d="M353 364L354 365L353 364M375 364L376 365L375 364z"/>
<path style="fill:#53575b; stroke:none;" d="M387 364L388 365L387 364z"/>
<path style="fill:#966767; stroke:none;" d="M476 364L477 365L476 364z"/>
<path style="fill:#53575b; stroke:none;" d="M175 365L176 366L175 365z"/>
<path style="fill:#966767; stroke:none;" d="M229 365L230 366L229 365z"/>
<path style="fill:#53575b; stroke:none;" d="M230 365L231 366L230 365M236 365L237 366L236 365z"/>
<path style="fill:#966767; stroke:none;" d="M237.667 365.333L238.333 365.667L237.667 365.333M308.667 365.333L309.333 365.667L308.667 365.333z"/>
<path style="fill:#53575b; stroke:none;" d="M310 365L311 366L310 365z"/>
<path style="fill:#966767; stroke:none;" d="M350 365L351 366L350 365M388 365L389 366L388 365z"/>
<path style="fill:#53575b; stroke:none;" d="M483 365L484 366L483 365z"/>
<path style="fill:#e2e4e3; stroke:none;" d="M149 366C154.971 396.79 154 425.948 154 457C158.329 457.893 167.657 461.759 171.397 458.243C174.572 455.258 173.881 443.268 173.985 439C174.374 423.145 174.67 406.706 172.421 391C171.749 386.31 171.999 378.384 169.012 374.513C165.746 370.282 154.041 368.068 149 366z"/>
<path style="fill:#53575b; stroke:none;" d="M150 366L151 367L150 366M176 366L177 367L176 366M241.667 366.333L242.333 366.667L241.667 366.333z"/>
<path style="fill:#966767; stroke:none;" d="M243.667 366.333L244.333 366.667L243.667 366.333M301.667 366.333L302.333 366.667L301.667 366.333z"/>
<path style="fill:#53575b; stroke:none;" d="M303.667 366.333L304.333 366.667L303.667 366.333z"/>
<path style="fill:#966767; stroke:none;" d="M347 366L348 367L347 366z"/>
<path style="fill:#53575b; stroke:none;" d="M436.333 366.667L436.667 367.333L436.333 366.667z"/>
<path style="fill:#966767; stroke:none;" d="M477 366L478 367L477 366M482 366L483 367L482 366z"/>
<path style="fill:#53575b; stroke:none;" d="M152 367L153 368L152 367z"/>
<path style="fill:#966767; stroke:none;" d="M177 367L178 368L177 367M226 367L227 368L226 367z"/>
<path style="fill:#53575b; stroke:none;" d="M249.667 367.333L250.333 367.667L249.667 367.333z"/>
<path style="fill:#966767; stroke:none;" d="M251.667 367.333L252.333 367.667L251.667 367.333M292 367L292 368L295 368L292 367z"/>
<path style="fill:#53575b; stroke:none;" d="M295 367L295 368L298 368L295 367z"/>
<path style="fill:#966767; stroke:none;" d="M344 367L345 368L344 367z"/>
<path style="fill:#53575b; stroke:none;" d="M478 367L479 368L478 367z"/>
<path style="fill:#966767; stroke:none;" d="M479.667 367.333L480.333 367.667L479.667 367.333z"/>
<path style="fill:#53575b; stroke:none;" d="M481 367L482 368L481 367z"/>
<path style="fill:#966767; stroke:none;" d="M149.333 368.667L149.667 369.333L149.333 368.667z"/>
<path style="fill:#53575b; stroke:none;" d="M154 368L155 369L154 368M259 368L259 369L265 369L259 368z"/>
<path style="fill:#966767; stroke:none;" d="M265 368L265 369L281 369L265 368z"/>
<path style="fill:#53575b; stroke:none;" d="M281 368L281 369L287 369L281 368z"/>
<path style="fill:#966767; stroke:none;" d="M341 368L342 369L341 368z"/>
<path style="fill:#53575b; stroke:none;" d="M390 368L391 369L390 368z"/>
<path style="fill:#966767; stroke:none;" d="M436.333 368.667L436.667 369.333L436.333 368.667z"/>
<path style="fill:#53575b; stroke:none;" d="M493 368C486.153 381.161 476.985 377.799 467 371C465.919 376.823 464.721 386.276 468.027 391.625C469.793 394.483 473.136 395.696 474.397 399.015C477.738 407.815 479.042 414.38 484 423L486 423C491.431 415.417 492.373 409.232 495.6 401.019C496.81 397.938 500.116 396.662 501.397 393.741C504.854 385.853 500.516 371.697 493 368M157 369L158 370L157 369M225 369L226 370L225 369M337 369L338 370L337 369z"/>
<path style="fill:#966767; stroke:none;" d="M378 369L379 370L378 369M391 369L392 370L391 369z"/>
<path style="fill:#53575b; stroke:none;" d="M149 370L150 371L149 370z"/>
<path style="fill:#966767; stroke:none;" d="M159 370L160 371L159 370M334 370L335 371L334 370M162 371L163 372L162 371z"/>
<path style="fill:#53575b; stroke:none;" d="M163 371L164 372L163 371M179 371L180 372L179 371z"/>
<path style="fill:#966767; stroke:none;" d="M224 371L225 372L224 371M330 371L331 372L330 371z"/>
<path style="fill:#53575b; stroke:none;" d="M166 372L167 373L166 372M224.333 372.667L224.667 373.333L224.333 372.667z"/>
<path style="fill:#966767; stroke:none;" d="M326 372L327 373L326 372M380 372L381 373L380 372z"/>
<path style="fill:#53575b; stroke:none;" d="M437.333 372.667L437.667 373.333L437.333 372.667z"/>
<path style="fill:#966767; stroke:none;" d="M150.333 373.667L150.667 374.333L150.333 373.667z"/>
<path style="fill:#53575b; stroke:none;" d="M321 373L322 374L321 373z"/>
<path style="fill:#966767; stroke:none;" d="M322 373L323 374L322 373z"/>
<path style="fill:#53575b; stroke:none;" d="M381 373L382 374L381 373z"/>
<path style="fill:#966767; stroke:none;" d="M180 374L181 375L180 374M321 374L322 375L321 374M437.333 374.667L437.667 375.333L437.333 374.667z"/>
<path style="fill:#53575b; stroke:none;" d="M150.333 375.667L150.667 376.333L150.333 375.667M180 375L181 376L180 375M321 375L322 376L321 375z"/>
<path style="fill:#966767; stroke:none;" d="M383 376L384 377L383 376z"/>
<path style="fill:#53575b; stroke:none;" d="M170 377L171 378L170 377z"/>
<path style="fill:#966767; stroke:none;" d="M322 377L323 378L322 377M384 377L385 378L384 377M399 377L400 378L399 377M170 378L171 379L170 378z"/>
<path style="fill:#53575b; stroke:none;" d="M322 378L323 379L322 378z"/>
<path style="fill:#966767; stroke:none;" d="M385 378L386 379L385 378M400 378L401 379L400 378M151.333 379.667L151.667 380.333L151.333 379.667M223.333 379.667L223.667 380.333L223.333 379.667z"/>
<path style="fill:#53575b; stroke:none;" d="M386 379L387 380L386 379M401 379L402 380L401 379M438.333 379.667L438.667 380.333L438.333 379.667z"/>
<path style="fill:#966767; stroke:none;" d="M181 380L182 381L181 380M323 380L324 381L323 380z"/>
<path style="fill:#53575b; stroke:none;" d="M387 380L388 381L387 380M151.333 381.667L151.667 382.333L151.333 381.667M181 381L182 382L181 381M223.333 381.667L223.667 382.333L223.333 381.667M388 381L389 382L388 381z"/>
<path style="fill:#966767; stroke:none;" d="M404 381L405 382L404 381M438 381L439 382L438 381z"/>
<path style="fill:#53575b; stroke:none;" d="M171.333 382.667L171.667 383.333L171.333 382.667z"/>
<path style="fill:#966767; stroke:none;" d="M324 382L325 383L324 382z"/>
<path style="fill:#53575b; stroke:none;" d="M389 382L390 383L389 382M405 382L406 383L405 382M390 383L391 384L390 383z"/>
<path style="fill:#966767; stroke:none;" d="M407 383L408 384L407 383M171 384L172 385L171 384M325 384L326 385L325 384M391 384L392 385L391 384z"/>
<path style="fill:#53575b; stroke:none;" d="M408 384L409 385L408 384z"/>
<path style="fill:#966767; stroke:none;" d="M222 385L223 386L222 385M392.333 385.667L392.667 386.333L392.333 385.667z"/>
<path style="fill:#53575b; stroke:none;" d="M409 385L410 386L409 385M439 385L439 390L440 390L439 385z"/>
<path style="fill:#966767; stroke:none;" d="M152.333 386.667L152.667 387.333L152.333 386.667M182 386L183 387L182 386z"/>
<path style="fill:#53575b; stroke:none;" d="M222 386L223 387L222 386M326 386L327 387L326 386M410 386L411 387L410 386M182.333 387.667L182.667 388.333L182.333 387.667z"/>
<path style="fill:#966767; stroke:none;" d="M327 387L328 388L327 387M411 387L412 388L411 387z"/>
<path style="fill:#53575b; stroke:none;" d="M152.333 388.667L152.667 389.333L152.333 388.667M172.333 389.667L172.667 390.333L172.333 389.667z"/>
<path style="fill:#966767; stroke:none;" d="M221 389L222 390L221 389z"/>
<path style="fill:#53575b; stroke:none;" d="M390 389L391 390L390 389z"/>
<path style="fill:#966767; stroke:none;" d="M412 389L413 390L412 389z"/>
<path style="fill:#53575b; stroke:none;" d="M221 390L222 391L221 390M329 390L330 391L329 390z"/>
<path style="fill:#966767; stroke:none;" d="M389 390L390 391L389 390M172 391L173 392L172 391M330 391L331 392L330 391M388 391L389 392L388 391M220 392L221 393L220 392M331 392L332 393L331 392M387 392L388 393L387 392z"/>
<path style="fill:#e2e4e3; stroke:none;" d="M401 392L390 404C391.512 410.291 388.248 417.867 382 411L381 411L367 453C389.173 463.306 395.027 429.067 399.29 414C401.004 407.94 405.095 397.433 401 392z"/>
<path style="fill:#966767; stroke:none;" d="M413 392L414 393L413 392M438 392L439 393L438 392z"/>
<path style="fill:#53575b; stroke:none;" d="M220 393L221 394L220 393z"/>
<path style="fill:#966767; stroke:none;" d="M332 393L333 394L332 393M386 393L387 394L386 393M400 393L401 394L400 393z"/>
<path style="fill:#53575b; stroke:none;" d="M413 393L413 397L414 397L413 393M438 393L439 394L438 393z"/>
<path style="fill:#966767; stroke:none;" d="M153 394L153 397L154 397L153 394z"/>
<path style="fill:#53575b; stroke:none;" d="M333 394L334 395L333 394z"/>
<path style="fill:#966767; stroke:none;" d="M385 394L386 395L385 394z"/>
<path style="fill:#53575b; stroke:none;" d="M399 394L400 395L399 394M403.333 394.667L403.667 395.333L403.333 394.667z"/>
<path style="fill:#966767; stroke:none;" d="M183.333 395.667L183.667 396.333L183.333 395.667M219 395L220 396L219 395z"/>
<path style="fill:#53575b; stroke:none;" d="M334 395L335 396L334 395M384 395L385 396L384 395M219 396L220 397L219 396z"/>
<path style="fill:#966767; stroke:none;" d="M437 396L438 397L437 396z"/>
<path style="fill:#53575b; stroke:none;" d="M153 397L153 400L154 400L153 397M183 397L183 400L184 400L183 397z"/>
<path style="fill:#966767; stroke:none;" d="M337 397L338 398L337 397M381 397L382 398L381 397M413 397L414 398L413 397z"/>
<path style="fill:#53575b; stroke:none;" d="M437 397L438 398L437 397M173 398L173 402L174 402L173 398M218 398L219 399L218 398z"/>
<path style="fill:#966767; stroke:none;" d="M339 398L340 399L339 398M396 398L397 399L396 398z"/>
<path style="fill:#53575b; stroke:none;" d="M340 399L341 400L340 399M378 399L379 400L378 399z"/>
<path style="fill:#966767; stroke:none;" d="M395 399L396 400L395 399M402 399L403 400L402 399M217 400L218 401L217 400z"/>
<path style="fill:#53575b; stroke:none;" d="M342 400L343 401L342 400M376 400L377 401L376 400z"/>
<path style="fill:#966767; stroke:none;" d="M394 400L395 401L394 400z"/>
<path style="fill:#53575b; stroke:none;" d="M402 400L403 401L402 400z"/>
<path style="fill:#966767; stroke:none;" d="M436 400L437 401L436 400z"/>
<path style="fill:#53575b; stroke:none;" d="M344 401L345 402L344 401z"/>
<path style="fill:#966767; stroke:none;" d="M345 401L346 402L345 401z"/>
<path style="fill:#53575b; stroke:none;" d="M374 401L375 402L374 401z"/>
<path style="fill:#966767; stroke:none;" d="M393 401L394 402L393 401z"/>
<path style="fill:#53575b; stroke:none;" d="M412.333 401.667L412.667 402.333L412.333 401.667M436 401L437 402L436 401z"/>
<path style="fill:#966767; stroke:none;" d="M173 402L173 405L174 405L173 402M216 402L217 403L216 402z"/>
<path style="fill:#53575b; stroke:none;" d="M347 402L348 403L347 402z"/>
<path style="fill:#966767; stroke:none;" d="M348 402L349 403L348 402M371 402L372 403L371 402z"/>
<path style="fill:#53575b; stroke:none;" d="M372 402L373 403L372 402z"/>
<path style="fill:#966767; stroke:none;" d="M392 402L393 403L392 402z"/>
<path style="fill:#53575b; stroke:none;" d="M350 403L351 404L350 403z"/>
<path style="fill:#966767; stroke:none;" d="M351.667 403.333L352.333 403.667L351.667 403.333M367 403L368 404L367 403z"/>
<path style="fill:#53575b; stroke:none;" d="M368 403L369 404L368 403z"/>
<path style="fill:#966767; stroke:none;" d="M412 403L413 404L412 403M215 404L216 405L215 404z"/>
<path style="fill:#53575b; stroke:none;" d="M356.667 404.333L357.333 404.667L356.667 404.333M361.667 404.333L362.333 404.667L361.667 404.333z"/>
<path style="fill:#966767; stroke:none;" d="M401 404L402 405L401 404M435 404L436 405L435 404z"/>
<path style="fill:#53575b; stroke:none;" d="M401 405L402 406L401 405M435 405L436 406L435 405z"/>
<path style="fill:#966767; stroke:none;" d="M214 406L215 407L214 406z"/>
<path style="fill:#53575b; stroke:none;" d="M390 406L391 407L390 406z"/>
<path style="fill:#966767; stroke:none;" d="M154 407L154 412L155 412L154 407z"/>
<path style="fill:#53575b; stroke:none;" d="M411 407L412 408L411 407z"/>
<path style="fill:#966767; stroke:none;" d="M434 407L435 408L434 407M213 408L214 409L213 408M391 408L391 411L392 411L391 408M411 408L412 409L411 408z"/>
<path style="fill:#53575b; stroke:none;" d="M434 408L435 409L434 408M400 409L401 410L400 409z"/>
<path style="fill:#966767; stroke:none;" d="M184 410L184 418L185 418L184 410M212 410L213 411L212 410z"/>
<path style="fill:#53575b; stroke:none;" d="M381 410L382 411L381 410M212 411L213 412L212 411M380.333 411.667L380.667 412.333L380.333 411.667M410 411L411 412L410 411z"/>
<path style="fill:#966767; stroke:none;" d="M433 411L434 412L433 411z"/>
<path style="fill:#53575b; stroke:none;" d="M154 412L154 437L155 437L154 412z"/>
<path style="fill:#966767; stroke:none;" d="M382 412L383 413L382 412M390 412L391 413L390 412M410 412L411 413L410 412z"/>
<path style="fill:#53575b; stroke:none;" d="M433 412L434 413L433 412z"/>
<path style="fill:#966767; stroke:none;" d="M211 413L212 414L211 413M380 413L381 414L380 413M383 413L384 414L383 413M389 413L390 414L389 413z"/>
<path style="fill:#53575b; stroke:none;" d="M399 413L400 414L399 413z"/>
<path style="fill:#966767; stroke:none;" d="M385 414L385 415L388 415L385 414z"/>
<path style="fill:#53575b; stroke:none;" d="M379.333 415.667L379.667 416.333L379.333 415.667M409 415L410 416L409 415z"/>
<path style="fill:#966767; stroke:none;" d="M432 415L433 416L432 415M210 416L211 417L210 416M398 416L399 417L398 416M409 416L410 417L409 416z"/>
<path style="fill:#53575b; stroke:none;" d="M432 416L433 417L432 416M210 417L211 418L210 417M398 417L399 418L398 417M184 418L184 430L185 430L184 418z"/>
<path style="fill:#966767; stroke:none;" d="M209 419L210 420L209 419z"/>
<path style="fill:#53575b; stroke:none;" d="M378 419L379 420L378 419M408 419L409 420L408 419z"/>
<path style="fill:#966767; stroke:none;" d="M431 419L432 420L431 419z"/>
<path style="fill:#53575b; stroke:none;" d="M209 420L210 421L209 420z"/>
<path style="fill:#966767; stroke:none;" d="M378 420L379 421L378 420z"/>
<path style="fill:#53575b; stroke:none;" d="M397 420L398 421L397 420M431 420L432 421L431 420M407 422L408 423L407 422z"/>
<path style="fill:#966767; stroke:none;" d="M208.333 423.667L208.667 424.333L208.333 423.667z"/>
<path style="fill:#53575b; stroke:none;" d="M377 423L378 424L377 423z"/>
<path style="fill:#966767; stroke:none;" d="M396 423L397 424L396 423M407 423L408 424L407 423M430 423L431 424L430 423z"/>
<path style="fill:#53575b; stroke:none;" d="M430 424L431 425L430 424M208 425L209 426L208 425M376 426L377 427L376 426z"/>
<path style="fill:#966767; stroke:none;" d="M395 426L396 427L395 426M406 426L407 427L406 426M429 426L430 427L429 426M376 427L377 428L376 427z"/>
<path style="fill:#53575b; stroke:none;" d="M395 427L396 428L395 427M429 427L430 428L429 427z"/>
<path style="fill:#966767; stroke:none;" d="M207 429L207 432L208 432L207 429z"/>
<path style="fill:#53575b; stroke:none;" d="M375 429L376 430L375 429z"/>
<path style="fill:#966767; stroke:none;" d="M394 429L395 430L394 429z"/>
<path style="fill:#53575b; stroke:none;" d="M405 429L406 430L405 429z"/>
<path style="fill:#966767; stroke:none;" d="M184 430L184 437L185 437L184 430M375 430L376 431L375 430M428 430L429 431L428 430z"/>
<path style="fill:#53575b; stroke:none;" d="M428 431L429 432L428 431M207.333 432.667L207.667 433.333L207.333 432.667M374 432L375 433L374 432z"/>
<path style="fill:#966767; stroke:none;" d="M393 432L394 433L393 432z"/>
<path style="fill:#53575b; stroke:none;" d="M404 432L405 433L404 432z"/>
<path style="fill:#966767; stroke:none;" d="M374 433L375 434L374 433M427 434L428 435L427 434z"/>
<path style="fill:#53575b; stroke:none;" d="M373 435L374 436L373 435M392 435L393 436L392 435z"/>
<path style="fill:#966767; stroke:none;" d="M403 435L404 436L403 435z"/>
<path style="fill:#53575b; stroke:none;" d="M427 435L428 436L427 435z"/>
<path style="fill:#966767; stroke:none;" d="M154 437L154 444L155 444L154 437M372 438L373 439L372 438z"/>
<path style="fill:#53575b; stroke:none;" d="M391 438L392 439L391 438z"/>
<path style="fill:#966767; stroke:none;" d="M402 438L403 439L402 438M426 438L427 439L426 438z"/>
<path style="fill:#53575b; stroke:none;" d="M426 439L427 440L426 439M371 440L372 441L371 440z"/>
<path style="fill:#966767; stroke:none;" d="M390 440L391 441L390 440z"/>
<path style="fill:#53575b; stroke:none;" d="M401 440L402 441L401 440z"/>
<path style="fill:#966767; stroke:none;" d="M371 441L372 442L371 441M425 442L426 443L425 442z"/>
<path style="fill:#53575b; stroke:none;" d="M370 443L371 444L370 443M389 443L390 444L389 443z"/>
<path style="fill:#966767; stroke:none;" d="M400 443L401 444L400 443z"/>
<path style="fill:#53575b; stroke:none;" d="M425 443L426 444L425 443z"/>
<path style="fill:#966767; stroke:none;" d="M173 444L173 447L174 447L173 444z"/>
<path style="fill:#53575b; stroke:none;" d="M369 445L370 446L369 445M388 445L389 446L388 445M399 445L400 446L399 445z"/>
<path style="fill:#966767; stroke:none;" d="M424 445L425 446L424 445M369 446L370 447L369 446z"/>
<path style="fill:#53575b; stroke:none;" d="M424 446L425 447L424 446M173 447L173 452L174 452L173 447z"/>
<path style="fill:#966767; stroke:none;" d="M387 447L388 448L387 447z"/>
<path style="fill:#53575b; stroke:none;" d="M368 448L369 449L368 448z"/>
<path style="fill:#966767; stroke:none;" d="M398 448L399 449L398 448M386 449L387 450L386 449M423 449L424 450L423 449z"/>
<path style="fill:#53575b; stroke:none;" d="M183 450L183 454L184 454L183 450M367 450L368 451L367 450M397 450L398 451L397 450M423 450L424 451L423 450M153 451L153 455L154 455L153 451z"/>
<path style="fill:#966767; stroke:none;" d="M367 451L368 452L367 451M383 452L384 453L383 452z"/>
<path style="fill:#53575b; stroke:none;" d="M396 452L397 453L396 452M367 453L368 454L367 453M381 453L382 454L381 453z"/>
<path style="fill:#966767; stroke:none;" d="M397 453L398 454L397 453M422 453L423 454L422 453M183 454L183 457L184 457L183 454z"/>
<path style="fill:#53575b; stroke:none;" d="M369 454L370 455L369 454z"/>
<path style="fill:#966767; stroke:none;" d="M370 454L371 455L370 454M379 454L380 455L379 454z"/>
<path style="fill:#53575b; stroke:none;" d="M399 454L400 455L399 454M422 454L423 455L422 454z"/>
<path style="fill:#966767; stroke:none;" d="M153.333 455.667L153.667 456.333L153.333 455.667z"/>
<path style="fill:#53575b; stroke:none;" d="M207 455L207 458L208 458L207 455z"/>
<path style="fill:#966767; stroke:none;" d="M372 455L373 456L372 455M377 455L378 456L377 455z"/>
<path style="fill:#53575b; stroke:none;" d="M401 455L402 456L401 455z"/>
<path style="fill:#966767; stroke:none;" d="M402 455L403 456L402 455z"/>
<path style="fill:#53575b; stroke:none;" d="M375.667 456.333L376.333 456.667L375.667 456.333M404 456L405 457L404 456z"/>
<path style="fill:#966767; stroke:none;" d="M405 456L406 457L405 456z"/>
<path style="fill:#53575b; stroke:none;" d="M155 457L156 458L155 457z"/>
<path style="fill:#966767; stroke:none;" d="M156 457L157 458L156 457z"/>
<path style="fill:#53575b; stroke:none;" d="M184 457L185 458L184 457z"/>
<path style="fill:#966767; stroke:none;" d="M185 457L186 458L185 457z"/>
<path style="fill:#53575b; stroke:none;" d="M407 457L408 458L407 457z"/>
<path style="fill:#966767; stroke:none;" d="M408 457L409 458L408 457M421 457L422 458L421 457z"/>
<path style="fill:#53575b; stroke:none;" d="M158.667 458.333L159.333 458.667L158.667 458.333z"/>
<path style="fill:#966767; stroke:none;" d="M160 458L161 459L160 458z"/>
<path style="fill:#53575b; stroke:none;" d="M172 458L173 459L172 458M188 458L189 459L188 458z"/>
<path style="fill:#966767; stroke:none;" d="M189.667 458.333L190.333 458.667L189.667 458.333M207.333 458.667L207.667 459.333L207.333 458.667z"/>
<path style="fill:#53575b; stroke:none;" d="M411.667 458.333L412.333 458.667L411.667 458.333z"/>
<path style="fill:#966767; stroke:none;" d="M413 458L414 459L413 458z"/>
<path style="fill:#53575b; stroke:none;" d="M421 458L422 459L421 458M163.667 459.333L164.333 459.667L163.667 459.333z"/>
<path style="fill:#966767; stroke:none;" d="M165.667 459.333L166.333 459.667L165.667 459.333M170 459L171 460L170 459z"/>
<path style="fill:#53575b; stroke:none;" d="M193.667 459.333L194.333 459.667L193.667 459.333z"/>
<path style="fill:#966767; stroke:none;" d="M195.667 459.333L196.333 459.667L195.667 459.333z"/>
<path style="fill:#53575b; stroke:none;" d="M417 459L417 460L420 460L417 459z"/>
<path style="fill:#966767; stroke:none;" d="M420 459L421 460L420 459z"/>
<path style="fill:#53575b; stroke:none;" d="M340 484L359 484L367 464C353.337 457.687 342.908 471.756 340 484M370 484L392 484L407 484C412.934 484 432.641 481.751 421.397 470.742C418.471 467.879 410.906 468.375 407 467.37C401.677 466.002 395.444 461.754 390 461.78C379.634 461.83 371.53 475.141 370 484M134 484C148.32 484 155.916 484.178 159 468C145.862 466.856 139.093 471.078 134 484M164 484L212 484C212 480.539 213.109 474.492 210.821 471.603C208.316 468.44 200.573 470.176 197 469.83C181.182 468.299 170.511 465.22 164 484z"/>
</svg>
