<?xml version="1.0" standalone="yes"?>
<svg xmlns="http://www.w3.org/2000/svg" width="512" height="512">
<path style="fill:#010101; stroke:none;" d="M0 0L0 512L512 512L512 0L0 0z"/>
<path style="fill:#743d1c; stroke:none;" d="M140 62C150.002 64.0645 163.541 70.7017 173.816 66.3966C182.017 62.9602 190.23 47.3854 197 41.0895C214.377 24.9305 237.306 16.0653 261 16C253.788 10.0956 238.038 10.0016 229 10.0016C193.422 10.0016 157.399 30.7844 140 62M125 71L125 72L132 72L125 71M120 72L121 73L120 72z"/>
<path style="fill:#9d6c37; stroke:none;" d="M121.667 72.3333L122.333 72.6667L121.667 72.3333z"/>
<path style="fill:#eba252; stroke:none;" d="M34 205C39.0249 213.601 51.5389 206.513 59 206.108C69.9894 205.512 77.6913 214.456 81 224C93.2123 218.969 95.6222 237.223 96 246L97 246C100.243 240.152 104.06 234.667 105.482 228C107.834 216.978 103.662 203.912 120 210C119.274 205.081 112.621 195.329 116.362 191.322C119.114 188.374 123.526 189.649 127 190.13C134.824 191.214 142.196 190.921 150 189.704C175.695 185.695 199.185 161.831 203 136C196.311 135.712 188.811 134.217 183.044 130.637C179.784 128.612 177.061 124.541 181.164 121.647C185.947 118.272 199.693 125.911 206 125.741C225.303 125.219 249.953 110.32 257 92C235.875 92.0582 218.146 106.568 197 108.95C191.577 109.561 181.955 112.176 177.244 108.397C172.653 104.714 176.612 100.258 181.004 99.3441C191.619 97.1358 202.329 98.2777 213 94.9745C230.144 89.6679 243.235 79.6285 262 82C257.792 75.5086 244.448 80.3957 238 80.9143C221.412 82.2488 201.81 76.209 186 82.0941C180.912 83.9879 172.361 96.5522 167.232 93.9136C160.279 90.3362 169.654 81.3733 172 78C154.483 75.7862 133.411 68.2843 116 74.0903C96.2536 80.6749 92.0346 97.6964 81.5409 113C74.5651 123.173 64.2986 132.543 55 140.575C49.1525 145.626 42.5785 151.917 35 154.2C29.2063 155.945 22.3692 153.483 17.044 156.858C7.90631 162.649 8.96842 181.158 12.2639 189.999C18.5872 206.964 44.8083 190.074 54 183.996C57.2879 181.822 65.9813 173.941 68.5926 181.113C70.1183 185.303 64.8301 188.684 61.9992 190.652C53.4722 196.581 44.0802 202.243 34 205z"/>
<path style="fill:#9d6c37; stroke:none;" d="M138 72L139 73L138 72z"/>
<path style="fill:#743d1c; stroke:none;" d="M139.667 72.3333L140.333 72.6667L139.667 72.3333M116 73L117 74L116 73z"/>
<path style="fill:#9d6c37; stroke:none;" d="M117 73L118 74L117 73M143 73L144 74L143 73z"/>
<path style="fill:#743d1c; stroke:none;" d="M144 73L145 74L144 73M113 74L114 75L113 74z"/>
<path style="fill:#9d6c37; stroke:none;" d="M114 74L115 75L114 74M147 74L148 75L147 74z"/>
<path style="fill:#743d1c; stroke:none;" d="M148 74L149 75L148 74M111 75L112 76L111 75z"/>
<path style="fill:#9d6c37; stroke:none;" d="M112 75L113 76L112 75M150 75L151 76L150 75z"/>
<path style="fill:#743d1c; stroke:none;" d="M109 76L110 77L109 76M153 76L154 77L153 76z"/>
<path style="fill:#9d6c37; stroke:none;" d="M108 77L109 78L108 77M155 77L155 78L158 78L155 77M168 77L168 78L171 78L168 77z"/>
<path style="fill:#743d1c; stroke:none;" d="M171.667 77.3333L172.333 77.6667L171.667 77.3333z"/>
<path style="fill:#9d6c37; stroke:none;" d="M106 78L107 79L106 78z"/>
<path style="fill:#743d1c; stroke:none;" d="M254 78L254 79L260 79L254 78M194 79L194 80L197 80L194 79z"/>
<path style="fill:#9d6c37; stroke:none;" d="M197 79L197 80L204 80L197 79z"/>
<path style="fill:#743d1c; stroke:none;" d="M204.667 79.3333L205.333 79.6667L204.667 79.3333M246.667 79.3333L247.333 79.6667L246.667 79.3333z"/>
<path style="fill:#9d6c37; stroke:none;" d="M248 79L249 80L248 79z"/>
<path style="fill:#743d1c; stroke:none;" d="M261 79L262 80L261 79M103 80L104 81L103 80M190 80L191 81L190 80z"/>
<path style="fill:#9d6c37; stroke:none;" d="M191 80L192 81L191 80M210 80L211 81L210 80z"/>
<path style="fill:#743d1c; stroke:none;" d="M211.667 80.3333L212.333 80.6667L211.667 80.3333M238.667 80.3333L239.333 80.6667L238.667 80.3333z"/>
<path style="fill:#9d6c37; stroke:none;" d="M240.667 80.3333L241.333 80.6667L240.667 80.3333M102 81L103 82L102 81z"/>
<path style="fill:#743d1c; stroke:none;" d="M186 81L187 82L186 81z"/>
<path style="fill:#9d6c37; stroke:none;" d="M187 81L188 82L187 81M218 81L218 82L222 82L218 81z"/>
<path style="fill:#743d1c; stroke:none;" d="M222 81L222 82L228 82L222 81z"/>
<path style="fill:#9d6c37; stroke:none;" d="M228 81L228 82L232 82L228 81M250 81L250 82L259 82L250 81M101 82L102 83L101 82z"/>
<path style="fill:#743d1c; stroke:none;" d="M168 82L169 83L168 82z"/>
<path style="fill:#9d6c37; stroke:none;" d="M184 82L185 83L184 82M244 82L245 83L244 82z"/>
<path style="fill:#743d1c; stroke:none;" d="M245.667 82.3333L246.333 82.6667L245.667 82.3333z"/>
<path style="fill:#9d6c37; stroke:none;" d="M100 83L101 84L100 83z"/>
<path style="fill:#743d1c; stroke:none;" d="M167 83L168 84L167 83z"/>
<path style="fill:#9d6c37; stroke:none;" d="M182 83L183 84L182 83M240 83L241 84L240 83z"/>
<path style="fill:#743d1c; stroke:none;" d="M241 83L242 84L241 83z"/>
<path style="fill:#9d6c37; stroke:none;" d="M99 84L100 85L99 84M166 84L167 85L166 84z"/>
<path style="fill:#743d1c; stroke:none;" d="M180 84L181 85L180 84z"/>
<path style="fill:#9d6c37; stroke:none;" d="M237 84L238 85L237 84z"/>
<path style="fill:#743d1c; stroke:none;" d="M238 84L239 85L238 84z"/>
<path style="fill:#9d6c37; stroke:none;" d="M98 85L99 86L98 85M179 85L180 86L179 85z"/>
<path style="fill:#743d1c; stroke:none;" d="M235 85L236 86L235 85z"/>
<path style="fill:#9d6c37; stroke:none;" d="M97 86L98 87L97 86M165 86L166 87L165 86M178 86L179 87L178 86M232 86L233 87L232 86z"/>
<path style="fill:#743d1c; stroke:none;" d="M233 86L234 87L233 86z"/>
<path style="fill:#9d6c37; stroke:none;" d="M96 87L97 88L96 87M177 87L178 88L177 87M230 87L231 88L230 87M95 88L96 89L95 88M164 88L165 89L164 88M176 88L177 89L176 88M228 88L229 89L228 88z"/>
<path style="fill:#743d1c; stroke:none;" d="M94 89L95 90L94 89M164 89L164 92L165 92L164 89M175 89L176 90L175 89z"/>
<path style="fill:#9d6c37; stroke:none;" d="M226 89L227 90L226 89M224 90L225 91L224 90z"/>
<path style="fill:#743d1c; stroke:none;" d="M225 90L226 91L225 90z"/>
<path style="fill:#9d6c37; stroke:none;" d="M93 91L94 92L93 91M174 91L175 92L174 91M222 91L223 92L222 91z"/>
<path style="fill:#743d1c; stroke:none;" d="M251 91L251 92L258 92L251 91z"/>
<path style="fill:#9d6c37; stroke:none;" d="M92 92L93 93L92 92z"/>
<path style="fill:#743d1c; stroke:none;" d="M173 92L174 93L173 92M220 92L221 93L220 92M245.667 92.3333L246.333 92.6667L245.667 92.3333z"/>
<path style="fill:#9d6c37; stroke:none;" d="M247.667 92.3333L248.333 92.6667L247.667 92.3333M257 92L258 93L257 92z"/>
<path style="fill:#743d1c; stroke:none;" d="M91 93L92 94L91 93z"/>
<path style="fill:#9d6c37; stroke:none;" d="M165 93L166 94L165 93M217 93L218 94L217 93z"/>
<path style="fill:#743d1c; stroke:none;" d="M218 93L219 94L218 93M242 93L243 94L242 93z"/>
<path style="fill:#9d6c37; stroke:none;" d="M243 93L244 94L243 93M166 94L167 95L166 94z"/>
<path style="fill:#743d1c; stroke:none;" d="M167 94L168 95L167 94M171 94L172 95L171 94z"/>
<path style="fill:#9d6c37; stroke:none;" d="M214 94L215 95L214 94z"/>
<path style="fill:#743d1c; stroke:none;" d="M215 94L216 95L215 94M239 94L240 95L239 94z"/>
<path style="fill:#9d6c37; stroke:none;" d="M240 94L241 95L240 94z"/>
<path style="fill:#743d1c; stroke:none;" d="M256 94L257 95L256 94z"/>
<path style="fill:#9d6c37; stroke:none;" d="M90 95L91 96L90 95M211 95L212 96L211 95z"/>
<path style="fill:#743d1c; stroke:none;" d="M212 95L213 96L212 95M237 95L238 96L237 95z"/>
<path style="fill:#9d6c37; stroke:none;" d="M255 95L256 96L255 95M207 96L208 97L207 96z"/>
<path style="fill:#743d1c; stroke:none;" d="M208 96L209 97L208 96M235 96L236 97L235 96z"/>
<path style="fill:#9d6c37; stroke:none;" d="M89 97L90 98L89 97M202.667 97.3333L203.333 97.6667L202.667 97.3333z"/>
<path style="fill:#743d1c; stroke:none;" d="M204 97L205 98L204 97z"/>
<path style="fill:#9d6c37; stroke:none;" d="M233 97L234 98L233 97z"/>
<path style="fill:#743d1c; stroke:none;" d="M254 97L255 98L254 97M88 98L89 99L88 98z"/>
<path style="fill:#9d6c37; stroke:none;" d="M195 98L195 99L198 99L195 98z"/>
<path style="fill:#743d1c; stroke:none;" d="M198.667 98.3333L199.333 98.6667L198.667 98.3333z"/>
<path style="fill:#9d6c37; stroke:none;" d="M231 98L232 99L231 98z"/>
<path style="fill:#743d1c; stroke:none;" d="M253 98L254 99L253 98z"/>
<path style="fill:#9d6c37; stroke:none;" d="M88 99L89 100L88 99M179 99L179 100L187 100L179 99z"/>
<path style="fill:#743d1c; stroke:none;" d="M187 99L187 100L192 100L187 99M229 99L230 100L229 99z"/>
<path style="fill:#9d6c37; stroke:none;" d="M252 99L253 100L252 99z"/>
<path style="fill:#743d1c; stroke:none;" d="M87 100L88 101L87 100z"/>
<path style="fill:#9d6c37; stroke:none;" d="M176 100L177 101L176 100z"/>
<path style="fill:#743d1c; stroke:none;" d="M177 100L178 101L177 100z"/>
<path style="fill:#9d6c37; stroke:none;" d="M227 100L228 101L227 100M87 101L88 102L87 101M175 101L176 102L175 101z"/>
<path style="fill:#743d1c; stroke:none;" d="M224 101L225 102L224 101z"/>
<path style="fill:#9d6c37; stroke:none;" d="M225 101L226 102L225 101z"/>
<path style="fill:#743d1c; stroke:none;" d="M86 102L87 103L86 102M222 102L223 103L222 102z"/>
<path style="fill:#9d6c37; stroke:none;" d="M86 103L87 104L86 103M174 103L174 106L175 106L174 103z"/>
<path style="fill:#743d1c; stroke:none;" d="M219 103L220 104L219 103z"/>
<path style="fill:#9d6c37; stroke:none;" d="M220 103L221 104L220 103z"/>
<path style="fill:#743d1c; stroke:none;" d="M249 103L250 104L249 103M85 104L86 105L85 104M216 104L217 105L216 104z"/>
<path style="fill:#9d6c37; stroke:none;" d="M217 104L218 105L217 104z"/>
<path style="fill:#743d1c; stroke:none;" d="M248 104L249 105L248 104z"/>
<path style="fill:#9d6c37; stroke:none;" d="M85 105L86 106L85 105z"/>
<path style="fill:#743d1c; stroke:none;" d="M212.667 105.333L213.333 105.667L212.667 105.333z"/>
<path style="fill:#9d6c37; stroke:none;" d="M214 105L215 106L214 105z"/>
<path style="fill:#743d1c; stroke:none;" d="M247 105L248 106L247 105M208.667 106.333L209.333 106.667L208.667 106.333z"/>
<path style="fill:#9d6c37; stroke:none;" d="M210 106L211 107L210 106z"/>
<path style="fill:#743d1c; stroke:none;" d="M246 106L247 107L246 106z"/>
<path style="fill:#9d6c37; stroke:none;" d="M84 107L85 108L84 107z"/>
<path style="fill:#743d1c; stroke:none;" d="M175 107L176 108L175 107M203.667 107.333L204.333 107.667L203.667 107.333z"/>
<path style="fill:#9d6c37; stroke:none;" d="M205.667 107.333L206.333 107.667L205.667 107.333z"/>
<path style="fill:#743d1c; stroke:none;" d="M245 107L246 108L245 107M176 108L177 109L176 108M196 108L196 109L199 109L196 108z"/>
<path style="fill:#9d6c37; stroke:none;" d="M199.667 108.333L200.333 108.667L199.667 108.333z"/>
<path style="fill:#743d1c; stroke:none;" d="M244 108L245 109L244 108M83 109L84 110L83 109z"/>
<path style="fill:#9d6c37; stroke:none;" d="M177 109L178 110L177 109z"/>
<path style="fill:#743d1c; stroke:none;" d="M178 109L178 110L190 110L178 109z"/>
<path style="fill:#9d6c37; stroke:none;" d="M190 109L190 110L193 110L190 109z"/>
<path style="fill:#743d1c; stroke:none;" d="M243 109L244 110L243 109z"/>
<path style="fill:#9d6c37; stroke:none;" d="M114 110L115 111L114 110z"/>
<path style="fill:#743d1c; stroke:none;" d="M115 110L116 111L115 110z"/>
<path style="fill:#010101; stroke:none;" d="M116 110.533C110.318 111.777 96.2061 124.345 105.317 129.953C112.155 134.162 112.886 119.181 119.985 120.752C125.277 121.922 125.269 131.156 130.961 130.534C136.456 129.934 134.972 122.28 133.312 119.004C130.204 112.872 122.802 109.044 116 110.533z"/>
<path style="fill:#743d1c; stroke:none;" d="M122 110L123 111L122 110z"/>
<path style="fill:#9d6c37; stroke:none;" d="M123 110L124 111L123 110z"/>
<path style="fill:#743d1c; stroke:none;" d="M82 111L83 112L82 111z"/>
<path style="fill:#9d6c37; stroke:none;" d="M111 111L112 112L111 111z"/>
<path style="fill:#743d1c; stroke:none;" d="M112 111L113 112L112 111M125 111L126 112L125 111z"/>
<path style="fill:#9d6c37; stroke:none;" d="M126 111L127 112L126 111M240 111L241 112L240 111M82 112L83 113L82 112z"/>
<path style="fill:#743d1c; stroke:none;" d="M110 112L111 113L110 112M127 112L128 113L127 112M239 112L240 113L239 112M81 113L82 114L81 113z"/>
<path style="fill:#9d6c37; stroke:none;" d="M108 113L109 114L108 113M129 113L130 114L129 113z"/>
<path style="fill:#743d1c; stroke:none;" d="M238 113L239 114L238 113M80 114L81 115L80 114z"/>
<path style="fill:#9d6c37; stroke:none;" d="M107 114L108 115L107 114M130 114L131 115L130 114M236 114L237 115L236 114M106 115L107 116L106 115M131 115L132 116L131 115z"/>
<path style="fill:#743d1c; stroke:none;" d="M235 115L236 116L235 115z"/>
<path style="fill:#9d6c37; stroke:none;" d="M233 116L234 117L233 116z"/>
<path style="fill:#743d1c; stroke:none;" d="M105 117L106 118L105 117M132 117L133 118L132 117M232 117L233 118L232 117z"/>
<path style="fill:#9d6c37; stroke:none;" d="M77 118L78 119L77 118M104 118L105 119L104 118M133 118L134 119L133 118z"/>
<path style="fill:#743d1c; stroke:none;" d="M230 118L231 119L230 118z"/>
<path style="fill:#9d6c37; stroke:none;" d="M76 119L77 120L76 119M228 119L229 120L228 119M75 120L76 121L75 120M103 120L104 121L103 120z"/>
<path style="fill:#743d1c; stroke:none;" d="M116 120L117 121L116 120z"/>
<path style="fill:#9d6c37; stroke:none;" d="M117 120L118 121L117 120M120 120L121 121L120 120z"/>
<path style="fill:#743d1c; stroke:none;" d="M121 120L122 121L121 120z"/>
<path style="fill:#9d6c37; stroke:none;" d="M134 120L135 121L134 120M181 120L182 121L181 120z"/>
<path style="fill:#743d1c; stroke:none;" d="M182 120L182 121L185 121L182 120z"/>
<path style="fill:#9d6c37; stroke:none;" d="M185 120L186 121L185 120M226 120L227 121L226 120M74 121L75 122L74 121z"/>
<path style="fill:#743d1c; stroke:none;" d="M103 121L104 122L103 121M134 121L135 122L134 121M180 121L181 122L180 121M186 121L187 122L186 121z"/>
<path style="fill:#9d6c37; stroke:none;" d="M187 121L188 122L187 121z"/>
<path style="fill:#743d1c; stroke:none;" d="M224 121L225 122L224 121z"/>
<path style="fill:#9d6c37; stroke:none;" d="M73 122L74 123L73 122z"/>
<path style="fill:#743d1c; stroke:none;" d="M179 122L180 123L179 122M188 122L189 123L188 122z"/>
<path style="fill:#9d6c37; stroke:none;" d="M189 122L190 123L189 122M221 122L222 123L221 122z"/>
<path style="fill:#743d1c; stroke:none;" d="M222 122L223 123L222 122M72 123L73 124L72 123z"/>
<path style="fill:#9d6c37; stroke:none;" d="M113 123L114 124L113 123M124 123L125 124L124 123M178 123L179 124L178 123z"/>
<path style="fill:#743d1c; stroke:none;" d="M191 123L192 124L191 123z"/>
<path style="fill:#9d6c37; stroke:none;" d="M192 123L193 124L192 123M218 123L219 124L218 123z"/>
<path style="fill:#743d1c; stroke:none;" d="M219 123L220 124L219 123M71 124L72 125L71 124z"/>
<path style="fill:#9d6c37; stroke:none;" d="M102 124L102 128L103 128L102 124M135 124L135 128L136 128L135 124z"/>
<path style="fill:#743d1c; stroke:none;" d="M178 124L178 127L179 127L178 124M194 124L195 125L194 124z"/>
<path style="fill:#9d6c37; stroke:none;" d="M195 124L196 125L195 124z"/>
<path style="fill:#743d1c; stroke:none;" d="M215.667 124.333L216.333 124.667L215.667 124.333M70 125L71 126L70 125M112 125L112 128L113 128L112 125M125 125L125 128L126 128L125 125M198.667 125.333L199.333 125.667L198.667 125.333z"/>
<path style="fill:#9d6c37; stroke:none;" d="M200 125L200 126L203 126L200 125M208.667 125.333L209.333 125.667L208.667 125.333z"/>
<path style="fill:#743d1c; stroke:none;" d="M210.667 125.333L211.333 125.667L210.667 125.333M69 126L70 127L69 126M68 127L69 128L68 127M67 128L68 129L67 128z"/>
<path style="fill:#9d6c37; stroke:none;" d="M112 128L113 129L112 128M125 128L126 129L125 128z"/>
<path style="fill:#743d1c; stroke:none;" d="M179 128L180 129L179 128M66 129L67 130L66 129z"/>
<path style="fill:#9d6c37; stroke:none;" d="M103 129L104 130L103 129z"/>
<path style="fill:#743d1c; stroke:none;" d="M111 129L112 130L111 129M126 129L127 130L126 129z"/>
<path style="fill:#9d6c37; stroke:none;" d="M134 129L135 130L134 129M180 129L181 130L180 129z"/>
<path style="fill:#743d1c; stroke:none;" d="M65 130L66 131L65 130z"/>
<path style="fill:#9d6c37; stroke:none;" d="M104 130L105 131L104 130z"/>
<path style="fill:#743d1c; stroke:none;" d="M110 130L111 131L110 130M127 130L128 131L127 130z"/>
<path style="fill:#9d6c37; stroke:none;" d="M133 130L134 131L133 130z"/>
<path style="fill:#743d1c; stroke:none;" d="M182 130L183 131L182 130M64 131L65 132L64 131z"/>
<path style="fill:#9d6c37; stroke:none;" d="M106 131L106 132L109 132L106 131M129 131L129 132L132 132L129 131z"/>
<path style="fill:#743d1c; stroke:none;" d="M184 131L185 132L184 131M63 132L64 133L63 132z"/>
<path style="fill:#9d6c37; stroke:none;" d="M186 132L187 133L186 132z"/>
<path style="fill:#743d1c; stroke:none;" d="M187 132L188 133L187 132M62 133L63 134L62 133z"/>
<path style="fill:#9d6c37; stroke:none;" d="M189 133L190 134L189 133z"/>
<path style="fill:#743d1c; stroke:none;" d="M190 133L191 134L190 133M61 134L62 135L61 134z"/>
<path style="fill:#9d6c37; stroke:none;" d="M192 134L193 135L192 134z"/>
<path style="fill:#743d1c; stroke:none;" d="M193.667 134.333L194.333 134.667L193.667 134.333M60 135L61 136L60 135z"/>
<path style="fill:#9d6c37; stroke:none;" d="M197 135L198 136L197 135z"/>
<path style="fill:#743d1c; stroke:none;" d="M198 135L198 136L202 136L198 135M59 136L60 137L59 136z"/>
<path style="fill:#9d6c37; stroke:none;" d="M203 136L204 137L203 136M58 137L59 138L58 137z"/>
<path style="fill:#743d1c; stroke:none;" d="M203 137L204 138L203 137z"/>
<path style="fill:#9d6c37; stroke:none;" d="M57 138L58 139L57 138M56 139L57 140L56 139M202 139L203 140L202 139M55 140L56 141L55 140z"/>
<path style="fill:#743d1c; stroke:none;" d="M202 140L203 141L202 140M52 142L53 143L52 142z"/>
<path style="fill:#9d6c37; stroke:none;" d="M201 142L202 143L201 142z"/>
<path style="fill:#743d1c; stroke:none;" d="M51 143L52 144L51 143M201 143L202 144L201 143z"/>
<path style="fill:#9d6c37; stroke:none;" d="M50 144L51 145L50 144M49 145L50 146L49 145z"/>
<path style="fill:#743d1c; stroke:none;" d="M200 145L201 146L200 145z"/>
<path style="fill:#9d6c37; stroke:none;" d="M48 146L49 147L48 146z"/>
<path style="fill:#743d1c; stroke:none;" d="M46 147L47 148L46 147z"/>
<path style="fill:#9d6c37; stroke:none;" d="M199 147L200 148L199 147M45 148L46 149L45 148z"/>
<path style="fill:#743d1c; stroke:none;" d="M199 148L200 149L199 148M43 149L44 150L43 149z"/>
<path style="fill:#9d6c37; stroke:none;" d="M198 149L199 150L198 149M42 150L43 151L42 150z"/>
<path style="fill:#743d1c; stroke:none;" d="M198 150L199 151L198 150M40 151L41 152L40 151M38 152L39 153L38 152z"/>
<path style="fill:#9d6c37; stroke:none;" d="M39 152L40 153L39 152z"/>
<path style="fill:#743d1c; stroke:none;" d="M197 152L198 153L197 152M36 153L37 154L36 153z"/>
<path style="fill:#9d6c37; stroke:none;" d="M37 153L38 154L37 153z"/>
<path style="fill:#743d1c; stroke:none;" d="M22 154L22 155L28 155L22 154M33 154L34 155L33 154z"/>
<path style="fill:#9d6c37; stroke:none;" d="M34 154L35 155L34 154z"/>
<path style="fill:#743d1c; stroke:none;" d="M196 154L197 155L196 154M18 155L19 156L18 155z"/>
<path style="fill:#9d6c37; stroke:none;" d="M19 155L20 156L19 155M195 155L196 156L195 155z"/>
<path style="fill:#743d1c; stroke:none;" d="M16 156L17 157L16 156M195 156L196 157L195 156z"/>
<path style="fill:#9d6c37; stroke:none;" d="M15 157L16 158L15 157M194 157L195 158L194 157M14 158L15 159L14 158z"/>
<path style="fill:#743d1c; stroke:none;" d="M13 159L14 160L13 159M193 159L194 160L193 159z"/>
<path style="fill:#9d6c37; stroke:none;" d="M24 160L24 161L28 161L24 160M192 160L193 161L192 160M12 161L13 162L12 161M21 161L22 162L21 161z"/>
<path style="fill:#743d1c; stroke:none;" d="M22 161L23 162L22 161z"/>
<path style="fill:#010101; stroke:none;" d="M19 163C20.5126 165.129 22.008 166.973 24.0185 168.679C37.7622 180.341 40.8093 161.863 27 161.145C24.106 160.995 21.6076 161.9 19 163z"/>
<path style="fill:#743d1c; stroke:none;" d="M30 161L31 162L30 161z"/>
<path style="fill:#9d6c37; stroke:none;" d="M19 162L20 163L19 162M32 162L33 163L32 162z"/>
<path style="fill:#743d1c; stroke:none;" d="M191 162L192 163L191 162M11 163L12 164L11 163z"/>
<path style="fill:#9d6c37; stroke:none;" d="M190 163L191 164L190 163M11 164L12 165L11 164M19 164L20 165L19 164M35 164L36 165L35 164M20 165L21 166L20 165M36 165L37 166L36 165M21 166L22 167L21 166z"/>
<path style="fill:#743d1c; stroke:none;" d="M188 166L189 167L188 166M10.3333 167.667L10.6667 168.333L10.3333 167.667z"/>
<path style="fill:#9d6c37; stroke:none;" d="M22 167L23 168L22 167z"/>
<path style="fill:#743d1c; stroke:none;" d="M37.3333 167.667L37.6667 168.333L37.3333 167.667z"/>
<path style="fill:#9d6c37; stroke:none;" d="M187 167L188 168L187 167M23 168L24 169L23 168M186 168L187 169L186 168M10 169L10 173L11 173L10 169M24 169L25 170L24 169M25 170L26 171L25 170z"/>
<path style="fill:#743d1c; stroke:none;" d="M26 170L27 171L26 170M37 170L38 171L37 170z"/>
<path style="fill:#9d6c37; stroke:none;" d="M27 171L28 172L27 171M37 171L38 172L37 171z"/>
<path style="fill:#743d1c; stroke:none;" d="M29 172L30 173L29 172z"/>
<path style="fill:#9d6c37; stroke:none;" d="M36 172L37 173L36 172z"/>
<path style="fill:#743d1c; stroke:none;" d="M197 172L198 173L197 172M30 173L31 174L30 173z"/>
<path style="fill:#9d6c37; stroke:none;" d="M35 173L36 174L35 173z"/>
<path style="fill:#eba252; stroke:none;" d="M196 173C180.579 194.892 154.318 202.084 129 201C138.404 249.491 113.196 315.518 163 349.329C169.413 353.683 176.242 358.617 184 360C183.238 356.069 177.215 337.461 186.95 339.752C194.2 341.457 195.271 362.85 196.884 369C206.226 404.616 201.171 439.042 188 473L210 477C210.986 465.705 217.981 456.33 221.935 446C227.176 432.309 229.694 417.405 232.08 403C233.077 396.98 232.655 381.457 238.228 377.951C241.991 375.585 247.24 378.511 251 379.572C259.251 381.899 268.415 383.775 277 383.985C305.339 384.68 328.994 378.813 355 368C349.227 357.591 343.531 348.417 344.04 336C344.196 332.206 346.001 323.202 351.853 326.086C357.625 328.932 354.843 345.245 357.069 351C364.641 370.582 387.617 379.22 391.535 401C396.352 427.771 374.339 447.959 370 472C376.924 474.339 388.256 479.856 395.61 476.397C400.288 474.196 403.048 464.396 405.247 460C412.792 444.92 425.113 429.153 426.829 412C428.017 400.136 423.842 387.493 425.507 376C427.479 362.386 441.96 349.716 447.688 337C461.555 306.217 458.654 267.019 438.101 240C395.06 183.417 312.357 224.164 255 216.711C238.912 214.62 223.266 205.961 212.425 193.961C206.579 187.49 202.548 178.571 196 173z"/>
<path style="fill:#9d6c37; stroke:none;" d="M197 173L198 174L197 173M195 174L196 175L195 174z"/>
<path style="fill:#743d1c; stroke:none;" d="M198 174L199 175L198 174z"/>
<path style="fill:#9d6c37; stroke:none;" d="M194 175L195 176L194 175M178 176L179 177L178 176z"/>
<path style="fill:#743d1c; stroke:none;" d="M193 176L194 177L193 176M199 176L200 177L199 176z"/>
<path style="fill:#9d6c37; stroke:none;" d="M63 177L63 178L66 178L63 177M177 177L178 178L177 177z"/>
<path style="fill:#743d1c; stroke:none;" d="M192 177L193 178L192 177z"/>
<path style="fill:#9d6c37; stroke:none;" d="M61 178L62 179L61 178M67 178L68 179L67 178z"/>
<path style="fill:#743d1c; stroke:none;" d="M176 178L177 179L176 178M191 178L192 179L191 178z"/>
<path style="fill:#9d6c37; stroke:none;" d="M200 178L201 179L200 178z"/>
<path style="fill:#743d1c; stroke:none;" d="M60 179L61 180L60 179z"/>
<path style="fill:#9d6c37; stroke:none;" d="M68 179L69 180L68 179M174 179L175 180L174 179z"/>
<path style="fill:#743d1c; stroke:none;" d="M190 179L191 180L190 179M201 179L202 180L201 179M173 180L174 181L173 180M189 180L190 181L189 180z"/>
<path style="fill:#9d6c37; stroke:none;" d="M10 181L10 184L11 184L10 181M57 181L58 182L57 181M69 181L69 184L70 184L69 181M171 181L172 182L171 181z"/>
<path style="fill:#743d1c; stroke:none;" d="M188 181L189 182L188 181z"/>
<path style="fill:#9d6c37; stroke:none;" d="M202 181L203 182L202 181z"/>
<path style="fill:#743d1c; stroke:none;" d="M56 182L57 183L56 182M170 182L171 183L170 182M187 182L188 183L187 182M203 182L204 183L203 182z"/>
<path style="fill:#9d6c37; stroke:none;" d="M54 183L55 184L54 183z"/>
<path style="fill:#743d1c; stroke:none;" d="M168 183L169 184L168 183M186 183L187 184L186 183M10.3333 184.667L10.6667 185.333L10.3333 184.667M53 184L54 185L53 184M166 184L167 185L166 184z"/>
<path style="fill:#9d6c37; stroke:none;" d="M185 184L186 185L185 184M204 184L205 185L204 184M51 185L52 186L51 185z"/>
<path style="fill:#743d1c; stroke:none;" d="M68 185L69 186L68 185M164 185L165 186L164 185z"/>
<path style="fill:#9d6c37; stroke:none;" d="M184 185L185 186L184 185z"/>
<path style="fill:#743d1c; stroke:none;" d="M205 185L206 186L205 185M50 186L51 187L50 186M67 186L68 187L67 186z"/>
<path style="fill:#9d6c37; stroke:none;" d="M161 186L162 187L161 186M11.3333 187.667L11.6667 188.333L11.3333 187.667z"/>
<path style="fill:#743d1c; stroke:none;" d="M48 187L49 188L48 187z"/>
<path style="fill:#9d6c37; stroke:none;" d="M66 187L67 188L66 187M158 187L159 188L158 187z"/>
<path style="fill:#743d1c; stroke:none;" d="M159 187L160 188L159 187z"/>
<path style="fill:#9d6c37; stroke:none;" d="M181 187L182 188L181 187M206 187L207 188L206 187M46 188L47 189L46 188M65 188L66 189L65 188M155 188L156 189L155 188z"/>
<path style="fill:#743d1c; stroke:none;" d="M156 188L157 189L156 188z"/>
<path style="fill:#9d6c37; stroke:none;" d="M207 188L208 189L207 188M44 189L45 190L44 189z"/>
<path style="fill:#743d1c; stroke:none;" d="M63 189L64 190L63 189z"/>
<path style="fill:#9d6c37; stroke:none;" d="M117 189L118 190L117 189z"/>
<path style="fill:#743d1c; stroke:none;" d="M118 189L118 190L121 190L118 189z"/>
<path style="fill:#9d6c37; stroke:none;" d="M121.667 189.333L122.333 189.667L121.667 189.333M151 189L152 190L151 189z"/>
<path style="fill:#743d1c; stroke:none;" d="M152 189L153 190L152 189M178 189L179 190L178 189M208 189L209 190L208 189z"/>
<path style="fill:#9d6c37; stroke:none;" d="M42 190L43 191L42 190M62 190L63 191L62 190z"/>
<path style="fill:#743d1c; stroke:none;" d="M116 190L117 191L116 190M126.667 190.333L127.333 190.667L126.667 190.333z"/>
<path style="fill:#9d6c37; stroke:none;" d="M128.667 190.333L129.333 190.667L128.667 190.333M143.667 190.333L144.333 190.667L143.667 190.333z"/>
<path style="fill:#743d1c; stroke:none;" d="M145.667 190.333L146.333 190.667L145.667 190.333M209 190L210 191L209 190M12 191L13 192L12 191z"/>
<path style="fill:#9d6c37; stroke:none;" d="M40 191L41 192L40 191z"/>
<path style="fill:#743d1c; stroke:none;" d="M60 191L61 192L60 191M115 191L116 192L115 191z"/>
<path style="fill:#9d6c37; stroke:none;" d="M175 191L176 192L175 191M38 192L39 193L38 192z"/>
<path style="fill:#743d1c; stroke:none;" d="M59 192L60 193L59 192z"/>
<path style="fill:#9d6c37; stroke:none;" d="M114 192L115 193L114 192z"/>
<path style="fill:#743d1c; stroke:none;" d="M173 192L174 193L173 192M13 193L14 194L13 193M36 193L37 194L36 193M57 193L58 194L57 193M114.333 193.667L114.667 194.333L114.333 193.667M171 193L172 194L171 193z"/>
<path style="fill:#9d6c37; stroke:none;" d="M14 194L15 195L14 194M33 194L34 195L33 194z"/>
<path style="fill:#743d1c; stroke:none;" d="M34 194L35 195L34 194z"/>
<path style="fill:#9d6c37; stroke:none;" d="M56 194L57 195L56 194z"/>
<path style="fill:#743d1c; stroke:none;" d="M169 194L170 195L169 194z"/>
<path style="fill:#9d6c37; stroke:none;" d="M212 194L213 195L212 194M15 195L16 196L15 195M30 195L31 196L30 195z"/>
<path style="fill:#743d1c; stroke:none;" d="M31 195L32 196L31 195M54 195L55 196L54 195z"/>
<path style="fill:#9d6c37; stroke:none;" d="M114 195L115 196L114 195M167 195L168 196L167 195M213 195L214 196L213 195z"/>
<path style="fill:#743d1c; stroke:none;" d="M16 196L17 197L16 196M28 196L29 197L28 196M52 196L53 197L52 196M164 196L165 197L164 196z"/>
<path style="fill:#9d6c37; stroke:none;" d="M214 196L215 197L214 196z"/>
<path style="fill:#743d1c; stroke:none;" d="M18 197L19 198L18 197z"/>
<path style="fill:#9d6c37; stroke:none;" d="M19 197L20 198L19 197M24 197L25 198L24 197z"/>
<path style="fill:#743d1c; stroke:none;" d="M25 197L26 198L25 197M50 197L51 198L50 197z"/>
<path style="fill:#9d6c37; stroke:none;" d="M51 197L52 198L51 197M115 197L116 198L115 197z"/>
<path style="fill:#743d1c; stroke:none;" d="M161 197L162 198L161 197z"/>
<path style="fill:#9d6c37; stroke:none;" d="M215 197L216 198L215 197M49 198L50 199L49 198z"/>
<path style="fill:#743d1c; stroke:none;" d="M116 198L117 199L116 198M158 198L159 199L158 198z"/>
<path style="fill:#9d6c37; stroke:none;" d="M47 199L48 200L47 199z"/>
<path style="fill:#743d1c; stroke:none;" d="M153.667 199.333L154.333 199.667L153.667 199.333z"/>
<path style="fill:#9d6c37; stroke:none;" d="M45 200L46 201L45 200z"/>
<path style="fill:#743d1c; stroke:none;" d="M117 200L118 201L117 200M147.667 200.333L148.333 200.667L147.667 200.333z"/>
<path style="fill:#9d6c37; stroke:none;" d="M149 200L150 201L149 200z"/>
<path style="fill:#743d1c; stroke:none;" d="M219 200L220 201L219 200M42 201L43 202L42 201z"/>
<path style="fill:#9d6c37; stroke:none;" d="M43 201L44 202L43 201M134 201L134 202L140 202L134 201z"/>
<path style="fill:#743d1c; stroke:none;" d="M220 201L221 202L220 201M40 202L41 203L40 202z"/>
<path style="fill:#9d6c37; stroke:none;" d="M41 202L42 203L41 202z"/>
<path style="fill:#743d1c; stroke:none;" d="M118 202L119 203L118 202z"/>
<path style="fill:#9d6c37; stroke:none;" d="M221 202L222 203L221 202z"/>
<path style="fill:#743d1c; stroke:none;" d="M38 203L39 204L38 203z"/>
<path style="fill:#9d6c37; stroke:none;" d="M118 203L119 204L118 203M129 203L130 204L129 203z"/>
<path style="fill:#743d1c; stroke:none;" d="M35 204L36 205L35 204z"/>
<path style="fill:#9d6c37; stroke:none;" d="M36 204L37 205L36 204z"/>
<path style="fill:#743d1c; stroke:none;" d="M129 204L130 205L129 204M224 204L225 205L224 204M32 205L33 206L32 205z"/>
<path style="fill:#9d6c37; stroke:none;" d="M33.3333 205.667L33.6667 206.333L33.3333 205.667M225 205L226 206L225 205M55.6667 206.333L56.3333 206.667L55.6667 206.333z"/>
<path style="fill:#743d1c; stroke:none;" d="M57 206L57 207L64 207L57 206z"/>
<path style="fill:#9d6c37; stroke:none;" d="M64 206L65 207L64 206z"/>
<path style="fill:#743d1c; stroke:none;" d="M119 206L120 207L119 206M227 206L228 207L227 206M34 207L35 208L34 207z"/>
<path style="fill:#9d6c37; stroke:none;" d="M52 207L53 208L52 207z"/>
<path style="fill:#743d1c; stroke:none;" d="M53 207L54 208L53 207z"/>
<path style="fill:#9d6c37; stroke:none;" d="M67 207L68 208L67 207M109 207L109 208L113 208L109 207z"/>
<path style="fill:#743d1c; stroke:none;" d="M229 207L230 208L229 207M36 208L37 209L36 208z"/>
<path style="fill:#9d6c37; stroke:none;" d="M48 208L49 209L48 208z"/>
<path style="fill:#743d1c; stroke:none;" d="M49 208L50 209L49 208M69 208L70 209L69 208M108 208L109 209L108 208M115 208L116 209L115 208z"/>
<path style="fill:#9d6c37; stroke:none;" d="M116 208L117 209L116 208M130 208L131 209L130 208M230 208L231 209L230 208z"/>
<path style="fill:#743d1c; stroke:none;" d="M39 209L39 210L46 210L39 209z"/>
<path style="fill:#9d6c37; stroke:none;" d="M71 209L72 210L71 209M118 209L119 210L118 209z"/>
<path style="fill:#743d1c; stroke:none;" d="M130 209L130 213L131 213L130 209z"/>
<path style="fill:#9d6c37; stroke:none;" d="M232 209L233 210L232 209z"/>
<path style="fill:#743d1c; stroke:none;" d="M72 210L73 211L72 210M106 210L107 211L106 210z"/>
<path style="fill:#9d6c37; stroke:none;" d="M234 210L235 211L234 210z"/>
<path style="fill:#743d1c; stroke:none;" d="M342 210L342 211L346 211L342 210z"/>
<path style="fill:#9d6c37; stroke:none;" d="M346 210L346 211L351 211L346 210M374 210L374 211L378 211L374 210z"/>
<path style="fill:#743d1c; stroke:none;" d="M378 210L378 211L381 211L378 210M73 211L74 212L73 211z"/>
<path style="fill:#9d6c37; stroke:none;" d="M236 211L237 212L236 211z"/>
<path style="fill:#743d1c; stroke:none;" d="M237 211L238 212L237 211M330 211L330 212L334 212L330 211z"/>
<path style="fill:#9d6c37; stroke:none;" d="M334 211L334 212L337 212L334 211M384.667 211.333L385.333 211.667L384.667 211.333z"/>
<path style="fill:#743d1c; stroke:none;" d="M386.667 211.333L387.333 211.667L386.667 211.333M74 212L75 213L74 212M239 212L240 213L239 212M321 212L321 213L324 213L321 212z"/>
<path style="fill:#9d6c37; stroke:none;" d="M324 212L324 213L327 213L324 212M390.667 212.333L391.333 212.667L390.667 212.333z"/>
<path style="fill:#743d1c; stroke:none;" d="M392 212L393 213L392 212M75 213L76 214L75 213z"/>
<path style="fill:#9d6c37; stroke:none;" d="M241 213L242 214L241 213z"/>
<path style="fill:#743d1c; stroke:none;" d="M242 213L243 214L242 213M311 213L311 214L315 214L311 213z"/>
<path style="fill:#9d6c37; stroke:none;" d="M315.667 213.333L316.333 213.667L315.667 213.333M395 213L396 214L395 213z"/>
<path style="fill:#743d1c; stroke:none;" d="M396.667 213.333L397.333 213.667L396.667 213.333z"/>
<path style="fill:#9d6c37; stroke:none;" d="M76 214L77 215L76 214z"/>
<path style="fill:#743d1c; stroke:none;" d="M106.333 214.667L106.667 215.333L106.333 214.667z"/>
<path style="fill:#9d6c37; stroke:none;" d="M244.667 214.333L245.333 214.667L244.667 214.333z"/>
<path style="fill:#743d1c; stroke:none;" d="M246 214L247 215L246 214M302 214L302 215L305 215L302 214z"/>
<path style="fill:#9d6c37; stroke:none;" d="M305 214L305 215L308 215L305 214M399 214L400 215L399 214z"/>
<path style="fill:#743d1c; stroke:none;" d="M400 214L401 215L400 214z"/>
<path style="fill:#9d6c37; stroke:none;" d="M248.667 215.333L249.333 215.667L248.667 215.333z"/>
<path style="fill:#743d1c; stroke:none;" d="M250 215L251 216L250 215M291 215L291 216L295 216L291 215z"/>
<path style="fill:#9d6c37; stroke:none;" d="M295 215L295 216L298 216L295 215M402 215L403 216L402 215z"/>
<path style="fill:#743d1c; stroke:none;" d="M403 215L404 216L403 215M77 216L78 217L77 216z"/>
<path style="fill:#9d6c37; stroke:none;" d="M106 216L106 224L107 224L106 216z"/>
<path style="fill:#743d1c; stroke:none;" d="M130 216L130 220L131 220L130 216z"/>
<path style="fill:#9d6c37; stroke:none;" d="M253 216L253 217L256 217L253 216z"/>
<path style="fill:#743d1c; stroke:none;" d="M256 216L256 217L259 217L256 216M277 216L277 217L282 217L277 216z"/>
<path style="fill:#9d6c37; stroke:none;" d="M282 216L282 217L287 217L282 216M405 216L406 217L405 216z"/>
<path style="fill:#743d1c; stroke:none;" d="M406 216L407 217L406 216z"/>
<path style="fill:#9d6c37; stroke:none;" d="M78 217L79 218L78 217z"/>
<path style="fill:#743d1c; stroke:none;" d="M408 217L409 218L408 217z"/>
<path style="fill:#eba252; stroke:none;" d="M489 217C482.883 231.174 468.422 241.74 453 243L462 265L488 266C489.93 259.181 497.542 257.482 499.971 251.011C501.597 246.681 497.926 244.686 496.599 240.985C493.452 232.212 496.258 224.752 489 217z"/>
<path style="fill:#743d1c; stroke:none;" d="M78 218L79 219L78 218z"/>
<path style="fill:#9d6c37; stroke:none;" d="M410 218L411 219L410 218M488 218L489 219L488 218M490 218L491 219L490 218M79 219L80 220L79 219M412 219L413 220L412 219z"/>
<path style="fill:#743d1c; stroke:none;" d="M491 219L492 220L491 219M79 220L80 221L79 220z"/>
<path style="fill:#9d6c37; stroke:none;" d="M130 220L131 221L130 220M414 220L415 221L414 220M487 220L488 221L487 220z"/>
<path style="fill:#743d1c; stroke:none;" d="M416 221L417 222L416 221M486 221L487 222L486 221z"/>
<path style="fill:#9d6c37; stroke:none;" d="M492 221L493 222L492 221M80 222L81 223L80 222M83 222L84 223L83 222z"/>
<path style="fill:#743d1c; stroke:none;" d="M88 222L89 223L88 222M418 222L419 223L418 222z"/>
<path style="fill:#9d6c37; stroke:none;" d="M486 222L487 223L486 222z"/>
<path style="fill:#743d1c; stroke:none;" d="M493 222L494 223L493 222M80 223L81 224L80 223M82 223L83 224L82 223M89 223L90 224L89 223z"/>
<path style="fill:#9d6c37; stroke:none;" d="M419 223L420 224L419 223z"/>
<path style="fill:#743d1c; stroke:none;" d="M485 223L486 224L485 223z"/>
<path style="fill:#9d6c37; stroke:none;" d="M493 223L494 224L493 223z"/>
<path style="fill:#743d1c; stroke:none;" d="M81 224L82 225L81 224z"/>
<path style="fill:#9d6c37; stroke:none;" d="M90 224L91 225L90 224z"/>
<path style="fill:#743d1c; stroke:none;" d="M106.333 224.667L106.667 225.333L106.333 224.667M421 224L422 225L421 224M129 225L129 256L130 256L129 225z"/>
<path style="fill:#9d6c37; stroke:none;" d="M422 225L423 226L422 225M484 225L485 226L484 225M494 225L495 226L494 225M91 226L92 227L91 226z"/>
<path style="fill:#743d1c; stroke:none;" d="M424 226L425 227L424 226z"/>
<path style="fill:#9d6c37; stroke:none;" d="M483 226L484 227L483 226z"/>
<path style="fill:#743d1c; stroke:none;" d="M91 227L92 228L91 227M425 227L426 228L425 227M482 227L483 228L482 227M495 227L496 228L495 227z"/>
<path style="fill:#9d6c37; stroke:none;" d="M105 228L106 229L105 228M426 228L427 229L426 228z"/>
<path style="fill:#743d1c; stroke:none;" d="M481 228L482 229L481 228z"/>
<path style="fill:#9d6c37; stroke:none;" d="M495 228L496 229L495 228z"/>
<path style="fill:#743d1c; stroke:none;" d="M92 229L93 230L92 229M105 229L106 230L105 229M480 229L481 230L480 229M429 230L430 231L429 230z"/>
<path style="fill:#9d6c37; stroke:none;" d="M93 231L94 232L93 231M104 231L105 232L104 231z"/>
<path style="fill:#743d1c; stroke:none;" d="M430 231L431 232L430 231M478 231L479 232L478 231M496 231L496 236L497 236L496 231M93.3333 232.667L93.6667 233.333L93.3333 232.667M104 232L105 233L104 232M431 232L432 233L431 232M477 232L478 233L477 232M432 233L433 234L432 233M476 233L477 234L476 233z"/>
<path style="fill:#9d6c37; stroke:none;" d="M103 234L104 235L103 234z"/>
<path style="fill:#743d1c; stroke:none;" d="M433 234L434 235L433 234z"/>
<path style="fill:#9d6c37; stroke:none;" d="M475 234L476 235L475 234M94 235L95 236L94 235z"/>
<path style="fill:#743d1c; stroke:none;" d="M434 235L435 236L434 235M473 235L474 236L473 235M94.3333 236.667L94.6667 237.333L94.3333 236.667z"/>
<path style="fill:#9d6c37; stroke:none;" d="M102 236L103 237L102 236z"/>
<path style="fill:#743d1c; stroke:none;" d="M435 236L436 237L435 236z"/>
<path style="fill:#9d6c37; stroke:none;" d="M472 236L473 237L472 236z"/>
<path style="fill:#743d1c; stroke:none;" d="M470 237L471 238L470 237z"/>
<path style="fill:#9d6c37; stroke:none;" d="M101 238L102 239L101 238z"/>
<path style="fill:#743d1c; stroke:none;" d="M468 238L469 239L468 238z"/>
<path style="fill:#9d6c37; stroke:none;" d="M437 239L438 240L437 239M466 239L467 240L466 239M95 240L96 241L95 240z"/>
<path style="fill:#743d1c; stroke:none;" d="M100 240L101 241L100 240M438 240L439 241L438 240M463 240L464 241L463 240z"/>
<path style="fill:#9d6c37; stroke:none;" d="M464 240L465 241L464 240z"/>
<path style="fill:#743d1c; stroke:none;" d="M95 241L95 244L96 244L95 241z"/>
<path style="fill:#9d6c37; stroke:none;" d="M99 241L100 242L99 241z"/>
<path style="fill:#743d1c; stroke:none;" d="M460 241L461 242L460 241z"/>
<path style="fill:#9d6c37; stroke:none;" d="M461 241L462 242L461 241z"/>
<path style="fill:#743d1c; stroke:none;" d="M496 241L497 242L496 241M455.667 242.333L456.333 242.667L455.667 242.333z"/>
<path style="fill:#9d6c37; stroke:none;" d="M457 242L458 243L457 242M496 242L497 243L496 242M98 243L99 244L98 243M440 243L441 244L440 243z"/>
<path style="fill:#743d1c; stroke:none;" d="M497 243L498 244L497 243z"/>
<path style="fill:#9d6c37; stroke:none;" d="M97 244L98 245L97 244z"/>
<path style="fill:#743d1c; stroke:none;" d="M441 244L442 245L441 244M453 244L454 245L453 244M498 244L499 245L498 244z"/>
<path style="fill:#9d6c37; stroke:none;" d="M499 245L500 246L499 245z"/>
<path style="fill:#743d1c; stroke:none;" d="M96 246L97 247L96 246z"/>
<path style="fill:#9d6c37; stroke:none;" d="M442 246L443 247L442 246z"/>
<path style="fill:#743d1c; stroke:none;" d="M454 246L455 247L454 246z"/>
<path style="fill:#9d6c37; stroke:none;" d="M501.333 246.667L501.667 247.333L501.333 246.667z"/>
<path style="fill:#743d1c; stroke:none;" d="M443 247L444 248L443 247M501 248L502 249L501 248M444 249L445 250L444 249z"/>
<path style="fill:#9d6c37; stroke:none;" d="M500 250L501 251L500 250M445 251L446 252L445 251z"/>
<path style="fill:#743d1c; stroke:none;" d="M500 251L501 252L500 251M457 252L458 253L457 252z"/>
<path style="fill:#9d6c37; stroke:none;" d="M499 252L500 253L499 252M446 253L447 254L446 253z"/>
<path style="fill:#743d1c; stroke:none;" d="M458 254L459 255L458 254z"/>
<path style="fill:#9d6c37; stroke:none;" d="M447 255L448 256L447 255M459 256L460 257L459 256M448 257L449 258L448 257M494 257L495 258L494 257z"/>
<path style="fill:#743d1c; stroke:none;" d="M493 258L494 259L493 258M449 259L450 260L449 259M460 259L461 260L460 259M491 259L492 260L491 259M490 260L491 261L490 260M489 261L490 262L489 261z"/>
<path style="fill:#9d6c37; stroke:none;" d="M450 262L451 263L450 262z"/>
<path style="fill:#743d1c; stroke:none;" d="M461 262L462 263L461 262z"/>
<path style="fill:#9d6c37; stroke:none;" d="M488 262L489 263L488 262z"/>
<path style="fill:#743d1c; stroke:none;" d="M488 263L489 264L488 263M451 264L452 265L451 264z"/>
<path style="fill:#9d6c37; stroke:none;" d="M451 265L452 266L451 265z"/>
<path style="fill:#743d1c; stroke:none;" d="M463.667 265.333L464.333 265.667L463.667 265.333z"/>
<path style="fill:#9d6c37; stroke:none;" d="M465 265L466 266L465 265z"/>
<path style="fill:#743d1c; stroke:none;" d="M468.667 266.333L469.333 266.667L468.667 266.333z"/>
<path style="fill:#9d6c37; stroke:none;" d="M470 266L470 267L473 267L470 266M483.667 266.333L484.333 266.667L483.667 266.333z"/>
<path style="fill:#743d1c; stroke:none;" d="M485 266L485 267L488 267L485 266M452 267L453 268L452 267z"/>
<path style="fill:#9d6c37; stroke:none;" d="M452 268L453 269L452 268M130 270L130 276L131 276L130 270z"/>
<path style="fill:#743d1c; stroke:none;" d="M453 271L454 272L453 271z"/>
<path style="fill:#9d6c37; stroke:none;" d="M453 272L454 273L453 272z"/>
<path style="fill:#743d1c; stroke:none;" d="M454.333 274.667L454.667 275.333L454.333 274.667M130 276L130 281L131 281L130 276z"/>
<path style="fill:#9d6c37; stroke:none;" d="M454 276L455 277L454 276z"/>
<path style="fill:#743d1c; stroke:none;" d="M455.333 280.667L455.667 281.333L455.333 280.667z"/>
<path style="fill:#9d6c37; stroke:none;" d="M455 282L455 285L456 285L455 282M131 287L131 290L132 290L131 287z"/>
<path style="fill:#743d1c; stroke:none;" d="M131 290L131 293L132 293L131 290M456 292L456 299L457 299L456 292z"/>
<path style="fill:#9d6c37; stroke:none;" d="M132 296L132 299L133 299L132 296z"/>
<path style="fill:#743d1c; stroke:none;" d="M132.333 299.667L132.667 300.333L132.333 299.667z"/>
<path style="fill:#9d6c37; stroke:none;" d="M133 303L134 304L133 303z"/>
<path style="fill:#743d1c; stroke:none;" d="M133.333 304.667L133.667 305.333L133.333 304.667z"/>
<path style="fill:#9d6c37; stroke:none;" d="M455 305L455 308L456 308L455 305M134 307L135 308L134 307z"/>
<path style="fill:#743d1c; stroke:none;" d="M134 308L135 309L134 308M455.333 308.667L455.667 309.333L455.333 308.667z"/>
<path style="fill:#9d6c37; stroke:none;" d="M135 311L136 312L135 311z"/>
<path style="fill:#743d1c; stroke:none;" d="M135 312L136 313L135 312z"/>
<path style="fill:#9d6c37; stroke:none;" d="M454.333 313.667L454.667 314.333L454.333 313.667M136 314L137 315L136 314z"/>
<path style="fill:#743d1c; stroke:none;" d="M454 315L455 316L454 315z"/>
<path style="fill:#9d6c37; stroke:none;" d="M137 316L138 317L137 316z"/>
<path style="fill:#743d1c; stroke:none;" d="M137 317L138 318L137 317z"/>
<path style="fill:#9d6c37; stroke:none;" d="M453.333 318.667L453.667 319.333L453.333 318.667M138 319L139 320L138 319z"/>
<path style="fill:#743d1c; stroke:none;" d="M453 320L454 321L453 320z"/>
<path style="fill:#9d6c37; stroke:none;" d="M139 321L140 322L139 321M452.333 322.667L452.667 323.333L452.333 322.667M140 323L141 324L140 323z"/>
<path style="fill:#743d1c; stroke:none;" d="M452 324L453 325L452 324z"/>
<path style="fill:#9d6c37; stroke:none;" d="M141 325L142 326L141 325M347 325L348 326L347 325z"/>
<path style="fill:#743d1c; stroke:none;" d="M352 325L353 326L352 325M346 326L347 327L346 326M353 326L354 327L353 326z"/>
<path style="fill:#9d6c37; stroke:none;" d="M451 326L452 327L451 326z"/>
<path style="fill:#743d1c; stroke:none;" d="M142 327L143 328L142 327z"/>
<path style="fill:#9d6c37; stroke:none;" d="M345 327L346 328L345 327M354 327L355 328L354 327z"/>
<path style="fill:#743d1c; stroke:none;" d="M451 327L452 328L451 327z"/>
<path style="fill:#9d6c37; stroke:none;" d="M143 328L144 329L143 328z"/>
<path style="fill:#743d1c; stroke:none;" d="M345 328L346 329L345 328z"/>
<path style="fill:#9d6c37; stroke:none;" d="M450 329L451 330L450 329z"/>
<path style="fill:#743d1c; stroke:none;" d="M144 330L145 331L144 330M450 330L451 331L450 330z"/>
<path style="fill:#9d6c37; stroke:none;" d="M145 331L146 332L145 331M344 331L344 334L345 334L344 331z"/>
<path style="fill:#743d1c; stroke:none;" d="M354 332L354 335L355 335L354 332z"/>
<path style="fill:#9d6c37; stroke:none;" d="M449 332L450 333L449 332z"/>
<path style="fill:#743d1c; stroke:none;" d="M146 333L147 334L146 333M449 333L450 334L449 333z"/>
<path style="fill:#9d6c37; stroke:none;" d="M147 334L148 335L147 334z"/>
<path style="fill:#743d1c; stroke:none;" d="M344 334L344 342L345 342L344 334z"/>
<path style="fill:#9d6c37; stroke:none;" d="M148 335L149 336L148 335M354 335L354 341L355 341L354 335z"/>
<path style="fill:#743d1c; stroke:none;" d="M448 335L449 336L448 335z"/>
<path style="fill:#9d6c37; stroke:none;" d="M447 337L448 338L447 337z"/>
<path style="fill:#743d1c; stroke:none;" d="M150 338L151 339L150 338M447 338L448 339L447 338M151 339L152 340L151 339z"/>
<path style="fill:#9d6c37; stroke:none;" d="M183 339L184 340L183 339M188 339L189 340L188 339M446 339L447 340L446 339z"/>
<path style="fill:#743d1c; stroke:none;" d="M152 340L153 341L152 340M182 340L183 341L182 340M189 340L190 341L189 340M446 340L447 341L446 340M153 341L154 342L153 341z"/>
<path style="fill:#9d6c37; stroke:none;" d="M181 341L182 342L181 341M190 341L191 342L190 341z"/>
<path style="fill:#743d1c; stroke:none;" d="M354 341L354 344L355 344L354 341z"/>
<path style="fill:#9d6c37; stroke:none;" d="M445 341L446 342L445 341z"/>
<path style="fill:#743d1c; stroke:none;" d="M154 342L155 343L154 342M190 342L191 343L190 342z"/>
<path style="fill:#9d6c37; stroke:none;" d="M344.333 342.667L344.667 343.333L344.333 342.667z"/>
<path style="fill:#743d1c; stroke:none;" d="M445 342L446 343L445 342M155 343L156 344L155 343z"/>
<path style="fill:#9d6c37; stroke:none;" d="M444 343L445 344L444 343z"/>
<path style="fill:#743d1c; stroke:none;" d="M156 344L157 345L156 344z"/>
<path style="fill:#9d6c37; stroke:none;" d="M191.333 344.667L191.667 345.333L191.333 344.667z"/>
<path style="fill:#743d1c; stroke:none;" d="M444 344L445 345L444 344M157 345L158 346L157 345z"/>
<path style="fill:#9d6c37; stroke:none;" d="M443 345L444 346L443 345z"/>
<path style="fill:#743d1c; stroke:none;" d="M181 346L182 347L181 346M191 346L192 347L191 346z"/>
<path style="fill:#9d6c37; stroke:none;" d="M355 346L356 347L355 346M160 347L161 348L160 347M181.333 347.667L181.667 348.333L181.333 347.667z"/>
<path style="fill:#743d1c; stroke:none;" d="M345 347L346 348L345 347M355 347L356 348L355 347z"/>
<path style="fill:#9d6c37; stroke:none;" d="M442 347L443 348L442 347z"/>
<path style="fill:#743d1c; stroke:none;" d="M161 348L162 349L161 348z"/>
<path style="fill:#9d6c37; stroke:none;" d="M345.333 348.667L345.667 349.333L345.333 348.667M163 349L164 350L163 349M192 349L193 350L192 349M356 349L357 350L356 349z"/>
<path style="fill:#743d1c; stroke:none;" d="M441 349L442 350L441 349M164 350L165 351L164 350M182.333 350.667L182.667 351.333L182.333 350.667M192.333 350.667L192.667 351.333L192.333 350.667M356 350L357 351L356 350z"/>
<path style="fill:#9d6c37; stroke:none;" d="M166 351L167 352L166 351z"/>
<path style="fill:#743d1c; stroke:none;" d="M346 351L347 352L346 351M440 351L441 352L440 351M167 352L168 353L167 352z"/>
<path style="fill:#9d6c37; stroke:none;" d="M182 352L183 353L182 352M346 352L347 353L346 352z"/>
<path style="fill:#743d1c; stroke:none;" d="M357 352L358 353L357 352z"/>
<path style="fill:#9d6c37; stroke:none;" d="M439 352L440 353L439 352M169 353L170 354L169 353z"/>
<path style="fill:#743d1c; stroke:none;" d="M170 354L171 355L170 354z"/>
<path style="fill:#9d6c37; stroke:none;" d="M193 354L194 355L193 354z"/>
<path style="fill:#743d1c; stroke:none;" d="M347 354L348 355L347 354M358 354L359 355L358 354M438 354L439 355L438 354M172 355L173 356L172 355M183 355L184 356L183 355M193 355L194 356L193 355z"/>
<path style="fill:#9d6c37; stroke:none;" d="M437 355L438 356L437 355M174 356L175 357L174 356M183.333 356.667L183.667 357.333L183.333 356.667z"/>
<path style="fill:#743d1c; stroke:none;" d="M348 356L349 357L348 356M359 356L360 357L359 356z"/>
<path style="fill:#9d6c37; stroke:none;" d="M436 356L437 357L436 356M176 357L177 358L176 357M348 357L349 358L348 357M360 357L361 358L360 357M178 358L179 359L178 358M194.333 358.667L194.667 359.333L194.333 358.667z"/>
<path style="fill:#743d1c; stroke:none;" d="M349 358L350 359L349 358M435 358L436 359L435 358M180 359L181 360L180 359M361 359L362 360L361 359z"/>
<path style="fill:#9d6c37; stroke:none;" d="M434 359L435 360L434 359z"/>
<path style="fill:#743d1c; stroke:none;" d="M182 360L183 361L182 360z"/>
<path style="fill:#9d6c37; stroke:none;" d="M183 360L184 361L183 360z"/>
<path style="fill:#743d1c; stroke:none;" d="M184 360L185 361L184 360M194 360L195 361L194 360M350 360L351 361L350 360M362 360L363 361L362 360z"/>
<path style="fill:#9d6c37; stroke:none;" d="M433 360L434 361L433 360M363 361L364 362L363 361M351 362L352 363L351 362M364 362L365 363L364 362M165 363L166 364L165 363M195 363L196 364L195 363z"/>
<path style="fill:#743d1c; stroke:none;" d="M352 363L353 364L352 363M431 363L432 364L431 363z"/>
<path style="fill:#eba252; stroke:none;" d="M165 364C165.506 375.781 169.443 387.174 169.961 399C171.103 425.086 164.25 448.614 156 473C178.303 480.252 182.96 459.508 187.116 442C191.047 425.437 192.847 406.944 190.421 390C189.744 385.273 189.744 378.423 186.86 374.418C183.36 369.556 170.667 365.633 165 364z"/>
<path style="fill:#9d6c37; stroke:none;" d="M167 364L168 365L167 364z"/>
<path style="fill:#743d1c; stroke:none;" d="M195 364L196 365L195 364z"/>
<path style="fill:#9d6c37; stroke:none;" d="M430 364L431 365L430 364z"/>
<path style="fill:#743d1c; stroke:none;" d="M169 365L170 366L169 365z"/>
<path style="fill:#9d6c37; stroke:none;" d="M353 365L354 366L353 365M429 365L430 366L429 365z"/>
<path style="fill:#743d1c; stroke:none;" d="M171 366L172 367L171 366M354 366L355 367L354 366M173 367L174 368L173 367z"/>
<path style="fill:#9d6c37; stroke:none;" d="M196 367L197 368L196 367z"/>
<path style="fill:#743d1c; stroke:none;" d="M428 367L429 368L428 367z"/>
<path style="fill:#9d6c37; stroke:none;" d="M175 368L176 369L175 368z"/>
<path style="fill:#743d1c; stroke:none;" d="M353 368L354 369L353 368z"/>
<path style="fill:#9d6c37; stroke:none;" d="M165.333 369.667L165.667 370.333L165.333 369.667M177 369L178 370L177 369z"/>
<path style="fill:#743d1c; stroke:none;" d="M351 369L352 370L351 369M427 369L428 370L427 369M180 370L181 371L180 370M349 370L350 371L349 370M165.333 371.667L165.667 372.333L165.333 371.667z"/>
<path style="fill:#9d6c37; stroke:none;" d="M182 371L183 372L182 371z"/>
<path style="fill:#743d1c; stroke:none;" d="M183 371L184 372L183 371M197 371L198 372L197 371M347 371L348 372L347 371z"/>
<path style="fill:#9d6c37; stroke:none;" d="M426 371L427 372L426 371M185 372L186 373L185 372M344 372L345 373L344 372z"/>
<path style="fill:#743d1c; stroke:none;" d="M426 372L427 373L426 372M187 373L188 374L187 373M342 373L343 374L342 373z"/>
<path style="fill:#9d6c37; stroke:none;" d="M187 374L188 375L187 374M198 374L199 375L198 374M339 374L340 375L339 374M166.333 375.667L166.667 376.333L166.333 375.667z"/>
<path style="fill:#743d1c; stroke:none;" d="M198 375L199 376L198 375M337 375L338 376L337 375z"/>
<path style="fill:#9d6c37; stroke:none;" d="M425 375L425 381L426 381L425 375M240.667 376.333L241.333 376.667L240.667 376.333M334 376L335 377L334 376z"/>
<path style="fill:#743d1c; stroke:none;" d="M335 376L336 377L335 376M360 376L361 377L360 376z"/>
<path style="fill:#eba252; stroke:none;" d="M351 381C354.013 388.962 358.653 395.186 359.532 404C361.889 427.61 346.468 450.722 337 471C350.631 478.258 358.054 469.869 364.297 458C372.835 441.769 384.009 420.037 380.671 401C379.343 393.423 370.275 378.256 362 376.994C358.472 376.456 354.158 379.685 351 381z"/>
<path style="fill:#743d1c; stroke:none;" d="M363 376L364 377L363 376M166 377L167 378L166 377M188 377L189 378L188 377z"/>
<path style="fill:#9d6c37; stroke:none;" d="M237 377L238 378L237 377z"/>
<path style="fill:#743d1c; stroke:none;" d="M243 377L244 378L243 377z"/>
<path style="fill:#9d6c37; stroke:none;" d="M244 377L245 378L244 377M331 377L332 378L331 377z"/>
<path style="fill:#743d1c; stroke:none;" d="M332 377L333 378L332 377M358 377L359 378L358 377M364 377L365 378L364 377z"/>
<path style="fill:#9d6c37; stroke:none;" d="M188 378L189 379L188 378M236 378L237 379L236 378z"/>
<path style="fill:#743d1c; stroke:none;" d="M246 378L247 379L246 378z"/>
<path style="fill:#9d6c37; stroke:none;" d="M247 378L248 379L247 378M327 378L328 379L327 378z"/>
<path style="fill:#743d1c; stroke:none;" d="M328 378L329 379L328 378M356 378L357 379L356 378M365 378L366 379L365 378z"/>
<path style="fill:#9d6c37; stroke:none;" d="M199 379L200 380L199 379z"/>
<path style="fill:#743d1c; stroke:none;" d="M249 379L250 380L249 379z"/>
<path style="fill:#9d6c37; stroke:none;" d="M250 379L251 380L250 379M324 379L325 380L324 379z"/>
<path style="fill:#743d1c; stroke:none;" d="M325 379L326 380L325 379M354 379L355 380L354 379M366 379L367 380L366 379M380 379L381 380L380 379z"/>
<path style="fill:#9d6c37; stroke:none;" d="M167 380L168 381L167 380z"/>
<path style="fill:#743d1c; stroke:none;" d="M199 380L200 381L199 380z"/>
<path style="fill:#9d6c37; stroke:none;" d="M235.333 380.667L235.667 381.333L235.333 380.667z"/>
<path style="fill:#743d1c; stroke:none;" d="M253 380L254 381L253 380z"/>
<path style="fill:#9d6c37; stroke:none;" d="M254 380L255 381L254 380M320 380L321 381L320 380z"/>
<path style="fill:#743d1c; stroke:none;" d="M321 380L322 381L321 380M352 380L353 381L352 380M367 380L368 381L367 380M381 380L382 381L381 380M167.333 381.667L167.667 382.333L167.333 381.667M257 381L258 382L257 381z"/>
<path style="fill:#9d6c37; stroke:none;" d="M258.667 381.333L259.333 381.667L258.667 381.333M315.667 381.333L316.333 381.667L315.667 381.333z"/>
<path style="fill:#743d1c; stroke:none;" d="M317 381L318 382L317 381z"/>
<path style="fill:#9d6c37; stroke:none;" d="M350 381L351 382L350 381z"/>
<path style="fill:#743d1c; stroke:none;" d="M368 381L369 382L368 381z"/>
<path style="fill:#9d6c37; stroke:none;" d="M382 381L383 382L382 381z"/>
<path style="fill:#743d1c; stroke:none;" d="M189 382L190 383L189 382M235.333 382.667L235.667 383.333L235.333 382.667M262 382L263 383L262 382z"/>
<path style="fill:#9d6c37; stroke:none;" d="M263.667 382.333L264.333 382.667L263.667 382.333M309.667 382.333L310.333 382.667L309.667 382.333z"/>
<path style="fill:#743d1c; stroke:none;" d="M311.667 382.333L312.333 382.667L311.667 382.333M350 382L351 383L350 382M369 382L370 383L369 382z"/>
<path style="fill:#9d6c37; stroke:none;" d="M189 383L190 384L189 383z"/>
<path style="fill:#743d1c; stroke:none;" d="M267 383L267 384L270 384L267 383z"/>
<path style="fill:#9d6c37; stroke:none;" d="M270.667 383.333L271.333 383.667L270.667 383.333M302 383L302 384L305 384L302 383z"/>
<path style="fill:#743d1c; stroke:none;" d="M305.667 383.333L306.333 383.667L305.667 383.333M351 383L352 384L351 383M370 383L371 384L370 383z"/>
<path style="fill:#9d6c37; stroke:none;" d="M200 384L201 385L200 384z"/>
<path style="fill:#743d1c; stroke:none;" d="M276 384L276 385L281 385L276 384z"/>
<path style="fill:#9d6c37; stroke:none;" d="M281 384L281 385L293 385L281 384z"/>
<path style="fill:#743d1c; stroke:none;" d="M293 384L293 385L298 385L293 384z"/>
<path style="fill:#9d6c37; stroke:none;" d="M352 384L353 385L352 384z"/>
<path style="fill:#743d1c; stroke:none;" d="M371 384L372 385L371 384M384 384L385 385L384 384M426.333 384.667L426.667 385.333L426.333 384.667z"/>
<path style="fill:#9d6c37; stroke:none;" d="M168 385L168 388L169 388L168 385z"/>
<path style="fill:#743d1c; stroke:none;" d="M200.333 385.667L200.667 386.333L200.333 385.667z"/>
<path style="fill:#9d6c37; stroke:none;" d="M385 385L386 386L385 385z"/>
<path style="fill:#743d1c; stroke:none;" d="M353 386L354 387L353 386z"/>
<path style="fill:#9d6c37; stroke:none;" d="M426 386L426 389L427 389L426 386z"/>
<path style="fill:#743d1c; stroke:none;" d="M190.333 387.667L190.667 388.333L190.333 387.667z"/>
<path style="fill:#9d6c37; stroke:none;" d="M234.333 387.667L234.667 388.333L234.333 387.667M354 387L355 388L354 387z"/>
<path style="fill:#743d1c; stroke:none;" d="M386 387L387 388L386 387M168.333 388.667L168.667 389.333L168.333 388.667z"/>
<path style="fill:#9d6c37; stroke:none;" d="M374 388L375 389L374 388M190.333 389.667L190.667 390.333L190.333 389.667z"/>
<path style="fill:#743d1c; stroke:none;" d="M234 389L234 392L235 392L234 389z"/>
<path style="fill:#9d6c37; stroke:none;" d="M355 389L356 390L355 389z"/>
<path style="fill:#743d1c; stroke:none;" d="M375 389L376 390L375 389z"/>
<path style="fill:#9d6c37; stroke:none;" d="M388 390L389 391L388 390M356 391L357 392L356 391z"/>
<path style="fill:#743d1c; stroke:none;" d="M388 391L389 392L388 391z"/>
<path style="fill:#9d6c37; stroke:none;" d="M201.333 392.667L201.667 393.333L201.333 392.667z"/>
<path style="fill:#743d1c; stroke:none;" d="M356 392L357 393L356 392M377 392L378 393L377 392M389 393L390 394L389 393M427 393L427 400L428 400L427 393z"/>
<path style="fill:#9d6c37; stroke:none;" d="M169 394L169 398L170 398L169 394z"/>
<path style="fill:#743d1c; stroke:none;" d="M201 394L201 398L202 398L201 394z"/>
<path style="fill:#9d6c37; stroke:none;" d="M233.333 394.667L233.667 395.333L233.333 394.667z"/>
<path style="fill:#743d1c; stroke:none;" d="M357 394L358 395L357 394z"/>
<path style="fill:#9d6c37; stroke:none;" d="M378 394L379 395L378 394z"/>
<path style="fill:#743d1c; stroke:none;" d="M191 396L191 402L192 402L191 396M233.333 396.667L233.667 397.333L233.333 396.667M379 396L380 397L379 396M390 396L391 397L390 396z"/>
<path style="fill:#9d6c37; stroke:none;" d="M358 397L359 398L358 397z"/>
<path style="fill:#743d1c; stroke:none;" d="M169 398L169 415L170 415L169 398M358.333 398.667L358.667 399.333L358.333 398.667M380 399L381 400L380 399z"/>
<path style="fill:#9d6c37; stroke:none;" d="M232.333 400.667L232.667 401.333L232.333 400.667M391.333 400.667L391.667 401.333L391.333 400.667M427 400L427 404L428 404L427 400M191 402L191 411L192 411L191 402z"/>
<path style="fill:#743d1c; stroke:none;" d="M232.333 402.667L232.667 403.333L232.333 402.667M391 402L391 410L392 410L391 402z"/>
<path style="fill:#9d6c37; stroke:none;" d="M359 403L359 409L360 409L359 403z"/>
<path style="fill:#743d1c; stroke:none;" d="M427 404L427 410L428 410L427 404z"/>
<path style="fill:#9d6c37; stroke:none;" d="M231.333 406.667L231.667 407.333L231.333 406.667z"/>
<path style="fill:#743d1c; stroke:none;" d="M231.333 408.667L231.667 409.333L231.333 408.667z"/>
<path style="fill:#9d6c37; stroke:none;" d="M391.333 410.667L391.667 411.333L391.333 410.667z"/>
<path style="fill:#743d1c; stroke:none;" d="M191 411L191 416L192 416L191 411z"/>
<path style="fill:#9d6c37; stroke:none;" d="M230 412L231 413L230 412z"/>
<path style="fill:#743d1c; stroke:none;" d="M230.333 413.667L230.667 414.333L230.333 413.667M358 413L358 416L359 416L358 413z"/>
<path style="fill:#9d6c37; stroke:none;" d="M380 413L381 414L380 413z"/>
<path style="fill:#743d1c; stroke:none;" d="M380.333 414.667L380.667 415.333L380.333 414.667z"/>
<path style="fill:#9d6c37; stroke:none;" d="M426.333 414.667L426.667 415.333L426.333 414.667M169 415L169 419L170 419L169 415z"/>
<path style="fill:#743d1c; stroke:none;" d="M201 415L201 418L202 418L201 415z"/>
<path style="fill:#9d6c37; stroke:none;" d="M358 416L359 417L358 416z"/>
<path style="fill:#743d1c; stroke:none;" d="M390.333 416.667L390.667 417.333L390.333 416.667M426 416L427 417L426 416z"/>
<path style="fill:#9d6c37; stroke:none;" d="M229 417L230 418L229 417M201 418L201 421L202 421L201 418z"/>
<path style="fill:#743d1c; stroke:none;" d="M229.333 418.667L229.667 419.333L229.333 418.667z"/>
<path style="fill:#9d6c37; stroke:none;" d="M390 418L391 419L390 418M379 419L380 420L379 419M425 419L426 420L425 419z"/>
<path style="fill:#743d1c; stroke:none;" d="M357 420L358 421L357 420M379 420L380 421L379 420M425 420L426 421L425 420z"/>
<path style="fill:#9d6c37; stroke:none;" d="M357.333 421.667L357.667 422.333L357.333 421.667M190.333 422.667L190.667 423.333L190.333 422.667M228 422L229 423L228 422z"/>
<path style="fill:#743d1c; stroke:none;" d="M389 422L390 423L389 422z"/>
<path style="fill:#9d6c37; stroke:none;" d="M424 422L425 423L424 422z"/>
<path style="fill:#743d1c; stroke:none;" d="M168 423L168 426L169 426L168 423M228.333 423.667L228.667 424.333L228.333 423.667z"/>
<path style="fill:#9d6c37; stroke:none;" d="M378 423L379 424L378 423M389 423L390 424L389 423z"/>
<path style="fill:#743d1c; stroke:none;" d="M424 423L425 424L424 423M190.333 424.667L190.667 425.333L190.333 424.667M356 424L357 425L356 424M378 424L379 425L378 424M200 425L200 428L201 428L200 425z"/>
<path style="fill:#9d6c37; stroke:none;" d="M356.333 425.667L356.667 426.333L356.333 425.667z"/>
<path style="fill:#743d1c; stroke:none;" d="M423 425L424 426L423 425z"/>
<path style="fill:#9d6c37; stroke:none;" d="M168.333 426.667L168.667 427.333L168.333 426.667M227 426L228 427L227 426z"/>
<path style="fill:#743d1c; stroke:none;" d="M388 426L389 427L388 426M227.333 427.667L227.667 428.333L227.333 427.667M377 427L378 428L377 427z"/>
<path style="fill:#9d6c37; stroke:none;" d="M388 427L389 428L388 427z"/>
<path style="fill:#743d1c; stroke:none;" d="M422 427L423 428L422 427z"/>
<path style="fill:#9d6c37; stroke:none;" d="M200 428L201 429L200 428z"/>
<path style="fill:#743d1c; stroke:none;" d="M355 428L356 429L355 428z"/>
<path style="fill:#9d6c37; stroke:none;" d="M355 429L356 430L355 429z"/>
<path style="fill:#743d1c; stroke:none;" d="M387 429L388 430L387 429M421 429L422 430L421 429z"/>
<path style="fill:#9d6c37; stroke:none;" d="M189 430L190 431L189 430M226.333 430.667L226.667 431.333L226.333 430.667z"/>
<path style="fill:#743d1c; stroke:none;" d="M376 430L377 431L376 430z"/>
<path style="fill:#9d6c37; stroke:none;" d="M387 430L388 431L387 430z"/>
<path style="fill:#743d1c; stroke:none;" d="M167.333 431.667L167.667 432.333L167.333 431.667M189 431L190 432L189 431M354 431L355 432L354 431M420 431L421 432L420 431M199.333 432.667L199.667 433.333L199.333 432.667M226 432L227 433L226 432z"/>
<path style="fill:#9d6c37; stroke:none;" d="M354 432L355 433L354 432M419 432L420 433L419 432M167 433L168 434L167 433z"/>
<path style="fill:#743d1c; stroke:none;" d="M375 433L376 434L375 433z"/>
<path style="fill:#9d6c37; stroke:none;" d="M386 433L387 434L386 433z"/>
<path style="fill:#743d1c; stroke:none;" d="M419 433L420 434L419 433z"/>
<path style="fill:#9d6c37; stroke:none;" d="M199 434L200 435L199 434M225 434L226 435L225 434z"/>
<path style="fill:#743d1c; stroke:none;" d="M353 434L354 435L353 434z"/>
<path style="fill:#9d6c37; stroke:none;" d="M418 434L419 435L418 434M188 435L189 436L188 435z"/>
<path style="fill:#743d1c; stroke:none;" d="M225 435L226 436L225 435z"/>
<path style="fill:#9d6c37; stroke:none;" d="M353 435L354 436L353 435M374 435L375 436L374 435z"/>
<path style="fill:#743d1c; stroke:none;" d="M166.333 436.667L166.667 437.333L166.333 436.667M188 436L189 437L188 436M374 436L375 437L374 436z"/>
<path style="fill:#9d6c37; stroke:none;" d="M385 436L386 437L385 436M417 436L418 437L417 436z"/>
<path style="fill:#743d1c; stroke:none;" d="M352 437L353 438L352 437z"/>
<path style="fill:#9d6c37; stroke:none;" d="M166.333 438.667L166.667 439.333L166.333 438.667z"/>
<path style="fill:#743d1c; stroke:none;" d="M198 438L199 439L198 438z"/>
<path style="fill:#9d6c37; stroke:none;" d="M224 438L225 439L224 438M352 438L353 439L352 438M373 438L374 439L373 438z"/>
<path style="fill:#743d1c; stroke:none;" d="M384 438L385 439L384 438z"/>
<path style="fill:#9d6c37; stroke:none;" d="M416 438L417 439L416 438M198 439L199 440L198 439z"/>
<path style="fill:#743d1c; stroke:none;" d="M224 439L225 440L224 439z"/>
<path style="fill:#9d6c37; stroke:none;" d="M384 439L385 440L384 439M187 440L188 441L187 440z"/>
<path style="fill:#743d1c; stroke:none;" d="M351 440L352 441L351 440M415 440L416 441L415 440M165.333 441.667L165.667 442.333L165.333 441.667M187 441L188 442L187 441z"/>
<path style="fill:#9d6c37; stroke:none;" d="M223 441L224 442L223 441M351 441L352 442L351 441z"/>
<path style="fill:#743d1c; stroke:none;" d="M372 441L373 442L372 441M383 441L384 442L383 441M197.333 442.667L197.667 443.333L197.333 442.667M223 442L224 443L223 442M414 442L415 443L414 442z"/>
<path style="fill:#9d6c37; stroke:none;" d="M165 443L166 444L165 443M350 443L351 444L350 443z"/>
<path style="fill:#743d1c; stroke:none;" d="M371 443L372 444L371 443z"/>
<path style="fill:#9d6c37; stroke:none;" d="M186 444L187 445L186 444M197 444L198 445L197 444M222 444L223 445L222 444M382 444L383 445L382 444z"/>
<path style="fill:#743d1c; stroke:none;" d="M413 444L414 445L413 444M186 445L187 446L186 445M222 445L223 446L222 445M349 445L350 446L349 445z"/>
<path style="fill:#9d6c37; stroke:none;" d="M370 445L371 446L370 445z"/>
<path style="fill:#743d1c; stroke:none;" d="M164 446L165 447L164 446M381 446L382 447L381 446M412 446L413 447L412 446z"/>
<path style="fill:#9d6c37; stroke:none;" d="M164 447L165 448L164 447z"/>
<path style="fill:#743d1c; stroke:none;" d="M196 447L197 448L196 447M221 447L222 448L221 447M348 447L349 448L348 447z"/>
<path style="fill:#9d6c37; stroke:none;" d="M369 447L370 448L369 447M185 448L186 449L185 448M348 448L349 449L348 448z"/>
<path style="fill:#743d1c; stroke:none;" d="M380 448L381 449L380 448M411 448L412 449L411 448M163.333 449.667L163.667 450.333L163.333 449.667z"/>
<path style="fill:#9d6c37; stroke:none;" d="M220 449L221 450L220 449z"/>
<path style="fill:#743d1c; stroke:none;" d="M347 449L348 450L347 449z"/>
<path style="fill:#9d6c37; stroke:none;" d="M368 449L369 450L368 449M347 450L348 451L347 450z"/>
<path style="fill:#743d1c; stroke:none;" d="M379 450L380 451L379 450M410 450L411 451L410 450z"/>
<path style="fill:#9d6c37; stroke:none;" d="M163 451L164 452L163 451M184 451L185 452L184 451M195 451L196 452L195 451M219 451L220 452L219 451M367 451L368 452L367 451M409 451L410 452L409 451z"/>
<path style="fill:#743d1c; stroke:none;" d="M184 452L185 453L184 452z"/>
<path style="fill:#9d6c37; stroke:none;" d="M346 452L347 453L346 452z"/>
<path style="fill:#743d1c; stroke:none;" d="M409 452L410 453L409 452M162 453L163 454L162 453z"/>
<path style="fill:#9d6c37; stroke:none;" d="M218 453L219 454L218 453M378 453L379 454L378 453M408 453L409 454L408 453M162 454L163 455L162 454z"/>
<path style="fill:#743d1c; stroke:none;" d="M194 454L195 455L194 454z"/>
<path style="fill:#9d6c37; stroke:none;" d="M345 454L346 455L345 454z"/>
<path style="fill:#743d1c; stroke:none;" d="M408 454L409 455L408 454M183 455L184 456L183 455z"/>
<path style="fill:#9d6c37; stroke:none;" d="M217 455L218 456L217 455M365 455L366 456L365 455M377 455L378 456L377 455M407 455L408 456L407 455z"/>
<path style="fill:#743d1c; stroke:none;" d="M161 456L162 457L161 456M344 456L345 457L344 456M407 456L408 457L407 456z"/>
<path style="fill:#9d6c37; stroke:none;" d="M161 457L162 458L161 457z"/>
<path style="fill:#743d1c; stroke:none;" d="M193 457L194 458L193 457z"/>
<path style="fill:#9d6c37; stroke:none;" d="M216 457L217 458L216 457M364 457L365 458L364 457M376 457L377 458L376 457M406 457L407 458L406 457z"/>
<path style="fill:#743d1c; stroke:none;" d="M182 458L183 459L182 458z"/>
<path style="fill:#9d6c37; stroke:none;" d="M193 458L194 459L193 458M343 458L344 459L343 458z"/>
<path style="fill:#743d1c; stroke:none;" d="M406 458L407 459L406 458M160 459L161 460L160 459z"/>
<path style="fill:#9d6c37; stroke:none;" d="M215 459L216 460L215 459M363 459L364 460L363 459M375 459L376 460L375 459M405 459L406 460L405 459M160 460L161 461L160 460M181 460L182 461L181 460z"/>
<path style="fill:#743d1c; stroke:none;" d="M192 460L193 461L192 460z"/>
<path style="fill:#9d6c37; stroke:none;" d="M342 460L343 461L342 460z"/>
<path style="fill:#743d1c; stroke:none;" d="M181 461L182 462L181 461z"/>
<path style="fill:#9d6c37; stroke:none;" d="M192 461L193 462L192 461M214 461L215 462L214 461z"/>
<path style="fill:#743d1c; stroke:none;" d="M362 461L363 462L362 461z"/>
<path style="fill:#9d6c37; stroke:none;" d="M374 461L375 462L374 461M404 461L405 462L404 461z"/>
<path style="fill:#743d1c; stroke:none;" d="M159 462L160 463L159 462M214 462L215 463L214 462z"/>
<path style="fill:#9d6c37; stroke:none;" d="M341 462L342 463L341 462M159 463L160 464L159 463M180 463L181 464L180 463z"/>
<path style="fill:#743d1c; stroke:none;" d="M191 463L192 464L191 463M361 463L362 464L361 463z"/>
<path style="fill:#9d6c37; stroke:none;" d="M373 463L374 464L373 463M403 463L404 464L403 463M191 464L192 465L191 464z"/>
<path style="fill:#743d1c; stroke:none;" d="M213 464L214 465L213 464z"/>
<path style="fill:#9d6c37; stroke:none;" d="M340 464L341 465L340 464z"/>
<path style="fill:#743d1c; stroke:none;" d="M372 464L373 465L372 464M158 465L159 466L158 465M339 465L340 466L339 465z"/>
<path style="fill:#9d6c37; stroke:none;" d="M402 465L403 466L402 465M158 466L159 467L158 466z"/>
<path style="fill:#743d1c; stroke:none;" d="M179 466L180 467L179 466M190 466L191 467L190 466z"/>
<path style="fill:#9d6c37; stroke:none;" d="M212 466L213 467L212 466M339 466L340 467L339 466M359 466L360 467L359 466z"/>
<path style="fill:#743d1c; stroke:none;" d="M371 466L372 467L371 466M212 467L213 468L212 467M338 467L339 468L338 467z"/>
<path style="fill:#9d6c37; stroke:none;" d="M401 467L402 468L401 467M157 468L158 469L157 468M178 468L179 469L178 468z"/>
<path style="fill:#743d1c; stroke:none;" d="M358 468L359 469L358 468z"/>
<path style="fill:#9d6c37; stroke:none;" d="M370 468L371 469L370 468M189 469L190 470L189 469M211 469L212 470L211 469z"/>
<path style="fill:#743d1c; stroke:none;" d="M337 469L338 470L337 469z"/>
<path style="fill:#9d6c37; stroke:none;" d="M400 469L401 470L400 469z"/>
<path style="fill:#743d1c; stroke:none;" d="M156 470L157 471L156 470M211 470L212 471L211 470z"/>
<path style="fill:#9d6c37; stroke:none;" d="M356 470L357 471L356 470M369 470L370 471L369 470M156 471L157 472L156 471z"/>
<path style="fill:#743d1c; stroke:none;" d="M177 471L178 472L177 471M188 471L189 472L188 471M337 471L338 472L337 471M354 471L355 472L354 471M369 471L370 472L369 471z"/>
<path style="fill:#9d6c37; stroke:none;" d="M399 471L400 472L399 471M173 472L174 473L173 472z"/>
<path style="fill:#743d1c; stroke:none;" d="M174 472L175 473L174 472z"/>
<path style="fill:#9d6c37; stroke:none;" d="M210 472L211 473L210 472M339 472L340 473L339 472z"/>
<path style="fill:#743d1c; stroke:none;" d="M352 472L353 473L352 472M371 472L372 473L371 472z"/>
<path style="fill:#9d6c37; stroke:none;" d="M157 473L158 474L157 473z"/>
<path style="fill:#743d1c; stroke:none;" d="M170 473L171 474L170 473z"/>
<path style="fill:#9d6c37; stroke:none;" d="M189 473L190 474L189 473z"/>
<path style="fill:#743d1c; stroke:none;" d="M210.333 473.667L210.667 474.333L210.333 473.667M341 473L342 474L341 473z"/>
<path style="fill:#9d6c37; stroke:none;" d="M342 473L343 474L342 473z"/>
<path style="fill:#743d1c; stroke:none;" d="M350 473L351 474L350 473M373 473L374 474L373 473z"/>
<path style="fill:#9d6c37; stroke:none;" d="M374 473L375 474L374 473M398 473L399 474L398 473z"/>
<path style="fill:#743d1c; stroke:none;" d="M159 474L160 475L159 474z"/>
<path style="fill:#9d6c37; stroke:none;" d="M160 474L161 475L160 474z"/>
<path style="fill:#743d1c; stroke:none;" d="M191 474L192 475L191 474z"/>
<path style="fill:#9d6c37; stroke:none;" d="M192 474L193 475L192 474z"/>
<path style="fill:#743d1c; stroke:none;" d="M343 474L344 475L343 474z"/>
<path style="fill:#9d6c37; stroke:none;" d="M344 474L345 475L344 474M376 474L377 475L376 474z"/>
<path style="fill:#743d1c; stroke:none;" d="M162 475L163 476L162 475z"/>
<path style="fill:#9d6c37; stroke:none;" d="M163 475L164 476L163 475z"/>
<path style="fill:#743d1c; stroke:none;" d="M194 475L195 476L194 475z"/>
<path style="fill:#9d6c37; stroke:none;" d="M195 475L196 476L195 475z"/>
<path style="fill:#743d1c; stroke:none;" d="M346.667 475.333L347.333 475.667L346.667 475.333M378.667 475.333L379.333 475.667L378.667 475.333z"/>
<path style="fill:#9d6c37; stroke:none;" d="M380 475L381 476L380 475M397 475L398 476L397 475z"/>
<path style="fill:#743d1c; stroke:none;" d="M198 476L199 477L198 476z"/>
<path style="fill:#9d6c37; stroke:none;" d="M199.667 476.333L200.333 476.667L199.667 476.333z"/>
<path style="fill:#743d1c; stroke:none;" d="M382.667 476.333L383.333 476.667L382.667 476.333z"/>
<path style="fill:#9d6c37; stroke:none;" d="M384 476L385 477L384 476z"/>
<path style="fill:#743d1c; stroke:none;" d="M204 477L204 478L210 478L204 477M388 477L388 478L397 478L388 477z"/>
<path style="fill:#53575b; stroke:none;" d="M312 502L334 502L339 483C324.435 476.955 314.001 487.15 312 502M344 502L366 502C372.223 502 388.43 504.906 393.397 500.972C395.971 498.933 395.971 490.067 393.397 488.028C390.479 485.717 383.65 486.8 380 485.844C374.564 484.421 368.512 480.393 363 480.028C351.331 479.254 346.267 493.26 344 502M130 502L150.397 500.972L156 484C142.694 476.657 130.574 488.83 130 502M162 502L195 502L207.566 500.397L210 487C191.726 487 164.402 472.626 162 502z"/>
<path style="fill:#743d1c; stroke:none;" d="M171 484L172 485L171 484M193 485L194 486L193 485M318 486L319 487L318 486M382 486L383 487L382 486M312 498L313 499L312 498z"/>
</svg>
