<?xml version="1.0" standalone="yes"?>
<svg xmlns="http://www.w3.org/2000/svg" width="512" height="512">
<path style="fill:#010101; stroke:none;" d="M0 0L0 512L229 512C225.217 504.472 227.442 500.514 230 493C225.724 493.736 222.008 495.534 218 497.135C211.321 499.802 199.169 495.762 206.434 487.213C213.191 479.263 229.259 480.833 234.972 472.502C239.283 466.216 236 448.543 236 441C236 438.176 236.688 434.095 234.972 431.637C231.722 426.981 222.639 424.073 218 420.622C209.433 414.247 201.995 405.688 192 401.465C171.18 392.668 150.611 392.253 132 377.485C123.72 370.916 116.197 362.801 110.356 354C84.8261 315.539 95.3756 270.787 108.67 230C114.065 213.447 121.665 196.326 124 179C117.914 181.534 112.584 184.17 106 185.246C101.148 186.039 96.7932 185.93 92 184.761C88.4953 183.906 84.9473 182.543 82.0401 180.362C65.7634 168.149 81.565 151.443 89.2508 140C92.1917 135.622 96.9351 128.256 93.3927 123.059C89.4259 117.24 83.3964 120.881 78 121.905C66.2927 124.127 37.4197 122.303 39.1127 105C39.8867 97.0882 48.0102 94.4001 54 91C66.5189 83.8937 81.3765 80.1453 85.8241 65C88.1757 56.9922 76.7592 50.4631 72.0154 45.9105C58.7824 33.2107 57.264 7.159 78 1L54 0L0 0z"/>
<path style="fill:#d03333; stroke:none;" d="M87 63C103.025 50.0804 117.701 37.9291 140 41.4391C149.854 42.9901 159.173 47.5686 167 53.6682C170.092 56.0776 173.737 60.6978 177.816 57.6235C187.234 50.5247 191.375 31.2512 180.957 23.5139C172.721 17.3977 165.293 26.4437 158.225 23.5972C155.127 22.3496 153.936 17.5376 152.061 15.0401C147.525 8.99887 140.46 6.20349 133 7.18826C126.234 8.08139 121.468 17.7936 115.925 17.7932C112.26 17.793 109.571 12.4154 107.536 10.0146C103.568 5.33218 98.16 1.41086 92 0.328705C68.271 -3.83978 54.61 18.4838 65.8002 39C71.0754 48.6718 81.9079 53.025 87 63z"/>
<path style="fill:#010101; stroke:none;" d="M93 0L93 1C102.412 3.76968 106.896 16.3518 115 18.2485C120.736 19.5909 127.693 7.54343 135 7.1088C141.928 6.69672 148.068 10.5764 152.061 16.0146C153.851 18.4526 155.098 23.1094 158.225 24.1497C167.754 27.3207 174.346 15.4592 183.606 27.0185C189.057 33.8233 187.011 43.0458 182.906 50C181.102 53.0562 176.465 57.1472 177.302 61C179.163 69.5572 190.233 79.563 194.219 88C209.575 120.504 221.777 154.78 254 174.572C289.55 196.407 330.968 186.007 364 164.782C374.69 157.914 384.809 149.73 394 140.961C396.953 138.143 401.171 132.225 405.956 133.662C411.864 135.437 411.65 144.136 412.282 149C414.314 164.647 412.636 180.94 407.975 196C406.405 201.069 399.914 211.904 406.228 215.682C418.844 223.23 443.842 216.165 456 210.688C460.949 208.459 470.196 201.672 473.218 210.044C475.742 217.034 470.224 230.259 467.999 237C459.562 262.562 447.594 284.8 427 302.711C420.53 308.338 405.068 313.149 401.032 320.212C397.664 326.107 404.608 328.088 409 327.957C414.999 327.778 442.404 319.178 439.239 332C437.958 337.191 432.941 342.067 429.572 346C415.203 362.771 397.142 368.778 378 377.782C359.711 386.384 351.682 406.316 336 418.486C329.705 423.371 315.2 427.108 311.028 433.418C309.195 436.191 310 440.847 310 444C310 452.695 306.669 469.997 313.148 476.572C318.346 481.846 337.435 491.99 334.377 500.981C329.65 514.878 311.442 494.404 306 491L296 512L512 512L512 0L93 0z"/>
<path style="fill:#d35b5b; stroke:none;" d="M124.667 41.3333L125.333 41.6667L124.667 41.3333z"/>
<path style="fill:#ababab; stroke:none;" d="M126 41L126 42L129 42L126 41z"/>
<path style="fill:#e4e4e4; stroke:none;" d="M129 41.429C111.922 43.7921 96.155 50.8368 85.7608 65.1698C74.9523 80.074 78.8578 106.602 90.3789 119.945C102.498 133.982 131.738 134.051 128.714 159C120.92 223.303 69.3073 289.283 109.065 353C114.626 361.912 121.932 369.954 130 376.676C140.209 385.18 152.274 390.981 165 394.572C175.836 397.629 187.306 398.46 197 404.7C206.562 410.855 214.242 419.442 224 425.385C242.763 436.813 268.425 441.235 290 437.675C310.629 434.271 330.907 425.773 345.83 410.83C356.334 400.312 362.335 386.386 376 379.262C395.3 369.201 414.657 364.387 429.572 347C433.242 342.721 439.22 336.955 439.717 331.001C440.723 318.945 416.518 327.297 410 327.826C406.241 328.132 398.48 326.706 401.086 321.101C404.462 313.843 421.656 308.228 428 302.711C448.696 284.711 460.441 261.736 468.656 236C470.789 229.315 476.097 215.929 473.254 209.109C469.928 201.131 459.811 208.521 455 210.688C443.799 215.734 429.313 219.187 417 217.715C413.138 217.253 407.278 217.239 404.785 213.721C401.594 209.216 407.232 199.699 408.573 195C412.753 180.35 414.486 164.153 412.424 149C411.81 144.494 412.25 136.724 407.772 134.029C402.87 131.079 398.219 135.88 395 139.001C386.043 147.683 376.314 155.78 366 162.806C337.746 182.052 300.218 195.419 267 180.691C219.095 159.452 212.81 113.55 187.135 74C175.73 56.4313 151.243 38.3512 129 41.429z"/>
<path style="fill:#ababab; stroke:none;" d="M136 41L136 42L139 42L136 41z"/>
<path style="fill:#d35b5b; stroke:none;" d="M139.667 41.3333L140.333 41.6667L139.667 41.3333M119.667 42.3333L120.333 42.6667L119.667 42.3333z"/>
<path style="fill:#ababab; stroke:none;" d="M121.667 42.3333L122.333 42.6667L121.667 42.3333M143 42L144 43L143 42z"/>
<path style="fill:#d35b5b; stroke:none;" d="M144.667 42.3333L145.333 42.6667L144.667 42.3333M116 43L117 44L116 43z"/>
<path style="fill:#ababab; stroke:none;" d="M117 43L118 44L117 43M147 43L148 44L147 43z"/>
<path style="fill:#d35b5b; stroke:none;" d="M148 43L149 44L148 43M113 44L114 45L113 44z"/>
<path style="fill:#ababab; stroke:none;" d="M114 44L115 45L114 44M150 44L151 45L150 44z"/>
<path style="fill:#d35b5b; stroke:none;" d="M151 44L152 45L151 44M110 45L111 46L110 45z"/>
<path style="fill:#ababab; stroke:none;" d="M111 45L112 46L111 45M152 45L153 46L152 45z"/>
<path style="fill:#d35b5b; stroke:none;" d="M153 45L154 46L153 45M108 46L109 47L108 46z"/>
<path style="fill:#ababab; stroke:none;" d="M109 46L110 47L109 46z"/>
<path style="fill:#d35b5b; stroke:none;" d="M155 46L156 47L155 46M106 47L107 48L106 47M157 47L158 48L157 47M104 48L105 49L104 48z"/>
<path style="fill:#ababab; stroke:none;" d="M158 48L159 49L158 48z"/>
<path style="fill:#d35b5b; stroke:none;" d="M159 48L160 49L159 48M102 49L103 50L102 49z"/>
<path style="fill:#ababab; stroke:none;" d="M103 49L104 50L103 49M160 49L161 50L160 49z"/>
<path style="fill:#d35b5b; stroke:none;" d="M161 49L162 50L161 49z"/>
<path style="fill:#ababab; stroke:none;" d="M101 50L102 51L101 50z"/>
<path style="fill:#d35b5b; stroke:none;" d="M162 50L163 51L162 50M99 51L100 52L99 51z"/>
<path style="fill:#ababab; stroke:none;" d="M163 51L164 52L163 51z"/>
<path style="fill:#d35b5b; stroke:none;" d="M164 51L165 52L164 51M79 52L80 53L79 52M98 52L99 53L98 52M165 52L166 53L165 52M80 53L81 54L80 53z"/>
<path style="fill:#ababab; stroke:none;" d="M97 53L98 54L97 53M166 53L167 54L166 53z"/>
<path style="fill:#d35b5b; stroke:none;" d="M95 54L96 55L95 54M168 54L169 55L168 54M94 55L95 56L94 55M169 55L170 56L169 55M93 56L94 57L93 56M170 56L171 57L170 56M92 57L93 58L92 57z"/>
<path style="fill:#ababab; stroke:none;" d="M171 57L172 58L171 57z"/>
<path style="fill:#d35b5b; stroke:none;" d="M91 58L92 59L91 58z"/>
<path style="fill:#ababab; stroke:none;" d="M172 58L173 59L172 58z"/>
<path style="fill:#d35b5b; stroke:none;" d="M85 59L86 60L85 59M90 59L91 60L90 59z"/>
<path style="fill:#ababab; stroke:none;" d="M173 59L174 60L173 59z"/>
<path style="fill:#d35b5b; stroke:none;" d="M86 61L87 62L86 61z"/>
<path style="fill:#ababab; stroke:none;" d="M88 62L89 63L88 62M125 72L130 69L125 72z"/>
<path style="fill:#d35b5b; stroke:none;" d="M130 68L130 69L134 69L130 68z"/>
<path style="fill:#ababab; stroke:none;" d="M134 68L135 69L134 68z"/>
<path style="fill:#010101; stroke:none;" d="M128.228 70.0285C121.629 74.0168 128.281 84.527 134.772 80.8055C141.784 76.7851 135.26 65.7795 128.228 70.0285z"/>
<path style="fill:#d35b5b; stroke:none;" d="M135 69L138 72L135 69z"/>
<path style="fill:#ababab; stroke:none;" d="M136 69L137 70L136 69M137 70L138 71L137 70z"/>
<path style="fill:#d35b5b; stroke:none;" d="M125 72L126 73L125 72z"/>
<path style="fill:#ababab; stroke:none;" d="M138 72L139 73L138 72z"/>
<path style="fill:#d35b5b; stroke:none;" d="M138 73L138 77L139 77L138 73z"/>
<path style="fill:#ababab; stroke:none;" d="M124 74L124 77L125 77L124 74z"/>
<path style="fill:#d03333; stroke:none;" d="M89 119C82.0616 104.33 76.9136 93.5873 81 77C70.5566 80.0085 60.4804 86.8799 51 92.1389C46.8561 94.4376 41.6213 96.2428 39.7423 101.015C36.0021 110.515 42.3667 117.404 51 119.845C64.3483 123.62 75.883 123.267 89 119z"/>
<path style="fill:#d35b5b; stroke:none;" d="M125 77L126 78L125 77z"/>
<path style="fill:#ababab; stroke:none;" d="M138 77L139 78L138 77z"/>
<path style="fill:#d35b5b; stroke:none;" d="M80.3333 78.6667L80.6667 79.3333L80.3333 78.6667z"/>
<path style="fill:#ababab; stroke:none;" d="M125 78L126 79L125 78z"/>
<path style="fill:#d35b5b; stroke:none;" d="M137 78L138 79L137 78M126 79L127 80L126 79z"/>
<path style="fill:#ababab; stroke:none;" d="M137 79L138 80L137 79M80.3333 80.6667L80.6667 81.3333L80.3333 80.6667z"/>
<path style="fill:#d35b5b; stroke:none;" d="M127 80L128 81L127 80z"/>
<path style="fill:#ababab; stroke:none;" d="M136 80L137 81L136 80M128 81L129 82L128 81z"/>
<path style="fill:#d35b5b; stroke:none;" d="M129 81L130 82L129 81M134 81L135 82L134 81z"/>
<path style="fill:#ababab; stroke:none;" d="M135 81L136 82L135 81M130 82L130 83L133 83L130 82z"/>
<path style="fill:#d35b5b; stroke:none;" d="M79 84L79 96L80 96L79 84z"/>
<path style="fill:#ababab; stroke:none;" d="M80.3333 98.6667L80.6667 99.3333L80.3333 98.6667z"/>
<path style="fill:#d35b5b; stroke:none;" d="M80 100L81 101L80 100z"/>
<path style="fill:#ababab; stroke:none;" d="M81 103L82 104L81 103z"/>
<path style="fill:#d35b5b; stroke:none;" d="M81 104L82 105L81 104z"/>
<path style="fill:#ababab; stroke:none;" d="M82 106L83 107L82 106M83 108L84 109L83 108z"/>
<path style="fill:#d35b5b; stroke:none;" d="M83 109L84 110L83 109z"/>
<path style="fill:#ababab; stroke:none;" d="M84 110L85 111L84 110z"/>
<path style="fill:#d35b5b; stroke:none;" d="M84 111L85 112L84 111z"/>
<path style="fill:#ababab; stroke:none;" d="M85 112L86 113L85 112z"/>
<path style="fill:#d35b5b; stroke:none;" d="M86 114L87 115L86 114z"/>
<path style="fill:#ababab; stroke:none;" d="M87 115L88 116L87 115z"/>
<path style="fill:#d35b5b; stroke:none;" d="M88 117L89 118L88 117z"/>
<path style="fill:#d03333; stroke:none;" d="M95 124C93.4697 141.418 73.5654 150.81 75.0941 169C76.801 189.31 109.258 189.479 121.867 180.034C128.441 175.109 128.327 160.477 127.96 153C127.612 145.902 123.573 140.762 118 136.61C111.199 131.542 102.667 127.579 95 124z"/>
<path style="fill:#d35b5b; stroke:none;" d="M96 124L97 125L96 124z"/>
<path style="fill:#ababab; stroke:none;" d="M98 125L99 126L98 125z"/>
<path style="fill:#d35b5b; stroke:none;" d="M99 126L100 127L99 126z"/>
<path style="fill:#ababab; stroke:none;" d="M100 126L101 127L100 126z"/>
<path style="fill:#d35b5b; stroke:none;" d="M101 127L102 128L101 127M103 128L104 129L103 128M105 129L106 130L105 129M107 130L108 131L107 130M109 131L110 132L109 131M111 132L112 133L111 132z"/>
<path style="fill:#ababab; stroke:none;" d="M113 133L114 134L113 133z"/>
<path style="fill:#d35b5b; stroke:none;" d="M114 134L115 135L114 134z"/>
<path style="fill:#ababab; stroke:none;" d="M115 134L116 135L115 134z"/>
<path style="fill:#d35b5b; stroke:none;" d="M116 135L117 136L116 135z"/>
<path style="fill:#ababab; stroke:none;" d="M118 136L119 137L118 136z"/>
<path style="fill:#d35b5b; stroke:none;" d="M119 137L120 138L119 137M120 138L121 139L120 138M121 139L122 140L121 139M122 140L123 141L122 140M123 141L124 142L123 141M124 142L125 143L124 142z"/>
<path style="fill:#ababab; stroke:none;" d="M125 143L126 144L125 143z"/>
<path style="fill:#d35b5b; stroke:none;" d="M126 145L127 146L126 145z"/>
<path style="fill:#ababab; stroke:none;" d="M127 147L128 148L127 147z"/>
<path style="fill:#d35b5b; stroke:none;" d="M82 148L83 149L82 148M127 148L128 149L127 148z"/>
<path style="fill:#ababab; stroke:none;" d="M128.333 150.667L128.667 151.333L128.333 150.667z"/>
<path style="fill:#d35b5b; stroke:none;" d="M128 152L128 159L129 159L128 152z"/>
<path style="fill:#ababab; stroke:none;" d="M128.333 159.667L128.667 160.333L128.333 159.667z"/>
<path style="fill:#d35b5b; stroke:none;" d="M127.333 164.667L127.667 165.333L127.333 164.667z"/>
<path style="fill:#ababab; stroke:none;" d="M127 166L128 167L127 166z"/>
<path style="fill:#d35b5b; stroke:none;" d="M126.333 169.667L126.667 170.333L126.333 169.667z"/>
<path style="fill:#ababab; stroke:none;" d="M126.333 171.667L126.667 172.333L126.333 171.667z"/>
<path style="fill:#d35b5b; stroke:none;" d="M125 175L126 176L125 175z"/>
<path style="fill:#ababab; stroke:none;" d="M125 176L126 177L125 176M221 207.439C213.891 208.549 207.167 210.71 201 214.464C159.346 239.822 178.46 291.34 209 316.384C222.534 327.482 238.976 336.368 256 340.625C261.348 341.962 268.376 344.245 273.89 342.682C279.987 340.954 274.245 332.393 281.023 331.618C286.569 330.984 293.377 334.26 299 334.831C313.242 336.278 326.939 335.784 341 332.789C343.015 332.36 345.033 331.896 346.999 331.275C367.989 324.64 328.135 312.457 333.752 303.303C336.337 299.089 346.665 297.897 351 295.73C363.018 289.721 387.578 270.231 384.589 254.059C383.817 249.885 379.352 249.914 376 250.286C364.863 251.524 353.939 250.632 343 248.113C301.699 238.603 265.891 200.428 221 207.439z"/>
<path style="fill:#d03333; stroke:none;" d="M236 431L236 459C236 462.778 237.002 468.4 234.972 471.775C230.183 479.738 214.19 479.571 207.228 485.638C202.701 489.584 203.441 497.694 210.04 498.756C216.617 499.815 223.81 494.693 230 493C228.13 496.952 225.529 501.446 226.244 505.985C227.135 511.641 234.242 513.734 238.606 510.258C243.311 506.511 245.724 496.474 248 491C253.766 496.139 264.017 509.134 272.811 505.258C279.116 502.478 279.788 495.349 288 493C286.352 497.017 283.648 501.471 284.269 505.985C285.035 511.559 292.327 513.844 296.61 510.397C301.494 506.464 304.038 496.763 306 491C311.389 495.708 317.963 503.479 325 505.482C331.717 507.394 337.198 501.446 333.972 495.001C329.155 485.374 314.393 482.012 310.603 471.985C306.664 461.562 310 444.144 310 433C306.105 433.573 296.548 434.536 294.603 438.43C289.98 447.69 299.285 464.334 292.397 472.582C289.183 476.43 281.512 478.081 277 480C273.586 481.452 268.842 484.577 265 483.443C241.161 476.407 257.631 452.186 250.397 437.419C248.456 433.458 239.872 432.26 236 431z"/>
<path style="fill:#d35b5b; stroke:none;" d="M237 431L238 432L237 431z"/>
<path style="fill:#ababab; stroke:none;" d="M238 431L239 432L238 431z"/>
<path style="fill:#d35b5b; stroke:none;" d="M240 432L241 433L240 432z"/>
<path style="fill:#ababab; stroke:none;" d="M241 432L242 433L241 432M308 432L309 433L308 432z"/>
<path style="fill:#d35b5b; stroke:none;" d="M243 433L244 434L243 433z"/>
<path style="fill:#ababab; stroke:none;" d="M244 433L245 434L244 433M305 433L306 434L305 433z"/>
<path style="fill:#d35b5b; stroke:none;" d="M306 433L307 434L306 433M246 434L247 435L246 434z"/>
<path style="fill:#ababab; stroke:none;" d="M247 434L248 435L247 434M302 434L303 435L302 434z"/>
<path style="fill:#d35b5b; stroke:none;" d="M303 434L304 435L303 434M249 435L250 436L249 435z"/>
<path style="fill:#ababab; stroke:none;" d="M250 435L251 436L250 435M298 435L299 436L298 435z"/>
<path style="fill:#d35b5b; stroke:none;" d="M299 435L300 436L299 435z"/>
<path style="fill:#010101; stroke:none;" d="M251 436C251 445.921 247.479 464.11 252.028 472.985C259.409 487.387 270.453 483.249 282 478.281C285.308 476.858 290.878 475.747 292.972 472.582C297.716 465.41 294 445.559 294 437C279.118 438.881 265.796 438.788 251 436z"/>
<path style="fill:#ababab; stroke:none;" d="M294 436L295 437L294 436z"/>
<path style="fill:#d35b5b; stroke:none;" d="M295 436L296 437L295 436M232 474L233 475L232 474z"/>
<path style="fill:#010101; stroke:none;" d="M248 491L237 511L237 512L288 512L288 511C281.726 505.458 286.091 499.677 288 493C278.657 494.66 279.053 502.503 271.956 505.253C264.02 508.328 253.9 495.034 248 491z"/>
<path style="fill:#d35b5b; stroke:none;" d="M252 494L253 495L252 494M217 497L218 498L217 497M244 498L245 499L244 498M275 503L276 504L275 503M322 504L323 505L322 504M331 505L332 506L331 505M229 511L230 512L229 511z"/>
</svg>
