<?xml version="1.0" standalone="yes"?>
<svg xmlns="http://www.w3.org/2000/svg" width="512" height="512">
<path style="fill:#010101; stroke:none;" d="M0 0L0 512L512 512L512 0L0 0z"/>
<path style="fill:#753d22; stroke:none;" d="M250 19C253.838 27.2428 261.353 33.7529 265.68 42C275.228 60.1974 274.164 80.0506 268 99L285 99C290.747 74.1571 292.773 50.524 273.907 30C267.428 22.9525 260.177 14.1094 250 19M248 20L247 22L248 20z"/>
<path style="fill:#a1532d; stroke:none;" d="M249 20C222.596 41.5016 215.87 74.5198 230.32 105C234.044 112.854 239.128 120.145 244.424 127C246.82 130.102 250.369 133.707 249.512 137.999C246.049 155.343 230.134 136.75 226 131C212.039 137.954 200.473 152.218 192.004 165C151.707 225.821 172.29 313.822 238 347.742C251.407 354.662 265.959 359.842 281 361.714C308.255 365.105 331.289 361.068 349 387C374.995 368.689 396.404 341.52 420 320.17C427.389 313.484 444.466 302.428 447.759 292.999C449.162 288.983 444.905 282.569 443.219 279C437.557 267.012 432.13 254.879 426.248 243C402.903 195.857 387.667 133.643 333 112.468C326.337 109.887 304.838 103.922 298.966 109.603C291.321 117 287.004 130.434 279.996 138.985C276.547 143.194 271.685 147.986 266.055 144.257C261.987 141.563 260.951 137.211 263.239 133C269.717 121.078 279.482 112.269 284 99L268 99C279.115 73.887 272.173 36.3683 249 20z"/>
<path style="fill:#753d22; stroke:none;" d="M242 25L243 26L242 25M241 26L242 27L241 26M240 27L241 28L240 27M237 31L238 32L237 31M236 32L237 33L236 32M235 33L236 34L235 33M234 35L235 36L234 35M233 36L234 37L233 36M232 38L233 39L232 38M231 39L232 40L231 39M230 41L231 42L230 41M135 43L135 44L139 44L135 43M229 43L230 44L229 43z"/>
<path style="fill:#5f7a88; stroke:none;" d="M135 44C139.365 51.0797 149.736 64.5399 142.682 72.8912C138.222 78.1717 131.867 76.1536 126 74.9992C110.759 72.0004 95.1523 71.813 80 69C83.9154 74.1198 89.2816 77.9551 93.3812 83C98.2017 88.9321 109.405 107.656 94.9961 110.473C89.1858 111.609 80.7896 107.177 75 106.004C63.7019 103.714 52.4646 104 41 104L41 105C54.6035 112.751 68.5594 127.441 68.9853 144C69.1317 149.691 69.1266 156.635 63.892 160.258C55.5535 166.028 35.2842 162.091 25 164C31.659 173.462 40.6488 180.859 42.5208 193C43.6938 200.607 38.8153 209.689 36.8843 217C31.9161 235.808 25.5491 255.534 24 275L25 275C53.0077 222.377 97.6584 171.062 150 141.862C162.002 135.166 174.825 129.646 188 125.721C197.59 122.863 207.305 122.162 216 117C214.704 109.729 210.453 103.144 208.428 96C204.784 83.1396 204.335 70.1766 206 57C182.104 51.4717 159.9 44 135 44z"/>
<path style="fill:#753d22; stroke:none;" d="M148 44L148 45L151 45L148 44M341 44L341 45L344 45L341 44z"/>
<path style="fill:#5f7a88; stroke:none;" d="M304 50C307.666 63.0407 308.256 76.7853 305 90C325.594 91.6253 346.678 96.4639 365 106.309C374.128 111.215 383.524 121.353 393 124.615C396.922 125.965 402.2 122.887 406 121.884C414.285 119.698 423.558 117.99 432 120C428.142 100.051 401.695 88.662 384 85C386.504 76.3663 390.858 71.2309 399 67.2592C404.744 64.4574 414.782 63.2015 414.782 55.0046C414.782 46.0234 395.545 45.6143 389 45.0857C359.773 42.7251 332.857 46.2733 304 50z"/>
<path style="fill:#753d22; stroke:none;" d="M382.667 44.3333L383.333 44.6667L382.667 44.3333M157.667 45.3333L158.333 45.6667L157.667 45.3333M228 45L229 46L228 45M331.667 45.3333L332.333 45.6667L331.667 45.3333M392.667 45.3333L393.333 45.6667L392.667 45.3333M163.667 46.3333L164.333 46.6667L163.667 46.3333M323.667 46.3333L324.333 46.6667L323.667 46.3333M398.667 46.3333L399.333 46.6667L398.667 46.3333M137 47L138 48L137 47M169.667 47.3333L170.333 47.6667L169.667 47.3333M227 47L228 48L227 47M317.667 47.3333L318.333 47.6667L317.667 47.3333M404.667 47.3333L405.333 47.6667L404.667 47.3333M174 48L175 49L174 48M311.667 48.3333L312.333 48.6667L311.667 48.3333M409.667 48.3333L410.333 48.6667L409.667 48.3333M179 49L180 50L179 49M226.333 49.6667L226.667 50.3333L226.333 49.6667M307 49L308 50L307 49M413 49L414 50L413 49M139 50L140 51L139 50M183 50L184 51L183 50M414 50C416.389 63.5298 403.043 63.9172 394.001 69.3518C387.899 73.0188 385.405 78.2845 384 85L403 91C396.706 73.7245 414.057 58.7453 430 56C426.767 51.6947 419.118 50.6898 414 50M187 51L188 52L187 51M304 51L305 52L304 51M190 52L191 53L190 52M225 52L226 53L225 52M194 53L195 54L194 53M197 54L198 55L197 54M200 55L201 56L200 55M224.333 55.6667L224.667 56.3333L224.333 55.6667M305 55L306 56L305 55M142 56L143 57L142 56M203 56L204 57L203 56M143 59L144 60L143 59M223.333 59.6667L223.667 60.3333L223.333 59.6667M205 60L205 63L206 63L205 60M306.333 60.6667L306.667 61.3333L306.333 60.6667M144 63L145 64L144 63M222 63L222 67L223 67L222 63M82 69L82 70L86 70L82 69M95 70L95 71L98 71L95 70M104.667 71.3333L105.333 71.6667L104.667 71.3333M144 71L145 72L144 71M111.667 72.3333L112.333 72.6667L111.667 72.3333M84 73L85 74L84 73M118 73L119 74L118 73M85 74L86 75L85 74M123.667 74.3333L124.333 74.6667L123.667 74.3333M86 75L87 76L86 75M128.667 75.3333L129.333 75.6667L128.667 75.3333M87 76L88 77L87 76M134 76L135 77L134 76M138 76L139 77L138 76M88 77L89 78L88 77M222 77L222 81L223 81L222 77M90 79L91 80L90 79M91 80L92 81L91 80M205.333 80.6667L205.667 81.3333L205.333 80.6667M92 81L93 82L92 81M306.333 81.6667L306.667 82.3333L306.333 81.6667M223.333 84.6667L223.667 85.3333L223.333 84.6667M95 85L96 86L95 85M96 86L97 87L96 86M206 87L207 88L206 87M305.333 87.6667L305.667 88.3333L305.333 87.6667M224.333 88.6667L224.667 89.3333L224.333 88.6667M306 90L306 91L310 91L306 90M99 91L100 92L99 91M317.667 91.3333L318.333 91.6667L317.667 91.3333M403 91L404 92L403 91M207 92L208 93L207 92M225.333 92.6667L225.667 93.3333L225.333 92.6667M324 92L325 93L324 92M329 93L330 94L329 93M406 93L407 94L406 93M333 94L334 95L333 94M409.667 94.3333L410.333 94.6667L409.667 94.3333M226 95L227 96L226 95M337 95L338 96L337 95M411 95L411 96C419.702 101.443 428.814 110 432 120L449 123C445.458 107.563 425.563 97.1507 411 95M101 96L102 97L101 96M208 96L209 97L208 96M340 96L341 97L340 96M227 98L228 99L227 98M209 99L210 100L209 99M349 99L350 100L349 99M228 100L229 101L228 100M283.333 100.667L283.667 101.333L283.333 100.667M352 100L353 101L352 100M102.333 101.667L102.667 102.333L102.333 101.667M354 101L355 102L354 101M210 102L211 103L210 102M49 103L49 104L55 104L49 103M229 103L230 104L229 103M282 103L283 104L282 103M359 103L360 104L359 103M65.6667 104.333L66.3333 104.667L65.6667 104.333M361 104L362 105L361 104M42 105L43 106L42 105M72.6667 105.333L73.3333 105.667L72.6667 105.333M230 105L231 106L230 105M281 105L282 106L281 105M363 105L364 106L363 105M77 106L78 107L77 106M365 106L366 107L365 106M45 107L46 108L45 107M81 107L82 108L81 107M212 107L213 108L212 107M231 107L232 108L231 107M280 107L281 108L280 107M299 107L299 108L307 108L299 107M367 107L368 108L367 107M313 108L313 109L317 109L313 108M88 109L89 110L88 109M98 109L99 110L98 109M213 109L214 110L213 109M232 109L233 110L232 109M279 109L280 110L279 109M298 109L299 110L298 109M320 109L320 110L323 110L320 109M49 110L50 111L49 110M91 110L92 111L91 110M96 110L97 111L96 110M233 110L234 111L233 110M325.667 110.333L326.333 110.667L325.667 110.333M372 110L373 111L372 110M214 111L215 112L214 111M297 111L298 112L297 111M330 111L331 112L330 111M374 111L375 112L374 111M234 112L235 113L234 112M277 112L278 113L277 112M333.667 112.333L334.333 112.667L333.667 112.333M215 113L216 114L215 113M296 113L297 114L296 113M335 113L335 114C388.108 138.825 402.412 195.865 426.248 244C431.969 255.554 437.126 267.392 442.742 279C444.474 282.581 448.689 288.968 447.006 292.999C443.339 301.783 428.195 312.174 421 318.424C404.095 333.11 387.931 349.255 372 364.996C363.891 373.009 345.759 382.457 353 395C361.07 389.952 366.999 382.505 374 376.17C394.039 358.038 412.603 338.143 433 320.424C440.255 314.122 446.791 307.073 454 300.715C457.08 297.998 462.266 294.245 463.184 290C464.131 285.62 459.569 279.787 457.781 276C452.292 264.379 446.564 252.779 441.424 241C420.233 192.434 396.466 122.078 335 113M377 113L378 114L377 113M235 114L236 115L235 114M276 114L277 115L276 114M216 115L217 116L216 115M236 115L237 116L236 115M295 115L296 116L295 115M380 115L381 116L380 115M214 117L215 118L214 117M237 117L238 118L237 117M274 117L275 118L274 117M294 117L295 118L294 117M383 117L384 118L383 117M293 119L294 120L293 119M419 119L419 120L431 120L419 119M59 120L60 121L59 120M210 120L211 121L210 120M239 120L240 121L239 120M272 120L273 121L272 120M387 120L388 121L387 120M411.667 120.333L412.333 120.667L411.667 120.333M60 121L61 122L60 121M206.667 121.333L207.333 121.667L206.667 121.333M240 121L241 122L240 121M292 121L293 122L292 121M388 121L389 122L388 121M407 121L408 122L407 121M200.667 122.333L201.333 122.667L200.667 122.333M291 122L292 123L291 122M403 122L404 123L403 122M196 123L197 124L196 123M270 123L271 124L270 123M400 123L401 124L400 123M62 124L63 125L62 124M192 124L193 125L192 124M242 124L243 125L242 124M269 124L270 125L269 124M290 124L291 125L290 124M397 124L398 125L397 124M188 125L189 126L188 125M243 125L244 126L243 125M268 125L269 126L268 125M393 125L394 126L393 125M185 126L186 127L185 126M289 126L290 127L289 126M182 127L183 128L182 127M267 127L268 128L267 127M288 127L289 128L288 127M179 128L180 129L179 128M245 128L246 129L245 128M266 128L267 129L266 128M176 129L177 130L176 129M246 129L247 130L246 129M265 129L266 130L265 129M287 129L288 130L287 129M247 130L248 131L247 130M264 130L265 131L264 130M286 130L287 131L286 130M171 131L172 132L171 131M224 131L225 132L224 131M66 132L67 133L66 132M166 133L167 134L166 133M221 133L222 134L221 133M227 133L228 134L227 133M249.333 133.667L249.667 134.333L249.333 133.667M262 133L263 134L262 133M284 133L285 134L284 133M164 134L165 135L164 134M220 134L221 135L220 134M228 134L229 135L228 134M283 134L284 135L283 134M67 135L68 136L67 135M162 135L163 136L162 135M261 136L261 139L262 139L261 136M216 137L217 138L216 137M230 137L231 138L230 137M281 137L282 138L281 137M68.3333 138.667L68.6667 139.333L68.3333 138.667M215 138L216 139L215 138M231 138L232 139L231 138M280 138L281 139L280 138M214 139L215 140L214 139M232 139L233 140L232 139M249 139L250 140L249 139M279 139L280 140L279 139M152 140L153 141L152 140M213 140L214 141L213 140M262.333 140.667L262.667 141.333L262.333 140.667M150 141L151 142L150 141M248 141L249 142L248 141M148 142L149 143L148 142M263 142L264 143L263 142M277 142L278 143L277 142M246 143L247 144L246 143M264 143L265 144L264 143M276 143L277 144L276 143M237 144L238 145L237 144M245 144L246 145L245 144M265 144L266 145L265 144M143 145L144 146L143 145M182.667 145.333L183.333 145.667L182.667 145.333z"/>
<path style="fill:#a1532d; stroke:none;" d="M184 145L185 146L184 145z"/>
<path style="fill:#753d22; stroke:none;" d="M239 145L239 146L243 146L239 145M267 145L268 146L267 145M272.667 145.333L273.333 145.667L272.667 145.333M180 146L181 147L180 146z"/>
<path style="fill:#a1532d; stroke:none;" d="M184 146C164.258 148.959 143.234 164.929 128 177.003C93.154 204.621 64.8099 239.983 42 278C33.1161 292.807 22.1674 309.893 18.5177 327C13.5459 350.304 17 377.254 17 401L17 469C17 475.809 14.6626 488.414 21.2245 492.91C25.8122 496.054 32.7514 495 38 495L76 495L220 495C234.333 495 248.667 495.069 263 494.999C268.587 494.972 275.469 494.504 277.106 487.985C278.976 480.543 274.68 469.402 273.2 462C269.035 441.175 263.838 420.583 258.626 400C256.771 392.674 255.275 378.334 250.146 372.702C244.758 366.787 231.102 363.835 224 359.55C208.176 350.004 194.479 337.641 183.235 323C154.137 285.111 145.526 234.202 161.079 189C166.549 173.1 175.805 160.386 184 146z"/>
<path style="fill:#753d22; stroke:none;" d="M177 147L178 148L177 147M183 147L184 148L183 147M138 148L139 149L138 148M175 148L176 149L175 148M182 148L183 149L182 148M173 149L174 150L173 149M135 150L136 151L135 150M170 150L171 151L170 150M203 150L204 151L203 150M168 151L169 152L168 151M180 151L181 152L180 151M202 151L203 152L202 151M132 152L133 153L132 152M166 152L167 153L166 152M179 152L180 153L179 152M201 152L202 153L201 152M68 153L69 154L68 153M164 153L165 154L164 153M200 153L201 154L200 153M129 154L130 155L129 154M162 154L163 155L162 154M178 154L179 155L178 154M199 154L200 155L199 154M160 155L161 156L160 155M177 155L178 156L177 155M158 156L159 157L158 156M198 156L199 157L198 156M125 157L126 158L125 157M157 157L158 158L157 157M176 157L177 158L176 157M197 157L198 158L197 157M155 158L156 159L155 158M175 158L176 159L175 158M196 158L197 159L196 158M153 159L154 160L153 159M64 160L65 161L64 160M121 160L122 161L121 160M151 160L152 161L151 160M174 160L175 161L174 160M62 161L63 162L62 161M150 161L151 162L150 161M194 161L195 162L194 161M34 162L34 163L37 163L34 162M148 162L149 163L148 162M173 162L174 163L173 162M193 162L194 163L193 162M26.6667 163.333L27.3333 163.667L26.6667 163.333M117 163L118 164L117 163M147 163L148 164L147 163M172 163L173 164L172 163M116 164L117 165L116 164M145 164L146 165L145 164M192 164L193 165L192 164M171 165L172 166L171 165M191 165L192 166L191 165M142 166L143 167L142 166M112 167L113 168L112 167M170 167L171 168L170 167M190 167L191 168L190 167M111 168L112 169L111 168M139 168L140 169L139 168M189 168L190 169L189 168M138 169L139 170L138 169M169 169L170 170L169 169M136 170L137 171L136 170M188 170L189 171L188 170M135 171L136 172L135 171M168 171L169 172L168 171M32 172L33 173L32 172M187 172L188 173L187 172M105 173L106 174L105 173M132 173L133 174L132 173M167 173L168 174L167 173M104 174L105 175L104 174M131 174L132 175L131 174M186 174L187 175L186 174M103 175L104 176L103 175M166 175L167 176L166 175M185 175L186 176L185 175M35 176L36 177L35 176M128 176L129 177L128 176M127 177L128 178L127 177M165.333 177.667L165.667 178.333L165.333 177.667M184.333 177.667L184.667 178.333L184.333 177.667M126 178L127 179L126 178M37 179L38 180L37 179M183.333 179.667L183.667 180.333L183.333 179.667M123 180L124 181L123 180M164 180L165 181L164 180M38 181L39 182L38 181M122 181L123 182L122 181M121 182L122 183L121 182M163 182L164 183L163 182M182 182L183 183L182 182M39 183L40 184L39 183M181 184L182 185L181 184M40 185L41 186L40 185M162 185L163 186L162 185M116 186L117 187L116 186M180 186L181 187L180 186M115 187L116 188L115 187M161.333 187.667L161.667 188.333L161.333 187.667M41 188L42 189L41 188M114 188L115 189L114 188M113 189L114 190L113 189M179 189L180 190L179 189M112 190L113 191L112 190M160.333 190.667L160.667 191.333L160.333 190.667M178 191L179 192L178 191M42 192L42 196L43 196L42 192M159 194L160 195L159 194M177 194L178 195L177 194M353 196L353 197L356 197L353 196z"/>
<path style="fill:#010101; stroke:none;" d="M356 196.478C321.912 200.351 328.992 251.064 363 246.815C394.506 242.879 387.202 192.933 356 196.478z"/>
<path style="fill:#753d22; stroke:none;" d="M360 196L360 197L364 197L360 196M42.3333 197.667L42.6667 198.333L42.3333 197.667M104 197L105 198L104 197M158.333 197.667L158.667 198.333L158.333 197.667M176 197L177 198L176 197M349.667 197.333L350.333 197.667L349.667 197.333M366 197L367 198L366 197M103 198L104 199L103 198M347 198L348 199L347 198M368.667 198.333L369.333 198.667L368.667 198.333M102 199L103 200L102 199M345 199L346 200L345 199M370.667 199.333L371.333 199.667L370.667 199.333M78 200L79 201L78 200M101 200L102 201L101 200M175.333 200.667L175.667 201.333L175.333 200.667M344 200L345 201L344 200M372 200L373 201L372 200M41 201L42 202L41 201M77 201L78 202L77 201M100 201L101 202L100 201M157.333 201.667L157.667 202.333L157.333 201.667M342 201L343 202L342 201M76 202L77 203L76 202M99 202L100 203L99 202M341 202L342 203L341 202M375 202L376 203L375 202M98 203L99 204L98 203M340 203L341 204L340 203M376 203L377 204L376 203M40 204L41 205L40 204M174.333 204.667L174.667 205.333L174.333 204.667M339 204L340 205L339 204M377 204L378 205L377 204M156 205L156 208L157 208L156 205M338 205L339 206L338 205M337 206L338 207L337 206M39 207L40 208L39 207M379 207L380 208L379 207M71 208L72 209L71 208M173 208L173 211L174 211L173 208M336 208L337 209L336 208M380 208L381 209L380 208M70 209L71 210L70 209M92 210L93 211L92 210M155 210L155 213L156 213L155 210M335 210L336 211L335 210M381 210L382 211L381 210M38 211L39 212L38 211M91 211L92 212L91 211M90 212L91 213L90 212M334 212L335 213L334 212M382.333 212.667L382.667 213.333L382.333 212.667M89 213L90 214L89 213M172 213L172 216L173 216L172 213M356 213L356 214L361 214L356 213M37 214L38 215L37 214M88 214L89 215L88 214z"/>
<path style="fill:#5f7a88; stroke:none;" d="M354.109 215.028C344.788 220.257 353.756 234.164 362.786 228.821C371.892 223.433 363.117 209.974 354.109 215.028z"/>
<path style="fill:#753d22; stroke:none;" d="M362 214L363 215L362 214M65 215L66 216L65 215M87 215L88 216L87 215M333.333 215.667L333.667 216.333L333.333 215.667M383 215L383 218L384 218L383 215M154 217L154 221L155 221L154 217M36 218L37 219L36 218M350 218L351 219L350 218M366 219L367 220L366 219M61 220L62 221L61 220M83 220L84 221L83 220M171 220L171 224L172 224L171 220M332 220L332 223L333 223L332 220M82 221L83 222L82 221M35 222L36 223L35 222M81 222L82 223L81 222M80 223L81 224L80 223M58 224L59 225L58 224M366 224L367 225L366 224M34 225L35 226L34 225M78 226L79 227L78 226M365 226L366 227L365 226M383.333 226.667L383.667 227.333L383.333 226.667M77 227L78 228L77 227M333.333 227.667L333.667 228.333L333.333 227.667M55 228L56 229L55 228M76 228L77 229L76 228M153 228L153 243L154 243L153 228M33 229L34 230L33 229M54 229L55 230L54 229M354 229L355 230L354 229M358 230L359 231L358 230M382 230L383 231L382 230M74 231L75 232L74 231M334 231L335 232L334 231M52 232L53 233L52 232M73 232L74 233L73 232M32 233L33 234L32 233M72 233L73 234L72 233M335 233L336 234L335 233M381 233L382 234L381 233M336 235L337 236L336 235M49 236L50 237L49 236M70 236L71 237L70 236M337 236L338 237L337 236M379 236L380 237L379 236M31 237L32 238L31 237M69 237L70 238L69 237M338 238L339 239L338 238M339 239L340 240L339 239M46 240L47 241L46 240M67 240L68 241L67 240M340 240L341 241L340 240M30 241L31 242L30 241M66 241L67 242L66 241M341 241L342 242L341 241M65 242L66 243L65 242M343 242L344 243L343 242M373 242L374 243L373 242M44 243L45 244L44 243M344 243L345 244L344 243M372 243L373 244L372 243M64 244L65 245L64 244M346 244L347 245L346 244M370 244L371 245L370 244M29.3333 245.667L29.6667 246.333L29.3333 245.667M63 245L64 246L63 245M348 245L349 246L348 245M368 245L369 246L368 245M42 246L43 247L42 246M350.667 246.333L351.333 246.667L350.667 246.333M365.667 246.333L366.333 246.667L365.667 246.333M171 247L171 251L172 251L171 247M354 247L354 248L362 248L354 247M61 248L62 249L61 248M40 249L41 250L40 249M60 249L61 250L60 249M28 250L29 251L28 250M154 250L154 254L155 254L154 250M59 251L60 252L59 251M38 252L39 253L38 252M58 252L59 253L58 252M27.3333 254.667L27.6667 255.333L27.3333 254.667M36 255L37 256L36 255M56 255L57 256L56 255M172 255L172 258L173 258L172 255M54 258L55 259L54 258M155 258L155 261L156 261L155 258M26.3333 259.667L26.6667 260.333L26.3333 259.667M53 259L54 260L53 259M33 260L34 261L33 260M173 260L173 263L174 263L173 260M52 261L53 262L52 261M51 262L52 263L51 262M31 263L32 264L31 263M156 263L156 266L157 266L156 263M25.3333 264.667L25.6667 265.333L25.3333 264.667M50 264L51 265L50 264M174.333 265.667L174.667 266.333L174.333 265.667M48 267L49 268L48 267M28 268L29 269L28 268M157.333 268.667L157.667 269.333L157.333 268.667M24.3333 269.667L24.6667 270.333L24.3333 269.667M175.333 269.667L175.667 270.333L175.333 269.667M46 270L47 271L46 270M45 272L46 273L45 272M158.333 272.667L158.667 273.333L158.333 272.667M176.333 272.667L176.667 273.333L176.333 272.667M25 273L26 274L25 273M44 273L45 274L44 273M23 275L23 277L25 275L23 275M43 275L44 276L43 275M159 276L160 277L159 276M177 276L178 277L177 276M42 277L43 278L42 277M41 278L42 279L41 278M178.333 278.667L178.667 279.333L178.333 278.667M160 279L161 280L160 279M40 280L41 281L40 280M179 281L180 282L179 281M39 282L40 283L39 282M161.333 282.667L161.667 283.333L161.333 282.667M38 283L39 284L38 283M180 284L181 285L180 284M37 285L38 286L37 285M162 285L163 286L162 285M181 286L182 287L181 286M36 287L37 288L36 287M163.333 287.667L163.667 288.333L163.333 287.667M182 288L183 289L182 288M35 289L36 290L35 289M164 290L165 291L164 290M183.333 290.667L183.667 291.333L183.333 290.667M34 291L35 292L34 291M184 292L185 293L184 292M165 293L166 294L165 293M32 294L33 295L32 294M185 294L186 295L185 294M166 295L167 296L166 295M31 296L32 297L31 296M186 296L187 297L186 296M167 297L168 298L167 297M30 298L31 299L30 298M187 298L188 299L187 298M168 299L169 300L168 299M29 300L30 301L29 300M188 300L189 301L188 300M169 301L170 302L169 301M189 301L190 302L189 301M28 302L29 303L28 302M170 303L171 304L170 303M190 303L191 304L190 303M27 304L28 305L27 304M171 305L172 306L171 305M191 305L192 306L191 305M26 306L27 307L26 306M192 306L193 307L192 306M172 307L173 308L172 307z"/>
<path style="fill:#f8dbae; stroke:none;" d="M471 307C455.006 322.994 438.347 338.33 422 353.961C408.18 367.175 394.431 380.888 380 393.424C375.262 397.54 363.96 405.523 362.881 412C362.177 416.229 367.264 421.252 370.04 423.816C379.218 432.292 392.63 436.508 405 434.561C416.678 432.723 427.482 426.348 438 421.258C459.562 410.825 488.474 403.693 494.486 377C498.382 359.706 489.924 345.123 482.781 330C479.267 322.56 476.543 313.139 471 307z"/>
<path style="fill:#753d22; stroke:none;" d="M472 307L473 308L472 307M25 308L26 309L25 308M173 308L174 309L173 308M194 309L195 310L194 309M473 309L474 310L473 309M24.3333 310.667L24.6667 311.333L24.3333 310.667M174 310L175 311L174 310M195 310L196 311L195 310z"/>
<path style="fill:#5f7a88; stroke:none;" d="M473 310L474 311L473 310z"/>
<path style="fill:#753d22; stroke:none;" d="M466 311L467 312L466 311M474 311L475 312L474 311M196 312L197 313L196 312M465 312L466 313L465 312z"/>
<path style="fill:#5f7a88; stroke:none;" d="M474 312L475 313L474 312z"/>
<path style="fill:#753d22; stroke:none;" d="M23 313L24 314L23 313M176 313L177 314L176 313M197 313L198 314L197 313M464 313L465 314L464 313M475 313L476 314L475 313M198 314L199 315L198 314M463 314L464 315L463 314z"/>
<path style="fill:#5f7a88; stroke:none;" d="M475 314L476 315L475 314z"/>
<path style="fill:#753d22; stroke:none;" d="M22 315L23 316L22 315M177 315L178 316L177 315M462 315L463 316L462 315M178 316L179 317L178 316M461 316L462 317L461 316z"/>
<path style="fill:#5f7a88; stroke:none;" d="M476 316L477 317L476 316z"/>
<path style="fill:#753d22; stroke:none;" d="M21.3333 317.667L21.6667 318.333L21.3333 317.667M200 317L201 318L200 317z"/>
<path style="fill:#5f7a88; stroke:none;" d="M460 317L461 318L460 317z"/>
<path style="fill:#753d22; stroke:none;" d="M201 318L202 319L201 318z"/>
<path style="fill:#5f7a88; stroke:none;" d="M459 318L460 319L459 318M477 318L478 319L477 318z"/>
<path style="fill:#753d22; stroke:none;" d="M180 319L181 320L180 319M202 319L203 320L202 319z"/>
<path style="fill:#5f7a88; stroke:none;" d="M458 319L459 320L458 319z"/>
<path style="fill:#753d22; stroke:none;" d="M20 320L21 321L20 320M203 320L204 321L203 320z"/>
<path style="fill:#5f7a88; stroke:none;" d="M457 320L458 321L457 320M478 320L479 321L478 320z"/>
<path style="fill:#753d22; stroke:none;" d="M204 321L205 322L204 321z"/>
<path style="fill:#5f7a88; stroke:none;" d="M456 321L457 322L456 321z"/>
<path style="fill:#753d22; stroke:none;" d="M182 322L183 323L182 322M205 322L206 323L205 322M479 322L480 323L479 322M19 323L20 324L19 323M183 323L184 324L183 323M184 324L185 325L184 324M480 324L481 325L480 324M18.3333 325.667L18.6667 326.333L18.3333 325.667M481 326L482 327L481 326M186 327L187 328L186 327z"/>
<path style="fill:#5f7a88; stroke:none;" d="M481 327L482 328L481 327z"/>
<path style="fill:#753d22; stroke:none;" d="M187 328L188 329L187 328M211 328L212 329L211 328M448 328L449 329L448 328M482 328L483 329L482 328M17 329L17 338L18 338L17 329M188 329L189 330L188 329M212 329L213 330L212 329M447 329L448 330L447 329z"/>
<path style="fill:#5f7a88; stroke:none;" d="M482 329L483 330L482 329z"/>
<path style="fill:#753d22; stroke:none;" d="M213 330L214 331L213 330M446 330L447 331L446 330M214 331L215 332L214 331M445 331L446 332L445 331z"/>
<path style="fill:#5f7a88; stroke:none;" d="M483 331L484 332L483 331z"/>
<path style="fill:#753d22; stroke:none;" d="M215 332L216 333L215 332M444 332L445 333L444 332M443 333L444 334L443 333z"/>
<path style="fill:#5f7a88; stroke:none;" d="M484 333L485 334L484 333z"/>
<path style="fill:#753d22; stroke:none;" d="M192 334L193 335L192 334z"/>
<path style="fill:#5f7a88; stroke:none;" d="M442 334L443 335L442 334z"/>
<path style="fill:#753d22; stroke:none;" d="M193 335L194 336L193 335M219 335L220 336L219 335z"/>
<path style="fill:#5f7a88; stroke:none;" d="M441 335L442 336L441 335M485 335L486 336L485 335z"/>
<path style="fill:#753d22; stroke:none;" d="M194 336L195 337L194 336M220 336L221 337L220 336z"/>
<path style="fill:#5f7a88; stroke:none;" d="M440 336L441 337L440 336z"/>
<path style="fill:#753d22; stroke:none;" d="M195 337L196 338L195 337M221 337L222 338L221 337z"/>
<path style="fill:#5f7a88; stroke:none;" d="M439 337L440 338L439 337M486 337L487 338L486 337z"/>
<path style="fill:#753d22; stroke:none;" d="M196 338L197 339L196 338M223 338L224 339L223 338z"/>
<path style="fill:#5f7a88; stroke:none;" d="M438 338L439 339L438 338z"/>
<path style="fill:#753d22; stroke:none;" d="M197 339L198 340L197 339M224 339L225 340L224 339z"/>
<path style="fill:#5f7a88; stroke:none;" d="M437 339L438 340L437 339z"/>
<path style="fill:#753d22; stroke:none;" d="M487 339L488 340L487 339M198 340L199 341L198 340M226 340L227 341L226 340M199 341L200 342L199 341M227 341L228 342L227 341M488 341L489 342L488 341M230 343L231 344L230 343M489 343L490 344L489 343M203 344L204 345L203 344M232 344L233 345L232 344z"/>
<path style="fill:#5f7a88; stroke:none;" d="M489 344L490 345L489 344z"/>
<path style="fill:#753d22; stroke:none;" d="M204 345L205 346L204 345M490 345L491 346L490 345M205 346L206 347L205 346M235 346L236 347L235 346M429 346L430 347L429 346z"/>
<path style="fill:#5f7a88; stroke:none;" d="M490 346L491 347L490 346z"/>
<path style="fill:#753d22; stroke:none;" d="M206 347L207 348L206 347M237 347L238 348L237 347M428 347L429 348L428 347M239 348L240 349L239 348M427 348L428 349L427 348z"/>
<path style="fill:#5f7a88; stroke:none;" d="M491 348L492 349L491 348z"/>
<path style="fill:#753d22; stroke:none;" d="M209 349L210 350L209 349M241 349L242 350L241 349M426 349L427 350L426 349M210 350L211 351L210 350M243 350L244 351L243 350M425 350L426 351L425 350z"/>
<path style="fill:#5f7a88; stroke:none;" d="M492 350L493 351L492 350z"/>
<path style="fill:#753d22; stroke:none;" d="M211 351L212 352L211 351M245 351L246 352L245 351z"/>
<path style="fill:#5f7a88; stroke:none;" d="M424 351L425 352L424 351z"/>
<path style="fill:#753d22; stroke:none;" d="M213 352L214 353L213 352M247 352L248 353L247 352z"/>
<path style="fill:#5f7a88; stroke:none;" d="M423 352L424 353L423 352z"/>
<path style="fill:#753d22; stroke:none;" d="M493 352L494 353L493 352M214 353L215 354L214 353M249.667 353.333L250.333 353.667L249.667 353.333z"/>
<path style="fill:#5f7a88; stroke:none;" d="M422 353L423 354L422 353M493 353L494 354L493 353z"/>
<path style="fill:#753d22; stroke:none;" d="M252 354L253 355L252 354z"/>
<path style="fill:#5f7a88; stroke:none;" d="M421 354L422 355L421 354z"/>
<path style="fill:#753d22; stroke:none;" d="M217 355L218 356L217 355M255 355L256 356L255 355z"/>
<path style="fill:#5f7a88; stroke:none;" d="M420 355L421 356L420 355z"/>
<path style="fill:#753d22; stroke:none;" d="M494 355L495 356L494 355M257.667 356.333L258.333 356.667L257.667 356.333z"/>
<path style="fill:#5f7a88; stroke:none;" d="M419 356L420 357L419 356M494.333 356.667L494.667 357.333L494.333 356.667z"/>
<path style="fill:#753d22; stroke:none;" d="M220 357L221 358L220 357M260.667 357.333L261.333 357.667L260.667 357.333z"/>
<path style="fill:#5f7a88; stroke:none;" d="M418 357L419 358L418 357z"/>
<path style="fill:#753d22; stroke:none;" d="M222 358L223 359L222 358M264.667 358.333L265.333 358.667L264.667 358.333z"/>
<path style="fill:#5f7a88; stroke:none;" d="M459 358L459 359L463 359L459 358z"/>
<path style="fill:#753d22; stroke:none;" d="M223 359L224 360L223 359M268.667 359.333L269.333 359.667L268.667 359.333z"/>
<path style="fill:#5f7a88; stroke:none;" d="M456 359L457 360L456 359z"/>
<path style="fill:#010101; stroke:none;" d="M457.059 360.029C448.085 364.891 455.922 378.816 464.891 373.82C473.714 368.906 465.894 355.24 457.059 360.029z"/>
<path style="fill:#753d22; stroke:none;" d="M464 359L465 360L464 359M225 360L226 361L225 360M272.667 360.333L273.333 360.667L272.667 360.333M455 360L456 361L455 360z"/>
<path style="fill:#5f7a88; stroke:none;" d="M466 360L467 361L466 360z"/>
<path style="fill:#753d22; stroke:none;" d="M495 360L496 361L495 360M227 361L228 362L227 361M277 361L277 362L280 362L277 361M454 361L455 362L454 361z"/>
<path style="fill:#5f7a88; stroke:none;" d="M467 361L468 362L467 361M495 361L495 365L496 365L495 361z"/>
<path style="fill:#753d22; stroke:none;" d="M229 362L230 363L229 362M285 362L285 363L290 363L285 362z"/>
<path style="fill:#5f7a88; stroke:none;" d="M453 362L454 363L453 362z"/>
<path style="fill:#753d22; stroke:none;" d="M230 363L231 364L230 363M312 363L312 364L315 364L312 363M411 363L412 364L411 363z"/>
<path style="fill:#5f7a88; stroke:none;" d="M468 363L469 364L468 363z"/>
<path style="fill:#753d22; stroke:none;" d="M232 364L233 365L232 364M318.667 364.333L319.333 364.667L318.667 364.333M410 364L411 365L410 364z"/>
<path style="fill:#5f7a88; stroke:none;" d="M452 364L453 365L452 364z"/>
<path style="fill:#753d22; stroke:none;" d="M234 365L235 366L234 365M321.667 365.333L322.333 365.667L321.667 365.333M409 365L410 366L409 365M452 365L452 368L453 368L452 365M236.667 366.333L237.333 366.667L236.667 366.333M324 366L325 367L324 366M408 366L409 367L408 366z"/>
<path style="fill:#5f7a88; stroke:none;" d="M469 366L470 367L469 366z"/>
<path style="fill:#753d22; stroke:none;" d="M239 367L240 368L239 367M327 367L328 368L327 367M407 367L408 368L407 367M241 368L242 369L241 368M329 368L330 369L329 368M406 368L407 369L406 368z"/>
<path style="fill:#5f7a88; stroke:none;" d="M452.333 368.667L452.667 369.333L452.333 368.667z"/>
<path style="fill:#753d22; stroke:none;" d="M243.667 369.333L244.333 369.667L243.667 369.333z"/>
<path style="fill:#5f7a88; stroke:none;" d="M405 369L406 370L405 369z"/>
<path style="fill:#753d22; stroke:none;" d="M246 370L247 371L246 370M332 370L333 371L332 370z"/>
<path style="fill:#5f7a88; stroke:none;" d="M404 370L405 371L404 370M468 370L469 371L468 370M495 370L495 373L496 373L495 370z"/>
<path style="fill:#753d22; stroke:none;" d="M249 371L250 372L249 371M334 371L335 372L334 371z"/>
<path style="fill:#5f7a88; stroke:none;" d="M403 371L404 372L403 371M453 371L454 372L453 371z"/>
<path style="fill:#753d22; stroke:none;" d="M335 372L336 373L335 372z"/>
<path style="fill:#5f7a88; stroke:none;" d="M402 372L403 373L402 372z"/>
<path style="fill:#753d22; stroke:none;" d="M454 372L455 373L454 372z"/>
<path style="fill:#5f7a88; stroke:none;" d="M401 373L402 374L401 373M455 373L456 374L455 373z"/>
<path style="fill:#753d22; stroke:none;" d="M495.333 373.667L495.667 374.333L495.333 373.667M251 374L252 375L251 374M338 374L339 375L338 374z"/>
<path style="fill:#5f7a88; stroke:none;" d="M400 374L401 375L400 374z"/>
<path style="fill:#753d22; stroke:none;" d="M457 374L458 375L457 374z"/>
<path style="fill:#5f7a88; stroke:none;" d="M464 374L465 375L464 374z"/>
<path style="fill:#753d22; stroke:none;" d="M339 375L340 376L339 375z"/>
<path style="fill:#5f7a88; stroke:none;" d="M459 375L459 376L462 376L459 375z"/>
<path style="fill:#753d22; stroke:none;" d="M340 376L341 377L340 376M252.333 377.667L252.667 378.333L252.333 377.667M341 377L342 378L341 377z"/>
<path style="fill:#5f7a88; stroke:none;" d="M494 377L495 378L494 377z"/>
<path style="fill:#753d22; stroke:none;" d="M342 378L343 379L342 378M494 378L495 379L494 378M343 379L344 380L343 379M253.333 380.667L253.667 381.333L253.333 380.667M344 380L345 381L344 380z"/>
<path style="fill:#5f7a88; stroke:none;" d="M493 380L494 381L493 380z"/>
<path style="fill:#753d22; stroke:none;" d="M345 381L346 382L345 381M392 381L393 382L392 381M493 381L494 382L493 381M391 382L392 383L391 382M390 383L391 384L390 383z"/>
<path style="fill:#5f7a88; stroke:none;" d="M492 383L493 384L492 383z"/>
<path style="fill:#753d22; stroke:none;" d="M254.333 384.667L254.667 385.333L254.333 384.667M347 384L348 385L347 384M389 384L390 385L389 384M388 385L389 386L388 385z"/>
<path style="fill:#5f7a88; stroke:none;" d="M491 385L492 386L491 385z"/>
<path style="fill:#753d22; stroke:none;" d="M387 386L388 387L387 386M491 386L492 387L491 386M255.333 387.667L255.667 388.333L255.333 387.667z"/>
<path style="fill:#5f7a88; stroke:none;" d="M386 387L387 388L386 387M490 387L491 388L490 387M385 388L386 389L385 388M384 389L385 390L384 389M489 389L490 390L489 389M383 390L384 391L383 390z"/>
<path style="fill:#753d22; stroke:none;" d="M256.333 391.667L256.667 392.333L256.333 391.667z"/>
<path style="fill:#5f7a88; stroke:none;" d="M382 391L383 392L382 391z"/>
<path style="fill:#753d22; stroke:none;" d="M488 391L489 392L488 391z"/>
<path style="fill:#5f7a88; stroke:none;" d="M381 392L382 393L381 392M487 392L488 393L487 392M486 393L487 394L486 393z"/>
<path style="fill:#753d22; stroke:none;" d="M257 395L258 396L257 395M484 396L485 397L484 396M483 397L484 398L483 397M258.333 398.667L258.667 399.333L258.333 398.667M482 398L483 399L482 398M373 399L374 400L373 399M372 400L373 401L372 400z"/>
<path style="fill:#5f7a88; stroke:none;" d="M479 400L480 401L479 400z"/>
<path style="fill:#753d22; stroke:none;" d="M371 401L372 402L371 401z"/>
<path style="fill:#5f7a88; stroke:none;" d="M478 401L479 402L478 401z"/>
<path style="fill:#753d22; stroke:none;" d="M259.333 402.667L259.667 403.333L259.333 402.667M370 402L371 403L370 402M477 402L478 403L477 402M369 403L370 404L369 403z"/>
<path style="fill:#5f7a88; stroke:none;" d="M475 403L476 404L475 403z"/>
<path style="fill:#753d22; stroke:none;" d="M368 404L369 405L368 404z"/>
<path style="fill:#5f7a88; stroke:none;" d="M473 404L474 405L473 404M367 405L368 406L367 405M471 405L472 406L471 405z"/>
<path style="fill:#753d22; stroke:none;" d="M472 405L473 406L472 405M260.333 406.667L260.667 407.333L260.333 406.667z"/>
<path style="fill:#5f7a88; stroke:none;" d="M366 406L367 407L366 406M469 406L470 407L469 406z"/>
<path style="fill:#753d22; stroke:none;" d="M470 406L471 407L470 406z"/>
<path style="fill:#5f7a88; stroke:none;" d="M365 407L366 408L365 407M467 407L468 408L467 407M364 408L365 409L364 408M465 408L466 409L465 408M363 409L364 410L363 409M463 409L464 410L463 409z"/>
<path style="fill:#753d22; stroke:none;" d="M261.333 410.667L261.667 411.333L261.333 410.667z"/>
<path style="fill:#5f7a88; stroke:none;" d="M362 410L363 411L362 410M461 410L462 411L461 410M361 411L362 412L361 411z"/>
<path style="fill:#753d22; stroke:none;" d="M459 411L460 412L459 411M361 412L362 413L361 412z"/>
<path style="fill:#5f7a88; stroke:none;" d="M456 412L457 413L456 412z"/>
<path style="fill:#753d22; stroke:none;" d="M457 412L458 413L457 412z"/>
<path style="fill:#5f7a88; stroke:none;" d="M454 413L455 414L454 413z"/>
<path style="fill:#753d22; stroke:none;" d="M455 413L456 414L455 413M262.333 414.667L262.667 415.333L262.333 414.667M362 414L363 415L362 414z"/>
<path style="fill:#5f7a88; stroke:none;" d="M452 414L453 415L452 414z"/>
<path style="fill:#753d22; stroke:none;" d="M453 414L454 415L453 414z"/>
<path style="fill:#5f7a88; stroke:none;" d="M363 415L364 416L363 415M450 415L451 416L450 415M448 416L449 417L448 416z"/>
<path style="fill:#753d22; stroke:none;" d="M364 417L365 418L364 417M446 417L447 418L446 417M263.333 418.667L263.667 419.333L263.333 418.667z"/>
<path style="fill:#5f7a88; stroke:none;" d="M365 418L366 419L365 418z"/>
<path style="fill:#753d22; stroke:none;" d="M444 418L445 419L444 418z"/>
<path style="fill:#5f7a88; stroke:none;" d="M441 419L442 420L441 419z"/>
<path style="fill:#753d22; stroke:none;" d="M442 419L443 420L442 419z"/>
<path style="fill:#5f7a88; stroke:none;" d="M439 420L440 421L439 420z"/>
<path style="fill:#753d22; stroke:none;" d="M440 420L441 421L440 420z"/>
<path style="fill:#5f7a88; stroke:none;" d="M437 421L438 422L437 421z"/>
<path style="fill:#753d22; stroke:none;" d="M438 421L439 422L438 421M264.333 422.667L264.667 423.333L264.333 422.667M368 422L369 423L368 422z"/>
<path style="fill:#5f7a88; stroke:none;" d="M435 422L436 423L435 422M433 423L434 424L433 423M431 424L432 425L431 424z"/>
<path style="fill:#753d22; stroke:none;" d="M429 425L430 426L429 425M265.333 426.667L265.667 427.333L265.333 426.667z"/>
<path style="fill:#5f7a88; stroke:none;" d="M373 426L374 427L373 426z"/>
<path style="fill:#753d22; stroke:none;" d="M427 426L428 427L427 426M374 427L375 428L374 427z"/>
<path style="fill:#5f7a88; stroke:none;" d="M424 427L425 428L424 427z"/>
<path style="fill:#753d22; stroke:none;" d="M425 427L426 428L425 427z"/>
<path style="fill:#5f7a88; stroke:none;" d="M376 428L377 429L376 428M422 428L423 429L422 428z"/>
<path style="fill:#753d22; stroke:none;" d="M423 428L424 429L423 428M377 429L378 430L377 429z"/>
<path style="fill:#5f7a88; stroke:none;" d="M420 429L421 430L420 429z"/>
<path style="fill:#753d22; stroke:none;" d="M266.333 430.667L266.667 431.333L266.333 430.667M379 430L380 431L379 430z"/>
<path style="fill:#5f7a88; stroke:none;" d="M418 430L419 431L418 430z"/>
<path style="fill:#753d22; stroke:none;" d="M381 431L382 432L381 431z"/>
<path style="fill:#5f7a88; stroke:none;" d="M416 431L417 432L416 431M384 432L385 433L384 432M413 432L414 433L413 432z"/>
<path style="fill:#753d22; stroke:none;" d="M414 432L415 433L414 432M386 433L387 434L386 433z"/>
<path style="fill:#5f7a88; stroke:none;" d="M387 433L388 434L387 433M410 433L411 434L410 433z"/>
<path style="fill:#753d22; stroke:none;" d="M411 433L412 434L411 433M267.333 434.667L267.667 435.333L267.333 434.667M390 434L391 435L390 434z"/>
<path style="fill:#5f7a88; stroke:none;" d="M391.667 434.333L392.333 434.667L391.667 434.333M405.667 434.333L406.333 434.667L405.667 434.333z"/>
<path style="fill:#753d22; stroke:none;" d="M407 434L408 435L407 434M399.667 435.333L400.333 435.667L399.667 435.333M268 438L268 441L269 441L268 438M269.333 443.667L269.667 444.333L269.333 443.667M270 447L270 450L271 450L270 447M271.333 452.667L271.667 453.333L271.333 452.667M272.333 457.667L272.667 458.333L272.333 457.667M273.333 462.667L273.667 463.333L273.333 462.667M274.333 467.667L274.667 468.333L274.333 467.667M275.333 472.667L275.667 473.333L275.333 472.667M276 477L276 480L277 480L276 477M277 482L277 485L278 485L277 482M17.3333 487.667L17.6667 488.333L17.3333 487.667M277.333 487.667L277.667 488.333L277.333 487.667M18 490L19 491L18 490M276 490L277 491L276 490M21 493L22 494L21 493M273 493L274 494L273 493M23.6667 494.333L24.3333 494.667L23.6667 494.333M270.667 494.333L271.333 494.667L270.667 494.333z"/>
</svg>
