<?xml version="1.0" standalone="yes"?>
<svg xmlns="http://www.w3.org/2000/svg" width="512" height="512">
<path style="fill:#010101; stroke:none;" d="M0 0L0 512L130 512L130 511C114.242 501.693 121 468.081 121 452C121 447.503 122.12 441.146 119.972 437.039C116.989 431.333 109.67 426.914 105.425 422C95.331 410.315 86.2001 397.86 79.2701 384C58.7842 343.028 54.4619 290.818 68.0255 247C73.4118 229.599 84.7165 214.76 90.2978 198C92.7287 190.7 91.1144 181.7 92.8873 174C98.3239 150.39 111.722 126.865 132 113L132 111C104.556 94.1429 86.8445 67.8311 87.0008 35C87.0575 23.0802 88.8954 7.55862 100 1L69 0L0 0z"/>
<path style="fill:#fdd6d7; stroke:none;" d="M132 111L132 113C110.59 122.807 96.8428 153.162 92.4491 175C91.0288 182.059 92.4896 190.285 90.3009 197C85.157 212.782 74.1077 226.646 69.0255 243C54.8685 288.555 57.8311 342.128 79.2701 385C86.1864 398.831 95.3446 411.349 105.425 423C109.71 427.952 117.031 432.138 119.976 438.015C122.19 442.433 121 449.187 121 454L121 488C121 494.086 119.713 501.63 123.804 506.699C128.778 512.862 135.891 512 143 512L187 512C193.578 512 201.42 513.317 206.671 508.467C213.963 501.731 211 487.009 211 478L256 481L256 331C272.404 330.998 287.852 326.06 301 316.1C306.465 311.961 310.876 305.09 317 302.028C326.276 297.39 340.702 298.966 351 295.302C381.201 284.555 406.212 259.675 415.971 229C425.515 199.004 422.204 164.432 404.481 138C397.65 127.813 388.193 120.968 380.637 111.714C369.589 98.1819 363.909 81.7949 350.91 69.1698C312.672 32.0292 252.358 19.121 203 41C191.108 9.63495 153.567 0 124 0C115.788 0 102.637 -2.58179 96.0548 3.22839C88.0236 10.3175 87.0161 24.984 87 35C86.9509 65.5399 102.693 98.3549 132 111z"/>
<path style="fill:#010101; stroke:none;" d="M144 0L144 1C167.833 2.03918 191.788 20.8803 203 41C240.262 28.8753 271.747 28.8577 309 41C319.799 20.8138 344.44 2.02728 368 1L347 0L302 0L144 0z"/>
<path style="fill:#fbabab; stroke:none;" d="M309 42C339.448 53.8299 366.462 80.8942 379 111C409.34 102.072 425.046 63.7795 425 35C424.985 25.5763 424.061 10.3464 416.671 3.53317C409.959 -2.65393 396.454 0 388 0C360.529 0 316.605 9.63733 309 42z"/>
<path style="fill:#010101; stroke:none;" d="M412 0L412 1C423.105 7.55862 424.943 23.0802 424.999 35C425.155 67.7914 407.413 94.1621 380 111L380 113C399.134 126.083 413.043 148.586 418.346 171C420.383 179.612 418.992 189.863 421.702 198C427.283 214.76 438.588 229.599 443.975 247C457.433 290.481 453.541 343.423 432.741 384C426.536 396.105 418.977 407.813 409.95 418C404.745 423.874 395.592 430.224 392.028 437.039C389.88 441.146 391 447.503 391 452C391 468.081 397.758 501.693 382 511L382 512L512 512L512 0L412 0z"/>
<path style="fill:#fdd6d7; stroke:none;" d="M358 2L359 3L358 2z"/>
<path style="fill:#fbabab; stroke:none;" d="M95 3L96 4L95 3M94 4L95 5L94 4M91 9L92 10L91 9M174 11L175 12L174 11z"/>
<path style="fill:#fdd6d7; stroke:none;" d="M423 20L424 21L423 20M312 34L313 35L312 34z"/>
<path style="fill:#fbabab; stroke:none;" d="M94 71L95 72L94 71z"/>
<path style="fill:#fdd6d7; stroke:none;" d="M411 82L412 83L411 82z"/>
<path style="fill:#fbabab; stroke:none;" d="M117 101L118 102L117 101M191 121L192 122L191 121z"/>
<path style="fill:#be978a; stroke:none;" d="M192 121L193 122L192 121z"/>
<path style="fill:#805638; stroke:none;" d="M193 121.537C174.317 125.849 180.647 154.699 199 150.463C217.683 146.151 211.353 117.301 193 121.537z"/>
<path style="fill:#be978a; stroke:none;" d="M199 121L200 122L199 121z"/>
<path style="fill:#fbabab; stroke:none;" d="M200 121L201 122L200 121M311 121L312 122L311 121z"/>
<path style="fill:#be978a; stroke:none;" d="M312 121L313 122L312 121z"/>
<path style="fill:#805638; stroke:none;" d="M313 121.537C294.317 125.849 300.647 154.699 319 150.463C337.683 146.151 331.353 117.301 313 121.537z"/>
<path style="fill:#be978a; stroke:none;" d="M319 121L320 122L319 121z"/>
<path style="fill:#fbabab; stroke:none;" d="M320 121L321 122L320 121z"/>
<path style="fill:#be978a; stroke:none;" d="M189 122L190 123L189 122M202 122L203 123L202 122M309 122L310 123L309 122M322 122L323 123L322 122z"/>
<path style="fill:#fbabab; stroke:none;" d="M187 123L188 124L187 123M204 123L205 124L204 123z"/>
<path style="fill:#be978a; stroke:none;" d="M307 123L308 124L307 123M324 123L325 124L324 123M186 124L187 125L186 124M205 124L206 125L205 124M306 124L307 125L306 124M325 124L326 125L325 124M185 125L186 126L185 125M206 125L207 126L206 125M305 125L306 126L305 125M326 125L327 126L326 125M184 126L185 127L184 126M207 126L208 127L207 126M304 126L305 127L304 126M327 126L328 127L327 126z"/>
<path style="fill:#fbabab; stroke:none;" d="M183 127L184 128L183 127M208 127L209 128L208 127z"/>
<path style="fill:#be978a; stroke:none;" d="M303 127L304 128L303 127M328 127L329 128L328 127M182 129L183 130L182 129M209 129L210 130L209 129M302 129L303 130L302 129M329 129L330 130L329 129z"/>
<path style="fill:#fbabab; stroke:none;" d="M181 131L182 132L181 131M301 131L302 132L301 131M330 131L331 132L330 131z"/>
<path style="fill:#be978a; stroke:none;" d="M181 132L182 133L181 132M210 132L211 133L210 132M301 132L302 133L301 132M330 132L331 133L330 132M181 139L182 140L181 139M210 139L211 140L210 139M301 139L302 140L301 139M330 139L331 140L330 139z"/>
<path style="fill:#fbabab; stroke:none;" d="M181 140L182 141L181 140M301 140L302 141L301 140M330 140L331 141L330 140z"/>
<path style="fill:#be978a; stroke:none;" d="M182 142L183 143L182 142M209 142L210 143L209 142M302 142L303 143L302 142M329 142L330 143L329 142z"/>
<path style="fill:#fbabab; stroke:none;" d="M183 144L184 145L183 144M208 144L209 145L208 144z"/>
<path style="fill:#be978a; stroke:none;" d="M303 144L304 145L303 144M328 144L329 145L328 144M184 145L185 146L184 145M207 145L208 146L207 145M304 145L305 146L304 145M327 145L328 146L327 145M185 146L186 147L185 146M206 146L207 147L206 146M305 146L306 147L305 146M326 146L327 147L326 146M186 147L187 148L186 147M205 147L206 148L205 147M306 147L307 148L306 147M325 147L326 148L325 147z"/>
<path style="fill:#fbabab; stroke:none;" d="M187 148L188 149L187 148M204 148L205 149L204 148z"/>
<path style="fill:#be978a; stroke:none;" d="M307 148L308 149L307 148M324 148L325 149L324 148M189 149L190 150L189 149M202 149L203 150L202 149M309 149L310 150L309 149M322 149L323 150L322 149M192 150L193 151L192 150M199 150L200 151L199 150z"/>
<path style="fill:#fbabab; stroke:none;" d="M311 150L312 151L311 150z"/>
<path style="fill:#be978a; stroke:none;" d="M312 150L313 151L312 150M319 150L320 151L319 150z"/>
<path style="fill:#fbabab; stroke:none;" d="M320 150L321 151L320 150M256 151L256 256C281.353 255.983 306.91 242.774 321.561 222C329.232 211.123 334.232 196.918 328.662 184C317.31 157.67 281.54 151 256 151M421 198C420.972 240.739 391.659 278.22 353 294.139C341.662 298.808 326.319 296.868 316 302.028C309.876 305.09 305.465 311.961 300 316.1C287.243 325.763 271.977 330.989 256 331L256 481L301 478C301 486.709 298.247 500.692 304.613 507.62C309.453 512.887 316.525 512 323 512L367 512C373.594 512 381.338 513.24 386.62 508.387C392.102 503.35 391 495.72 391 489L391 454C391 449.217 389.785 442.39 392.028 438.015C395.722 430.807 405.418 424.248 410.841 418C419.67 407.829 427.054 395.987 433.136 384C455.599 339.728 457.713 281.222 440.192 235C435.383 222.313 430.144 208.279 421 198z"/>
<path style="fill:#fdd6d7; stroke:none;" d="M423 201L424 202L423 201z"/>
<path style="fill:#fbabab; stroke:none;" d="M86 204L87 205L86 204z"/>
<path style="fill:#fdd6d7; stroke:none;" d="M428 209L429 210L428 209M430 213L431 214L430 213M438 230L439 231L438 230M439 233L440 234L439 233z"/>
<path style="fill:#fbabab; stroke:none;" d="M67 248L68 249L67 248z"/>
<path style="fill:#fdd6d7; stroke:none;" d="M448 266L449 267L448 266z"/>
<path style="fill:#fbabab; stroke:none;" d="M62 272L63 273L62 272z"/>
<path style="fill:#fdd6d7; stroke:none;" d="M450.333 320.667L450.667 321.333L450.333 320.667M449 329L450 330L449 329z"/>
<path style="fill:#fbabab; stroke:none;" d="M63 335L64 336L63 335M65 345L66 346L65 345z"/>
<path style="fill:#fdd6d7; stroke:none;" d="M444 353L445 354L444 353M443 356L444 357L443 356M439 368L440 369L439 368M435 378L436 379L435 378M431 386L432 387L431 386z"/>
<path style="fill:#fbabab; stroke:none;" d="M85 395L86 396L85 395z"/>
<path style="fill:#fdd6d7; stroke:none;" d="M421 403L422 404L421 403M418 407L419 408L418 407M416 410L417 411L416 410z"/>
<path style="fill:#fbabab; stroke:none;" d="M114 431L115 432L114 431z"/>
<path style="fill:#010101; stroke:none;" d="M211 478C211 490.081 214.007 503.908 202 511L202 512L310 512L310 511C297.993 503.908 301 490.081 301 478L238 480.985L211 478z"/>
<path style="fill:#fdd6d7; stroke:none;" d="M279 480L280 481L279 480M302 504L303 505L302 504M389 504L390 505L389 504z"/>
<path style="fill:#fbabab; stroke:none;" d="M125 508L126 509L125 508z"/>
<path style="fill:#fdd6d7; stroke:none;" d="M308 510L309 511L308 510M383 510L384 511L383 510z"/>
</svg>
