<?xml version="1.0" standalone="yes"?>
<svg xmlns="http://www.w3.org/2000/svg" width="512" height="512">
<path style="fill:#fbfbfb; stroke:none;" d="M0 0L0 193L1 193C1.47058 182.207 5.92433 171.523 10.7562 162C36.6579 110.952 103.409 93.9478 151 124.699C176.48 141.163 194.622 170.428 195.961 201C196.526 213.915 193.03 225.389 192 238C214.843 242.43 237.798 244.733 261 241.575C269.21 240.457 284.096 234.514 290.771 241.228C302.644 253.173 278.074 257.686 271 258.728C242.22 262.968 216.474 259.834 188 256C188 338.141 248.519 403.384 330 411.17C347.195 412.813 367.681 411.916 384 405.536C414.698 393.535 439.701 366.897 455.988 339C484.641 289.925 482.986 227.068 455.691 178C448.323 164.754 438.83 152.616 427.985 142.039C423.318 137.486 412.547 132.033 410.241 125.91C408.349 120.888 413.878 109.912 414 104C397.779 107.362 395.153 87.4438 411 88C404.858 53.566 363.485 61.7767 354.774 90C349.535 106.975 357.884 121.824 361.765 138C368.62 166.577 370.358 199.818 350.535 224C342.511 233.79 332.445 240.533 321 245.688C315.48 248.175 309.143 250.334 304.654 244.786C301.122 240.422 302.707 235.03 307.105 231.995C313.18 227.801 320.802 226.166 327 221.791C339.627 212.877 345.776 197.897 347.711 183C349.283 170.896 347.52 157.8 344.765 146C343.936 142.45 343.29 136.418 340.86 133.603C338.167 130.484 328.992 130.811 325 129.124C311.777 123.538 302.504 110.474 302.129 96C301.907 87.4217 306.072 78.4258 311.619 72.0903C314.287 69.0422 318.861 66.7662 320.397 62.9097C324.224 53.2987 322.304 44.606 330.105 36.0008C336.966 28.4323 345.722 23.9303 356 23.3758C359.818 23.1698 364.208 25.3075 367.91 24.2269C371.539 23.1678 374.124 18.8084 377.004 16.5178C382.433 12.2 389.091 9.21741 396 8.30402C416.774 5.55768 434.75 24.2155 435.791 44C436.115 50.1702 433.365 56.1018 432 62C437.856 63.7308 443.973 62.5958 450 63.1698C462.733 64.3823 475.542 67.2633 487 73.1088C493.738 76.5462 504.768 83.2864 496.606 91.6096C490.49 97.8462 479.512 100.615 472 105L472 106C488.937 116.368 518.511 134.596 495.815 156.699C492.403 160.022 488.236 161.981 484 164C496.733 187.923 509.804 212.158 511 240L512 240L512 0L0 0z"/>
<path style="fill:#020201; stroke:none;" d="M484 164C500.396 158.406 510.107 139.457 499.011 124.039C493.255 116.042 480.901 109.836 472 106L472 105C476.782 103.009 481.367 100.564 486 98.2469C502.14 90.1768 503.146 80.1868 486 72.1196C467.978 63.6405 450.41 66.3831 432 62C440.34 36.3592 427.896 4.90106 396 8.17438C383.043 9.50409 378.436 19.4283 367.91 23.686C364.285 25.1526 359.785 23.0088 356 23.2091C346.022 23.7371 336.872 27.6022 330.105 35.0038C322.265 43.5789 324.133 52.2942 320.397 61.9606C318.748 66.2259 313.703 68.6814 310.819 72.0903C305.172 78.7676 301.58 88.1855 302.093 97C302.917 111.149 310.802 123.549 324 129.124C328.361 130.967 337.041 130.428 340.272 133.603C342.851 136.137 343.379 141.63 344.265 145C347.334 156.668 349.275 169.953 347.711 182C345.637 197.967 338.67 213.247 325 222.48C319.144 226.435 309.235 228.216 304.653 233.394C298.826 239.977 305.153 248.506 313 247.8C321.672 247.02 331.161 241.122 338 236.076C368.845 213.317 369.217 172.91 361.575 139C358.861 126.958 351.816 114.521 352.129 102C352.781 75.9442 380.509 56.5993 405 66.0687C422.551 72.8547 432.832 90.5421 430.826 109C430.103 115.655 423.889 123.425 427.18 129.996C431.885 139.393 445.696 146.255 452.91 154C467.037 169.166 478.35 187.467 485.308 207C491.144 223.382 491.006 239.47 494.634 255.999C495.702 260.865 499.615 264.984 504.996 264.421C515.433 263.328 512.381 245.015 511.246 238C507.022 211.891 499.786 185.729 484 164z"/>
<path style="fill:#5b5a59; stroke:none;" d="M397 26L397 27L402 27L397 26M393 27L394 28L393 27z"/>
<path style="fill:#ed4949; stroke:none;" d="M336 113C328.478 81.4074 353.967 50.3321 385 46.2894C396.169 44.8344 405.421 48.4942 416 51C420.728 35.0051 404.263 19.1482 389.174 29.9699C383.274 34.2011 382.655 44.8471 374.996 46.5231C364.74 48.7674 357.087 36.6182 346.043 45.419C334.662 54.4891 345.274 64.8644 339.257 73.9452C335.767 79.2112 328.436 79.9313 324.394 85.0154C316.008 95.5652 322.816 111.641 336 113z"/>
<path style="fill:#5b5a59; stroke:none;" d="M405 27L406 28L405 27M391 28L392 29L391 28M386 32L387 33L386 32M385 33L386 34L385 33M383 36L384 37L383 36M416 38L417 39L416 38M382 39L383 40L382 39M355 41L355 42L358 42L355 41M351 42L352 43L351 42M417 42L417 47L418 47L417 42M380 43L381 44L380 43M366 44L367 45L366 44M368 45L369 46L368 45M378 45L379 46L378 45M344 46L345 47L344 46M370 46L371 47L370 46M376 46L377 47L376 46M383.667 46.3333L384.333 46.6667L383.667 46.3333M397 46L397 47L400 47L397 46M378 47L379 48L378 47M403.667 47.3333L404.333 47.6667L403.667 47.3333M408 48L409 49L408 48M341 50L342 51L341 50M369 50L370 51L369 50M413 50L414 51L413 50M416 50L417 51L416 50M340 52L341 53L340 52M363 53L364 54L363 53M361 54L362 55L361 54M339 55L340 56L339 55M358 56L359 57L358 56M354 59L355 60L354 59M353 60L354 61L353 60M352 61L353 62L352 61M351 62L352 63L351 62M339 63L340 64L339 63M391 63L391 64L394 64L391 63M382.667 64.3333L383.333 64.6667L382.667 64.3333z"/>
<path style="fill:#c4ab74; stroke:none;" d="M384.667 64.3333L385.333 64.6667L384.667 64.3333M394 64L394 65C402.261 70.8195 422.523 93.448 413 103C414.587 110.3 407.16 120.955 410.071 126.826C414.011 134.773 427.126 141.984 433.385 148.576C446.554 162.444 457.315 179.285 464.548 197C495.019 271.628 463.962 371.533 386 404L386 405C423.686 396.281 458.275 365.837 475.742 332C482.776 318.373 488.238 304.081 491.196 289C492.686 281.405 493.105 273.8 502 272L503 265C492.429 259.694 493.965 249.408 492.834 239C491.657 228.165 488.957 217.254 485.308 207C478.531 187.957 467.969 169.651 453.961 155C446.575 147.275 431.999 139.271 427.18 129.961C423.654 123.15 430.642 113.267 430.961 106C431.925 83.9676 416.003 65.7971 394 64z"/>
<path style="fill:#5b5a59; stroke:none;" d="M398 64L398 65L401 65L398 64M348 65L349 66L348 65M379 65L380 66L379 65z"/>
<path style="fill:#c4ab74; stroke:none;" d="M380 65L381 66L380 65z"/>
<path style="fill:#5b5a59; stroke:none;" d="M402.667 65.3333L403.333 65.6667L402.667 65.3333M340 66L341 67L340 66M376 66L377 67L376 66z"/>
<path style="fill:#c4ab74; stroke:none;" d="M377 66L378 67L377 66z"/>
<path style="fill:#5b5a59; stroke:none;" d="M405.667 66.3333L406.333 66.6667L405.667 66.3333M374 67L375 68L374 67M408 67L409 68L408 67M372 68L373 69L372 68M410 68L411 69L410 68M370 69L371 70L370 69M344 70L345 71L344 70z"/>
<path style="fill:#c4ab74; stroke:none;" d="M369 70L370 71L369 70z"/>
<path style="fill:#5b5a59; stroke:none;" d="M413 70L414 71L413 70M367 71L368 72L367 71z"/>
<path style="fill:#c4ab74; stroke:none;" d="M368 71L369 72L368 71z"/>
<path style="fill:#5b5a59; stroke:none;" d="M340 72L341 73L340 72M343 72L344 73L343 72M366 72L367 73L366 72M416 72L417 73L416 72z"/>
<path style="fill:#c4ab74; stroke:none;" d="M365 73L366 74L365 73z"/>
<path style="fill:#5b5a59; stroke:none;" d="M417 73L418 74L417 73M339 74L340 75L339 74z"/>
<path style="fill:#c4ab74; stroke:none;" d="M364 74L365 75L364 74z"/>
<path style="fill:#5b5a59; stroke:none;" d="M341 75L342 76L341 75z"/>
<path style="fill:#c4ab74; stroke:none;" d="M363 75L364 76L363 75M362 76L363 77L362 76z"/>
<path style="fill:#5b5a59; stroke:none;" d="M420 76L421 77L420 76M336 77L337 78L336 77M340 77L341 78L340 77M361 77L362 78L361 77M421 77L422 78L421 77M360 78L361 79L360 78M422 78L423 79L422 78z"/>
<path style="fill:#c4ab74; stroke:none;" d="M359 80L360 81L359 80z"/>
<path style="fill:#5b5a59; stroke:none;" d="M358 81L359 82L358 81M424 81L425 82L424 81M444 81L445 82L444 81z"/>
<path style="fill:#c4ab74; stroke:none;" d="M445 81L448 96L469 86L445 81z"/>
<path style="fill:#5b5a59; stroke:none;" d="M447 81L447 82L452 82L447 81M338 82L339 83L338 82M457.667 82.3333L458.333 82.6667L457.667 82.3333M325 83L326 84L325 83z"/>
<path style="fill:#c4ab74; stroke:none;" d="M357 83L358 84L357 83z"/>
<path style="fill:#5b5a59; stroke:none;" d="M462.667 83.3333L463.333 83.6667L462.667 83.3333M324 84L325 85L324 84M426 84L427 85L426 84M445 84L446 85L445 84M466.667 84.3333L467.333 84.6667L466.667 84.3333M337 85L338 86L337 85z"/>
<path style="fill:#c4ab74; stroke:none;" d="M356 85L357 86L356 85z"/>
<path style="fill:#5b5a59; stroke:none;" d="M469 85L470 86L469 85M427 86L428 87L427 86M468 86L469 87L468 86z"/>
<path style="fill:#c4ab74; stroke:none;" d="M355 87L356 88L355 87M407.667 87.3333L408.333 87.6667L407.667 87.3333z"/>
<path style="fill:#5b5a59; stroke:none;" d="M446 87L447 88L446 87M466 87L467 88L466 87M336 88L337 89L336 88M404 88L405 89L404 88z"/>
<path style="fill:#020201; stroke:none;" d="M405.044 88.7462C395.608 92.4509 401.058 108.065 410.981 104.254C420.896 100.445 415.008 84.834 405.044 88.7462z"/>
<path style="fill:#5b5a59; stroke:none;" d="M411 88L412 89L411 88M464 88L465 89L464 88M321 89L322 90L321 89M354 89L355 90L354 89z"/>
<path style="fill:#c4ab74; stroke:none;" d="M402 89L403 90L402 89z"/>
<path style="fill:#5b5a59; stroke:none;" d="M428 89L429 90L428 89M462 89L463 90L462 89z"/>
<path style="fill:#c4ab74; stroke:none;" d="M354 90L355 91L354 90M401 90L402 91L401 90z"/>
<path style="fill:#5b5a59; stroke:none;" d="M414 90L415 91L414 90M460 90L461 91L460 90M429 91L430 92L429 91M447.333 91.6667L447.667 92.3333L447.333 91.6667M353.333 92.6667L353.667 93.3333L353.333 92.6667M400 92L401 93L400 92M320 93L320 99L321 99L320 93M335.333 93.6667L335.667 94.3333L335.333 93.6667z"/>
<path style="fill:#c4ab74; stroke:none;" d="M353.333 94.6667L353.667 95.3333L353.333 94.6667M399 94L400 95L399 94z"/>
<path style="fill:#5b5a59; stroke:none;" d="M416.333 94.6667L416.667 95.3333L416.333 94.6667M399 95L399 98L400 98L399 95M430 95L430 98L431 98L430 95M416.333 97.6667L416.667 98.3333L416.333 97.6667M352 98L352 107L353 107L352 98z"/>
<path style="fill:#c4ab74; stroke:none;" d="M399 98L400 99L399 98z"/>
<path style="fill:#5b5a59; stroke:none;" d="M400 100L401 101L400 100M321 102L322 103L321 102z"/>
<path style="fill:#c4ab74; stroke:none;" d="M401 102L402 103L401 102z"/>
<path style="fill:#5b5a59; stroke:none;" d="M414 102L415 103L414 102z"/>
<path style="fill:#c4ab74; stroke:none;" d="M402 103L403 104L402 103z"/>
<path style="fill:#5b5a59; stroke:none;" d="M322 104L323 105L322 104M404 104L405 105L404 104M411 104L412 105L411 104z"/>
<path style="fill:#c4ab74; stroke:none;" d="M407.667 105.333L408.333 105.667L407.667 105.333z"/>
<path style="fill:#5b5a59; stroke:none;" d="M325 108L326 109L325 108z"/>
<path style="fill:#020201; stroke:none;" d="M18 216C18 200.126 18.8628 185.383 26.4892 171C51.9325 123.014 117.844 111.874 155.714 152.09C173.899 171.401 179.02 194.404 177 220L176 220C163.882 195.673 133.492 182.231 108 178.579C100.273 177.473 67.9289 175.272 77.0278 191.941C80.4203 198.157 91.1214 195.991 97 196C116.061 196.031 128.2 205.632 145 212L145 213C120.539 208.256 97.0008 208.695 74 219.309C30.2932 239.479 9.29871 292.927 23.7461 338C34.0205 370.054 59.6551 393.994 92 402.848C100.62 405.208 114.28 408.651 122.995 405.258C128.368 403.166 130.343 397.065 127.821 392C119.621 375.532 106.108 365.666 103.134 346C96.4768 301.98 125.882 262.9 169 254C169 328.199 215.971 405.411 292 423C289.356 434.106 292.729 445.404 298.453 455C300.462 458.369 305.693 462.849 306.221 466.715C306.628 469.688 302.352 472.841 300.764 475.001C297.346 479.649 294.773 485.213 294.174 491C293.327 499.2 300.692 508.141 308.856 501.486C313.019 498.092 314.749 489.849 317 485C323.456 494.453 344.142 512.264 356.581 501.297C370.833 488.731 341.906 484.099 337.214 478.945C328.157 468.997 336.329 457.682 344.004 450.004C352.918 441.087 364.246 432.061 376 427.198C388.039 422.218 401.101 420.498 413 414.742C449.016 397.317 479.968 369.02 496.41 332C502.289 318.763 506.993 305.291 509.576 291C510.456 286.127 512.424 279.561 509.258 275.134C505.008 269.191 496.393 272.025 493.879 278.015C489.44 288.591 489.073 301.092 484.936 312C474.015 340.792 454.214 366.549 429 384.279C352.797 437.865 245.617 409.623 203.259 327C191.883 304.811 187 279.764 187 255C213.515 262.454 242.94 262.669 270 258.41C277.057 257.299 301.484 254.303 291.397 241.228C286.068 234.322 272.012 239.884 265 240.87C239.737 244.421 216.973 241.225 192 238C195.105 214.942 198.531 194.663 189.936 172C168.216 114.728 95.388 90.4229 44 124.516C14.8114 143.881 0 174.553 0 209C0 219.804 0.534791 234.627 6.84336 243.942C10.1798 248.869 17.2279 249.689 21.6096 245.57C25.5955 241.824 27.4343 235.48 30.5702 231C36.731 222.199 44.9394 214.205 54 208.436C59.5581 204.897 71.5467 200.848 68.1265 192.015C65.1136 184.235 56.8883 185.845 51 188.76C37.682 195.354 27.9164 205.234 18 216z"/>
<path style="fill:#5b5a59; stroke:none;" d="M335.333 110.667L335.667 111.333L335.333 110.667z"/>
<path style="fill:#c4ab74; stroke:none;" d="M353.333 110.667L353.667 111.333L353.333 110.667z"/>
<path style="fill:#5b5a59; stroke:none;" d="M430.333 110.667L430.667 111.333L430.333 110.667M329 111L330 112L329 111M331 112L332 113L331 112M353 112L354 113L353 112M334.667 113.333L335.333 113.667L334.667 113.333z"/>
<path style="fill:#c4ab74; stroke:none;" d="M354 114L355 115L354 114z"/>
<path style="fill:#5b5a59; stroke:none;" d="M429.333 114.667L429.667 115.333L429.333 114.667M354 115L355 116L354 115M449 115L450 116L449 115z"/>
<path style="fill:#ed4949; stroke:none;" d="M450.133 115.875C445.683 117.186 445.879 122.793 448.322 125.715C454.496 133.101 469.225 149.816 479.956 145.732C484.513 143.998 486.387 138.512 483.258 134.518C477.989 127.792 466.276 123.326 459 119.001C456.511 117.521 453.228 114.964 450.133 115.875z"/>
<path style="fill:#5b5a59; stroke:none;" d="M447 116L448 117L447 116M454 116L455 117L454 116z"/>
<path style="fill:#c4ab74; stroke:none;" d="M355 117L356 118L355 117z"/>
<path style="fill:#5b5a59; stroke:none;" d="M428 117L429 118L428 117M355 118L356 119L355 118M446 119L447 120L446 119M459 119L460 120L459 119z"/>
<path style="fill:#c4ab74; stroke:none;" d="M356 120L357 121L356 120z"/>
<path style="fill:#5b5a59; stroke:none;" d="M427 120L428 121L427 120M356 121L357 122L356 121M426 122L427 123L426 122M464 122L465 123L464 122z"/>
<path style="fill:#c4ab74; stroke:none;" d="M357 123L358 124L357 123z"/>
<path style="fill:#5b5a59; stroke:none;" d="M357 124L358 125L357 124M469 125L470 126L469 125z"/>
<path style="fill:#c4ab74; stroke:none;" d="M358 126L359 127L358 126z"/>
<path style="fill:#5b5a59; stroke:none;" d="M88 127L88 128L91 128L88 127z"/>
<path style="fill:#ed4949; stroke:none;" d="M18 215C29.5288 208.398 54.0441 172.802 68 192L76 190C76.8227 174.973 94.9723 177.317 106 178.09C133.008 179.983 161.681 197.108 176 220C179.181 212.627 177.931 203.735 177.05 196C173.574 165.479 150.249 139.098 121 130.439C84.2983 119.574 43.4919 136.556 26.2701 171C19.2009 185.138 18 199.49 18 215z"/>
<path style="fill:#5b5a59; stroke:none;" d="M104 127L104 128L108 128L104 127M358.333 127.667L358.667 128.333L358.333 127.667M450 127L451 128L450 127M82 128L83 129L82 128M112 128L113 129L112 128M474 128L475 129L474 128M78 129L79 130L78 129M117 129L118 130L117 129M426 129L427 130L426 129M74 130L75 131L74 130z"/>
<path style="fill:#c4ab74; stroke:none;" d="M359 130L360 131L359 130z"/>
<path style="fill:#5b5a59; stroke:none;" d="M71 131L72 132L71 131M124 131L125 132L124 131M359 131L360 132L359 131M427 131L428 132L427 131M479 131L480 132L479 131M68 132L69 133L68 132M126 132L127 133L126 132M428 132L429 133L428 132M66 133L67 134L66 133M129 133L130 134L129 133z"/>
<path style="fill:#c4ab74; stroke:none;" d="M360 133L361 134L360 133z"/>
<path style="fill:#5b5a59; stroke:none;" d="M429 133L430 134L429 133M482 133L483 134L482 133M131 134L132 135L131 134M360 134L361 135L360 134M458 134L459 135L458 134M133 135L134 136L133 135M459 135L460 136L459 135M484 135L485 136L484 135M135 136L136 137L135 136z"/>
<path style="fill:#c4ab74; stroke:none;" d="M361 136L362 137L361 136z"/>
<path style="fill:#5b5a59; stroke:none;" d="M433 136L434 137L433 136M460 136L461 137L460 136M58 137L59 138L58 137M137 137L138 138L137 137M361.333 137.667L361.667 138.333L361.333 137.667M434 137L435 138L434 137M461 137L462 138L461 137M56 138L57 139L56 138M462 138L463 139L462 138M485.333 138.667L485.667 139.333L485.333 138.667M140 139L141 140L140 139M437 139L438 140L437 139M463 139L464 140L463 139M53 140L54 141L53 140M438 140L439 141L438 140M464 140L465 141L464 140z"/>
<path style="fill:#c4ab74; stroke:none;" d="M362 141L363 142L362 141z"/>
<path style="fill:#5b5a59; stroke:none;" d="M465 141L466 142L465 141M50 142L51 143L50 142M362.333 142.667L362.667 143.333L362.333 142.667M466 142L467 143L466 142M484 142L485 143L484 142M146 143L147 144L146 143M468 144L469 145L468 144z"/>
<path style="fill:#c4ab74; stroke:none;" d="M363.333 145.667L363.667 146.333L363.333 145.667z"/>
<path style="fill:#5b5a59; stroke:none;" d="M444 145L445 146L444 145M45 146L46 147L45 146M445 146L446 147L445 146M472.667 146.333L473.333 146.667L472.667 146.333M477.667 146.333L478.333 146.667L477.667 146.333M44 147L45 148L44 147M363 147L364 148L363 147M446 147L447 148L446 147M447 148L448 149L447 148M153 149L154 150L153 149M448 149L449 150L448 149M154 150L155 151L154 150z"/>
<path style="fill:#c4ab74; stroke:none;" d="M364 150L365 151L364 150z"/>
<path style="fill:#5b5a59; stroke:none;" d="M449 150L450 151L449 150M155 151L156 152L155 151M364 151L364 154L365 154L364 151M450 151L451 152L450 151M39 152L40 153L39 152M156 152L157 153L156 152M451 152L452 153L451 152M38 153L39 154L38 153M452 153L453 154L452 153M37 154L38 155L37 154M453 154L454 155L453 154M36 155L37 156L36 155M454 155L455 156L454 155M455 156L456 157L455 156z"/>
<path style="fill:#c4ab74; stroke:none;" d="M365 157L365 160L366 160L365 157z"/>
<path style="fill:#5b5a59; stroke:none;" d="M161 158L162 159L161 158M33 159L34 160L33 159M365 160L365 163L366 163L365 160M458 160L459 161L458 160M163 161L164 162L163 161M459 161L460 162L459 161M460 162L461 163L460 162M29 165L30 166L29 165M463 166L464 167L463 166M167 167L168 168L167 167z"/>
<path style="fill:#c4ab74; stroke:none;" d="M366 167L366 179L367 179L366 167z"/>
<path style="fill:#5b5a59; stroke:none;" d="M168 169L169 170L168 169M465 169L466 170L465 169M26 170L27 171L26 170M466 170L467 171L466 170M169 171L170 172L169 171M25 172L26 173L25 172M170 173L171 174L170 173M468 173L469 174L468 173M171 175L172 176L171 175M470 176L471 177L470 176M23 177L24 178L23 177M83 178L84 179L83 178M107 178L107 179L110 179L107 178M471 178L472 179L471 178M80 179L81 180L80 179M114 179L115 180L114 179M118.667 180.333L119.333 180.667L118.667 180.333M173 180L174 181L173 180M123 181L124 182L123 181M473 181L474 182L473 181M21 182L22 183L21 182M126 182L127 183L126 182M174 183L175 184L174 183M365 183L365 186L366 186L365 183M474 183L475 184L474 183M59 185L60 186L59 185M134 185L135 186L134 185M475 185L476 186L475 185M20 186L21 187L20 186M55 186L56 187L55 186M63 186L64 187L63 186M136 186L137 187L136 186z"/>
<path style="fill:#c4ab74; stroke:none;" d="M365 186L365 189L366 189L365 186z"/>
<path style="fill:#5b5a59; stroke:none;" d="M53 187L54 188L53 187M138 187L139 188L138 187M175 187L176 188L175 187M51 188L52 189L51 188M140 188L141 189L140 188M477 188L478 189L477 188M19 190L20 191L19 190M67 190L68 191L67 190z"/>
<path style="fill:#fbfbfb; stroke:none;" d="M69 191C68.3011 204.444 50.7277 208.694 42 217.039C33.4426 225.221 29.2439 238.208 20.7878 245.569C15.1271 250.497 8.63118 247.08 5.80015 240.999C4.62586 238.477 3.88453 235.676 3.15201 233C2.06172 229.017 1.18004 225.129 1 221L0 221L0 512L512 512L512 260L511 260C508.874 262.474 502.883 264.653 502.466 268.025C502.031 271.538 507.565 273.501 509.258 276.055C511.847 279.961 510.491 284.733 509.75 289C506.166 309.631 498.554 330.296 487.305 348C468.656 377.349 443.234 399.631 412 414.742C400.101 420.498 387.039 422.218 375 427.198C362.904 432.203 351.01 441.614 342.04 451.001C334.544 458.845 328.146 471.895 338.105 480.722C343.17 485.212 369.118 487.962 356.58 500.581C344.178 513.065 324.647 492.887 317 485C313.699 490.07 312.876 497.787 307.942 501.482C299.837 507.554 293.079 497.627 294.468 490C295.906 482.109 306.723 473.745 306.655 467C306.61 462.543 300.072 456.844 297.873 453C292.497 443.603 290.011 433.714 292 423C217.7 398.824 169 332.025 169 254C123.822 260.084 95.9774 304.653 103.285 348C105.141 359.007 110.246 370.004 116.745 379C120.204 383.787 126.23 388.424 128.253 394C130.145 399.213 125.907 404.221 121 405.566C110.265 408.509 96.1323 404.045 86 400.667C46.4917 387.495 19.8288 349.336 19.0154 308C18.1447 263.745 51.7562 223.001 94 212.475C111.445 208.129 127.595 210.752 145 213C127.95 196.672 106.523 197.814 85 195.941C78.3703 195.364 76.1581 189.745 69 191z"/>
<path style="fill:#5b5a59; stroke:none;" d="M144 190L145 191L144 190M478 190L479 191L478 190M176 191L177 192L176 191M364.333 191.667L364.667 192.333L364.333 191.667M44 192L45 193L44 192M149 193L150 194L149 193z"/>
<path style="fill:#c4ab74; stroke:none;" d="M364 193L365 194L364 193z"/>
<path style="fill:#5b5a59; stroke:none;" d="M41 194L42 195L41 194M18.3333 195.667L18.6667 196.333L18.3333 195.667M152 195L153 196L152 195M480 195L481 196L480 195M38 196L39 197L38 196M363.333 196.667L363.667 197.333L363.333 196.667M481 197L482 198L481 197M177.333 198.667L177.667 199.333L177.333 198.667z"/>
<path style="fill:#c4ab74; stroke:none;" d="M363 198L364 199L363 198z"/>
<path style="fill:#5b5a59; stroke:none;" d="M34 199L35 200L34 199M157 199L158 200L157 199M482 199L483 200L482 199M33 200L34 201L33 200M362 200L363 201L362 200z"/>
<path style="fill:#c4ab74; stroke:none;" d="M362 201L363 202L362 201z"/>
<path style="fill:#5b5a59; stroke:none;" d="M483 202L484 203L483 202M162 203L163 204L162 203M361 203L362 204L361 203z"/>
<path style="fill:#c4ab74; stroke:none;" d="M361 204L362 205L361 204z"/>
<path style="fill:#5b5a59; stroke:none;" d="M484 204L485 205L484 204M360 206L361 207L360 206z"/>
<path style="fill:#c4ab74; stroke:none;" d="M360 207L361 208L360 207z"/>
<path style="fill:#5b5a59; stroke:none;" d="M485 207L486 208L485 207M359 208L360 209L359 208z"/>
<path style="fill:#c4ab74; stroke:none;" d="M359 209L360 210L359 209z"/>
<path style="fill:#5b5a59; stroke:none;" d="M486 210L487 211L486 210z"/>
<path style="fill:#c4ab74; stroke:none;" d="M358 211L359 212L358 211z"/>
<path style="fill:#5b5a59; stroke:none;" d="M21 212L22 213L21 212M20 213L21 214L20 213z"/>
<path style="fill:#fbfbfb; stroke:none;" d="M145 213L146 214L145 213z"/>
<path style="fill:#5b5a59; stroke:none;" d="M177 213L177 216L178 216L177 213z"/>
<path style="fill:#c4ab74; stroke:none;" d="M357 213L358 214L357 213z"/>
<path style="fill:#5b5a59; stroke:none;" d="M487 213L488 214L487 213M172 214L173 215L172 214M356 214L357 215L356 214M18 215L19 216L18 215z"/>
<path style="fill:#c4ab74; stroke:none;" d="M356 215L357 216L356 215z"/>
<path style="fill:#5b5a59; stroke:none;" d="M355 216L356 217L355 216M488.333 216.667L488.667 217.333L488.333 216.667z"/>
<path style="fill:#c4ab74; stroke:none;" d="M355 217L356 218L355 217z"/>
<path style="fill:#5b5a59; stroke:none;" d="M175 218L176 219L175 218M354 218L355 219L354 218M353 219L354 220L353 219z"/>
<path style="fill:#c4ab74; stroke:none;" d="M353 220L354 221L353 220z"/>
<path style="fill:#5b5a59; stroke:none;" d="M489 220L490 221L489 220z"/>
<path style="fill:#c4ab74; stroke:none;" d="M352 221L353 222L352 221z"/>
<path style="fill:#5b5a59; stroke:none;" d="M351 222L352 223L351 222z"/>
<path style="fill:#c4ab74; stroke:none;" d="M350 224L351 225L350 224z"/>
<path style="fill:#5b5a59; stroke:none;" d="M490.333 224.667L490.667 225.333L490.333 224.667z"/>
<path style="fill:#c4ab74; stroke:none;" d="M349 225L350 226L349 225M348 226L349 227L348 226z"/>
<path style="fill:#5b5a59; stroke:none;" d="M347 227L348 228L347 227z"/>
<path style="fill:#c4ab74; stroke:none;" d="M409.667 227.333L410.333 227.667L409.667 227.333z"/>
<path style="fill:#5b5a59; stroke:none;" d="M411 227L412 228L411 227z"/>
<path style="fill:#c4ab74; stroke:none;" d="M412.667 227.333L413.333 227.667L412.667 227.333z"/>
<path style="fill:#5b5a59; stroke:none;" d="M106 228L107 229L106 228z"/>
<path style="fill:#ed4949; stroke:none;" d="M98 385C92.2882 366.95 83.7858 352.731 83.2593 333C82.0657 288.271 115.319 251.237 156 238C124.216 213.946 72.1295 232.057 51.7461 262C28.7762 295.742 34.7257 344.372 67 370.192C75.8278 377.255 86.6941 383.33 98 385z"/>
<path style="fill:#5b5a59; stroke:none;" d="M128.667 228.333L129.333 228.667L128.667 228.333M346 228L347 229L346 228z"/>
<path style="fill:#c4ab74; stroke:none;" d="M407 228L408 229L407 228z"/>
<path style="fill:#020201; stroke:none;" d="M261 335C268.419 330.717 277.808 329.91 286 327.573C302.04 322.995 318.79 317.171 333 308.316C339.209 304.446 354.247 296.374 349.667 287.044C344.905 277.341 335.545 284.819 330 288.842C308.4 304.513 280.646 311.555 255 317.35C247.477 319.049 230.669 318.587 230.153 329.001C229.794 336.237 237.935 340.206 243 343.845C257.894 354.546 275.379 362.807 293 367.859C339.326 381.141 413.903 384.422 447.331 342C470.517 312.576 466.838 271.006 439.996 245.039C433.328 238.589 421.904 228.389 412.001 228.16C405.428 228.008 400.893 235.229 404.743 240.895C409.868 248.438 422.302 252.224 428.91 259.039C447.445 278.159 451.926 307.489 434.686 329C405.654 365.225 340.398 364.55 300 351.656C286.28 347.276 274.161 340.508 261 335z"/>
<path style="fill:#5b5a59; stroke:none;" d="M415 228L416 229L415 228z"/>
<path style="fill:#c4ab74; stroke:none;" d="M416 228L417 229L416 228z"/>
<path style="fill:#5b5a59; stroke:none;" d="M491 228L491 231L492 231L491 228M100 229L101 230L100 229M134 229L135 230L134 229M345 229L346 230L345 229z"/>
<path style="fill:#c4ab74; stroke:none;" d="M405 229L406 230L405 229z"/>
<path style="fill:#5b5a59; stroke:none;" d="M406 229L407 230L406 229M417 229L418 230L417 229M96 230L97 231L96 230M138 230L139 231L138 230M344 230L345 231L344 230M419 230L420 231L419 230M93 231L94 232L93 231M141 231L142 232L141 231M343 231L344 232L343 231M404 231L405 232L404 231M421 231L422 232L421 231M90 232L91 233L90 232M144 232L145 233L144 232z"/>
<path style="fill:#c4ab74; stroke:none;" d="M342 232L343 233L342 232M403 232L404 233L403 232z"/>
<path style="fill:#5b5a59; stroke:none;" d="M423 232L424 233L423 232M147 233L148 234L147 233z"/>
<path style="fill:#c4ab74; stroke:none;" d="M341 233L342 234L341 233z"/>
<path style="fill:#5b5a59; stroke:none;" d="M403 233L404 234L403 233z"/>
<path style="fill:#c4ab74; stroke:none;" d="M425 233L426 234L425 233z"/>
<path style="fill:#5b5a59; stroke:none;" d="M85 234L86 235L85 234M149 234L150 235L149 234z"/>
<path style="fill:#c4ab74; stroke:none;" d="M340 234L341 235L340 234z"/>
<path style="fill:#5b5a59; stroke:none;" d="M426 234L427 235L426 234M492 234L492 237L493 237L492 234M151 235L152 236L151 235M338 235L339 236L338 235z"/>
<path style="fill:#c4ab74; stroke:none;" d="M402.333 235.667L402.667 236.333L402.333 235.667M428 235L429 236L428 235z"/>
<path style="fill:#5b5a59; stroke:none;" d="M81 236L82 237L81 236z"/>
<path style="fill:#c4ab74; stroke:none;" d="M337 236L338 237L337 236z"/>
<path style="fill:#5b5a59; stroke:none;" d="M429 236L430 237L429 236M79 237L80 238L79 237z"/>
<path style="fill:#c4ab74; stroke:none;" d="M336 237L337 238L336 237M431 237L432 238L431 237z"/>
<path style="fill:#5b5a59; stroke:none;" d="M77 238L78 239L77 238M154 238L155 239L154 238M334 238L335 239L334 238M432 238L433 239L432 238M151 239L152 240L151 239M332 239L333 240L332 239z"/>
<path style="fill:#c4ab74; stroke:none;" d="M333 239L334 240L333 239z"/>
<path style="fill:#5b5a59; stroke:none;" d="M403 239L404 240L403 239M433 239L434 240L433 239M148 240L149 241L148 240z"/>
<path style="fill:#c4ab74; stroke:none;" d="M331 240L332 241L331 240z"/>
<path style="fill:#5b5a59; stroke:none;" d="M434 240L435 241L434 240M72 241L73 242L72 241M145 241L146 242L145 241M329 241L330 242L329 241z"/>
<path style="fill:#c4ab74; stroke:none;" d="M404 241L405 242L404 241z"/>
<path style="fill:#5b5a59; stroke:none;" d="M493 241L493 246L494 246L493 241M327 242L328 243L327 242M405 242L406 243L405 242z"/>
<path style="fill:#c4ab74; stroke:none;" d="M437 242L438 243L437 242M303 243L304 244L303 243z"/>
<path style="fill:#5b5a59; stroke:none;" d="M325 243L326 244L325 243z"/>
<path style="fill:#c4ab74; stroke:none;" d="M406 243L407 244L406 243M438 243L439 244L438 243z"/>
<path style="fill:#5b5a59; stroke:none;" d="M68 244L69 245L68 244M293 244L294 245L293 244M323 244L324 245L323 244M408 244L409 245L408 244z"/>
<path style="fill:#c4ab74; stroke:none;" d="M439 244L440 245L439 244z"/>
<path style="fill:#5b5a59; stroke:none;" d="M136 245L137 246L136 245z"/>
<path style="fill:#c4ab74; stroke:none;" d="M293 245L293 249L294 249L293 245M304 245L305 246L304 245M321 245L322 246L321 245z"/>
<path style="fill:#5b5a59; stroke:none;" d="M410 245L411 246L410 245z"/>
<path style="fill:#c4ab74; stroke:none;" d="M440 245L441 246L440 245z"/>
<path style="fill:#5b5a59; stroke:none;" d="M134 246L135 247L134 246z"/>
<path style="fill:#c4ab74; stroke:none;" d="M305 246L306 247L305 246z"/>
<path style="fill:#5b5a59; stroke:none;" d="M318 246L319 247L318 246z"/>
<path style="fill:#c4ab74; stroke:none;" d="M319 246L320 247L319 246M411 246L412 247L411 246z"/>
<path style="fill:#5b5a59; stroke:none;" d="M412 246L413 247L412 246z"/>
<path style="fill:#c4ab74; stroke:none;" d="M441 246L442 247L441 246z"/>
<path style="fill:#5b5a59; stroke:none;" d="M307 247L308 248L307 247M315 247L316 248L315 247z"/>
<path style="fill:#c4ab74; stroke:none;" d="M316 247L317 248L316 247M413 247L414 248L413 247z"/>
<path style="fill:#5b5a59; stroke:none;" d="M414 247L415 248L414 247z"/>
<path style="fill:#c4ab74; stroke:none;" d="M442 247L443 248L442 247z"/>
<path style="fill:#5b5a59; stroke:none;" d="M131 248L132 249L131 248z"/>
<path style="fill:#c4ab74; stroke:none;" d="M309 248L310 249L309 248z"/>
<path style="fill:#5b5a59; stroke:none;" d="M310.667 248.333L311.333 248.667L310.667 248.333z"/>
<path style="fill:#c4ab74; stroke:none;" d="M312.667 248.333L313.333 248.667L312.667 248.333M415 248L416 249L415 248M443 248L444 249L443 248z"/>
<path style="fill:#5b5a59; stroke:none;" d="M417 249L418 250L417 249z"/>
<path style="fill:#c4ab74; stroke:none;" d="M444 249L445 250L444 249z"/>
<path style="fill:#5b5a59; stroke:none;" d="M292 250L293 251L292 250z"/>
<path style="fill:#c4ab74; stroke:none;" d="M418 250L419 251L418 250z"/>
<path style="fill:#5b5a59; stroke:none;" d="M60 251L61 252L60 251M126 251L127 252L126 251z"/>
<path style="fill:#c4ab74; stroke:none;" d="M292 251L293 252L292 251z"/>
<path style="fill:#5b5a59; stroke:none;" d="M420 251L421 252L420 251M59 252L60 253L59 252M291 252L292 253L291 252z"/>
<path style="fill:#c4ab74; stroke:none;" d="M421 252L422 253L421 252z"/>
<path style="fill:#5b5a59; stroke:none;" d="M446 252L447 253L446 252M290 253L291 254L290 253z"/>
<path style="fill:#c4ab74; stroke:none;" d="M422 253L423 254L422 253M447 253L448 254L447 253z"/>
<path style="fill:#5b5a59; stroke:none;" d="M122 254L123 255L122 254z"/>
<path style="fill:#c4ab74; stroke:none;" d="M289 254L290 255L289 254M448 254L449 255L448 254z"/>
<path style="fill:#5b5a59; stroke:none;" d="M187.667 255.333L188.333 255.667L187.667 255.333M286 255L287 256L286 255z"/>
<path style="fill:#c4ab74; stroke:none;" d="M287 255L288 256L287 255z"/>
<path style="fill:#5b5a59; stroke:none;" d="M425 255L426 256L425 255M494.333 255.667L494.667 256.333L494.333 255.667z"/>
<path style="fill:#c4ab74; stroke:none;" d="M187 256L187 265L188 265L187 256M191 256L192 257L191 256z"/>
<path style="fill:#5b5a59; stroke:none;" d="M192 256L193 257L192 256M281.667 256.333L282.333 256.667L281.667 256.333z"/>
<path style="fill:#c4ab74; stroke:none;" d="M283 256L284 257L283 256z"/>
<path style="fill:#5b5a59; stroke:none;" d="M426 256L427 257L426 256M449 256L450 257L449 256M118 257L119 258L118 257z"/>
<path style="fill:#c4ab74; stroke:none;" d="M195 257L196 258L195 257z"/>
<path style="fill:#5b5a59; stroke:none;" d="M196.667 257.333L197.333 257.667L196.667 257.333M275.667 257.333L276.333 257.667L275.667 257.333z"/>
<path style="fill:#c4ab74; stroke:none;" d="M277.667 257.333L278.333 257.667L277.667 257.333M397 257L397 258L401 258L397 257z"/>
<path style="fill:#5b5a59; stroke:none;" d="M427 257L428 258L427 257z"/>
<path style="fill:#c4ab74; stroke:none;" d="M450 257L451 258L450 257z"/>
<path style="fill:#5b5a59; stroke:none;" d="M54 258L55 259L54 258M117 258L118 259L117 258z"/>
<path style="fill:#c4ab74; stroke:none;" d="M200.667 258.333L201.333 258.667L200.667 258.333z"/>
<path style="fill:#5b5a59; stroke:none;" d="M202.667 258.333L203.333 258.667L202.667 258.333M269.667 258.333L270.333 258.667L269.667 258.333z"/>
<path style="fill:#c4ab74; stroke:none;" d="M271.667 258.333L272.333 258.667L271.667 258.333M391 258L391 259L394 259L391 258z"/>
<path style="fill:#ed4949; stroke:none;" d="M261 334C270.646 342.381 284.951 347.013 297 350.717C328.416 360.375 362.102 361.544 394 353.37C412.929 348.52 431.093 339.194 440.19 321C459.064 283.252 421.182 246.583 383 261.066C373.504 264.667 355.918 275.298 350.812 284.289C349.441 286.705 350.837 289.419 350.244 291.996C349.194 296.557 344.497 299.823 341 302.497C317.727 320.294 288.52 326.248 261 334z"/>
<path style="fill:#c4ab74; stroke:none;" d="M408.667 258.333L409.333 258.667L408.667 258.333z"/>
<path style="fill:#5b5a59; stroke:none;" d="M428 258L429 259L428 258z"/>
<path style="fill:#c4ab74; stroke:none;" d="M206 259L206 260L209 260L206 259z"/>
<path style="fill:#5b5a59; stroke:none;" d="M209 259L209 260L212 260L209 259M261 259L261 260L264 260L261 259z"/>
<path style="fill:#c4ab74; stroke:none;" d="M264.667 259.333L265.333 259.667L264.667 259.333M387 259L388 260L387 259M412.667 259.333L413.333 259.667L412.667 259.333z"/>
<path style="fill:#5b5a59; stroke:none;" d="M429 259L430 260L429 259M451 259L452 260L451 259z"/>
<path style="fill:#c4ab74; stroke:none;" d="M215 260L215 261L218 261L215 260z"/>
<path style="fill:#5b5a59; stroke:none;" d="M218 260L218 261L223 261L218 260M249 260L249 261L254 261L249 260z"/>
<path style="fill:#c4ab74; stroke:none;" d="M254 260L254 261L258 261L254 260M384 260L385 261L384 260M416 260L417 261L416 260z"/>
<path style="fill:#5b5a59; stroke:none;" d="M430 260L431 261L430 260z"/>
<path style="fill:#c4ab74; stroke:none;" d="M452 260L453 261L452 260M232 261L232 262L240 262L232 261M381 261L382 262L381 261M418 261L419 262L418 261z"/>
<path style="fill:#5b5a59; stroke:none;" d="M431 261L432 262L431 261M496 261L497 262L496 261M51 262L52 263L51 262z"/>
<path style="fill:#c4ab74; stroke:none;" d="M379 262L380 263L379 262M420.667 262.333L421.333 262.667L420.667 262.333z"/>
<path style="fill:#5b5a59; stroke:none;" d="M453 262L454 263L453 262M497 262L498 263L497 262z"/>
<path style="fill:#c4ab74; stroke:none;" d="M377 263L378 264L377 263M423 263L424 264L423 263M432 263L433 264L432 263z"/>
<path style="fill:#5b5a59; stroke:none;" d="M499 263L500 264L499 263z"/>
<path style="fill:#c4ab74; stroke:none;" d="M424 264L425 265L424 264M433 264L434 265L433 264z"/>
<path style="fill:#5b5a59; stroke:none;" d="M454 264L455 265L454 264M502 264L503 265L502 264M49 265L50 266L49 265M187 265L187 270L188 270L187 265z"/>
<path style="fill:#c4ab74; stroke:none;" d="M374 265L375 266L374 265M426 265L427 266L426 265z"/>
<path style="fill:#5b5a59; stroke:none;" d="M434 265L435 266L434 265z"/>
<path style="fill:#c4ab74; stroke:none;" d="M455 265L456 266L455 265M427 266L428 267L427 266z"/>
<path style="fill:#5b5a59; stroke:none;" d="M455 266L456 267L455 266M48 267L49 268L48 267z"/>
<path style="fill:#c4ab74; stroke:none;" d="M371 267L372 268L371 267M429 267L430 268L429 267M435 267L436 268L435 267M456 267L457 268L456 267z"/>
<path style="fill:#5b5a59; stroke:none;" d="M107 268L108 269L107 268z"/>
<path style="fill:#c4ab74; stroke:none;" d="M430 268L431 269L430 268M436 268L437 269L436 268z"/>
<path style="fill:#5b5a59; stroke:none;" d="M456 268L457 269L456 268M106 269L107 270L106 269z"/>
<path style="fill:#c4ab74; stroke:none;" d="M367 270L368 271L367 270M437 270L438 271L437 270z"/>
<path style="fill:#5b5a59; stroke:none;" d="M457 270L458 271L457 270z"/>
<path style="fill:#c4ab74; stroke:none;" d="M366 271L367 272L366 271z"/>
<path style="fill:#5b5a59; stroke:none;" d="M438 271L439 272L438 271M502 271L503 272L502 271z"/>
<path style="fill:#c4ab74; stroke:none;" d="M438 272L439 273L438 272M458 272L459 273L458 272z"/>
<path style="fill:#5b5a59; stroke:none;" d="M498 272L499 273L498 272M103 273L104 274L103 273z"/>
<path style="fill:#c4ab74; stroke:none;" d="M363 273L364 274L363 273z"/>
<path style="fill:#5b5a59; stroke:none;" d="M439 273L440 274L439 273M458 273L459 274L458 273M496 273L497 274L496 273z"/>
<path style="fill:#c4ab74; stroke:none;" d="M188 274L188 277L189 277L188 274M362 274L363 275L362 274z"/>
<path style="fill:#5b5a59; stroke:none;" d="M495 274L496 275L495 274M440 275L441 276L440 275M459 275L460 276L459 275M494 275L495 276L494 275z"/>
<path style="fill:#c4ab74; stroke:none;" d="M440 276L442 279L442 278L440 276z"/>
<path style="fill:#5b5a59; stroke:none;" d="M43 277L44 278L43 277M100 277L101 278L100 277M188 277L188 280L189 280L188 277z"/>
<path style="fill:#c4ab74; stroke:none;" d="M358 277L359 278L358 277z"/>
<path style="fill:#fbfbfb; stroke:none;" d="M440 277L441 278L440 277z"/>
<path style="fill:#5b5a59; stroke:none;" d="M441 277L442 278L441 277z"/>
<path style="fill:#c4ab74; stroke:none;" d="M460.333 277.667L460.667 278.333L460.333 277.667z"/>
<path style="fill:#5b5a59; stroke:none;" d="M493.333 277.667L493.667 278.333L493.333 277.667z"/>
<path style="fill:#c4ab74; stroke:none;" d="M357 278L358 279L357 278z"/>
<path style="fill:#5b5a59; stroke:none;" d="M42 279L43 280L42 279z"/>
<path style="fill:#fbfbfb; stroke:none;" d="M441 279L442 280L441 279z"/>
<path style="fill:#5b5a59; stroke:none;" d="M460 279L461 280L460 279M98 280L99 281L98 280z"/>
<path style="fill:#c4ab74; stroke:none;" d="M354 280L355 281L354 280z"/>
<path style="fill:#5b5a59; stroke:none;" d="M442 280L443 281L442 280z"/>
<path style="fill:#c4ab74; stroke:none;" d="M341.667 281.333L342.333 281.667L341.667 281.333M353 281L354 282L353 281M442 281L443 282L442 281M461 281L462 282L461 281z"/>
<path style="fill:#5b5a59; stroke:none;" d="M492 281L492 284L493 284L492 281M97 282L98 283L97 282z"/>
<path style="fill:#c4ab74; stroke:none;" d="M189.333 282.667L189.667 283.333L189.333 282.667z"/>
<path style="fill:#5b5a59; stroke:none;" d="M338 282L339 283L338 282M345 282L346 283L345 282z"/>
<path style="fill:#c4ab74; stroke:none;" d="M352 282L353 283L352 282z"/>
<path style="fill:#5b5a59; stroke:none;" d="M443.333 282.667L443.667 283.333L443.333 282.667M461.333 282.667L461.667 283.333L461.333 282.667z"/>
<path style="fill:#c4ab74; stroke:none;" d="M336 283L337 284L336 283M347 283L348 284L347 283z"/>
<path style="fill:#5b5a59; stroke:none;" d="M189.333 284.667L189.667 285.333L189.333 284.667M335 284L336 285L335 284z"/>
<path style="fill:#c4ab74; stroke:none;" d="M348.667 284.333L349.333 284.667L348.667 284.333z"/>
<path style="fill:#5b5a59; stroke:none;" d="M95 285L96 286L95 285M334 285L335 286L334 285z"/>
<path style="fill:#c4ab74; stroke:none;" d="M462.333 285.667L462.667 286.333L462.333 285.667z"/>
<path style="fill:#5b5a59; stroke:none;" d="M333 286L334 287L333 286M94 287L95 288L94 287M444 287L445 288L444 287M462 287L462 290L463 290L462 287M491.333 287.667L491.667 288.333L491.333 287.667z"/>
<path style="fill:#c4ab74; stroke:none;" d="M190.333 288.667L190.667 289.333L190.333 288.667M330 288L331 289L330 288z"/>
<path style="fill:#5b5a59; stroke:none;" d="M350 288L351 289L350 288M93 289L94 290L93 289M329 289L330 290L329 289M39 290L40 291L39 290M190 290L191 291L190 290z"/>
<path style="fill:#c4ab74; stroke:none;" d="M327 290L328 291L327 290z"/>
<path style="fill:#5b5a59; stroke:none;" d="M326 291L327 292L326 291z"/>
<path style="fill:#c4ab74; stroke:none;" d="M324 292L325 293L324 292z"/>
<path style="fill:#5b5a59; stroke:none;" d="M350 292L351 293L350 292M445 292L445 296L446 296L445 292M490.333 292.667L490.667 293.333L490.333 292.667z"/>
<path style="fill:#c4ab74; stroke:none;" d="M191 293L192 294L191 293M322 293L323 294L322 293M463 293L463 304L464 304L463 293z"/>
<path style="fill:#5b5a59; stroke:none;" d="M38.3333 294.667L38.6667 295.333L38.3333 294.667M191 294L192 295L191 294z"/>
<path style="fill:#c4ab74; stroke:none;" d="M320 294L321 295L320 294z"/>
<path style="fill:#5b5a59; stroke:none;" d="M321 294L322 295L321 294M319 295L320 296L319 295M90 296L91 297L90 296M317 296L318 297L317 296M348 296L349 297L348 296M489.333 296.667L489.667 297.333L489.333 296.667z"/>
<path style="fill:#c4ab74; stroke:none;" d="M192 297L193 298L192 297M315 297L316 298L315 297z"/>
<path style="fill:#5b5a59; stroke:none;" d="M347 297L348 298L347 297M192 298L193 299L192 298z"/>
<path style="fill:#c4ab74; stroke:none;" d="M313 298L314 299L313 298z"/>
<path style="fill:#5b5a59; stroke:none;" d="M311 299L312 300L311 299z"/>
<path style="fill:#c4ab74; stroke:none;" d="M193.333 300.667L193.667 301.333L193.333 300.667M308 300L309 301L308 300z"/>
<path style="fill:#5b5a59; stroke:none;" d="M309 300L310 301L309 300M488.333 300.667L488.667 301.333L488.333 300.667M306 301L307 302L306 301M342 301L343 302L342 301M445 301L445 304L446 304L445 301M37 302L37 313L38 313L37 302M88 302L89 303L88 302M193 302L194 303L193 302z"/>
<path style="fill:#c4ab74; stroke:none;" d="M303 302L304 303L303 302z"/>
<path style="fill:#5b5a59; stroke:none;" d="M304 302L305 303L304 302M341 302L342 303L341 302z"/>
<path style="fill:#c4ab74; stroke:none;" d="M301 303L302 304L301 303z"/>
<path style="fill:#5b5a59; stroke:none;" d="M302 303L303 304L302 303z"/>
<path style="fill:#c4ab74; stroke:none;" d="M194 304L195 305L194 304M298 304L299 305L298 304z"/>
<path style="fill:#5b5a59; stroke:none;" d="M299 304L300 305L299 304M487 304L488 305L487 304M87 305L88 306L87 305M194 305L195 306L194 305z"/>
<path style="fill:#c4ab74; stroke:none;" d="M296 305L297 306L296 305z"/>
<path style="fill:#5b5a59; stroke:none;" d="M297 305L298 306L297 305z"/>
<path style="fill:#c4ab74; stroke:none;" d="M292 306L293 307L292 306z"/>
<path style="fill:#5b5a59; stroke:none;" d="M293.667 306.333L294.333 306.667L293.667 306.333M335 306L336 307L335 306M462 306L462 309L463 309L462 306M486.333 306.667L486.667 307.333L486.333 306.667z"/>
<path style="fill:#c4ab74; stroke:none;" d="M195 307L196 308L195 307M289 307L290 308L289 307z"/>
<path style="fill:#5b5a59; stroke:none;" d="M290 307L291 308L290 307M86 308L87 309L86 308M195 308L196 309L195 308z"/>
<path style="fill:#c4ab74; stroke:none;" d="M286 308L287 309L286 308z"/>
<path style="fill:#5b5a59; stroke:none;" d="M287 308L288 309L287 308M332 308L333 309L332 308M444.333 308.667L444.667 309.333L444.333 308.667z"/>
<path style="fill:#c4ab74; stroke:none;" d="M283 309L284 310L283 309z"/>
<path style="fill:#5b5a59; stroke:none;" d="M284 309L285 310L284 309z"/>
<path style="fill:#c4ab74; stroke:none;" d="M462.333 309.667L462.667 310.333L462.333 309.667z"/>
<path style="fill:#5b5a59; stroke:none;" d="M485.333 309.667L485.667 310.333L485.333 309.667z"/>
<path style="fill:#c4ab74; stroke:none;" d="M196 310L197 311L196 310M280 310L281 311L280 310z"/>
<path style="fill:#5b5a59; stroke:none;" d="M281 310L282 311L281 310M196 311L197 312L196 311z"/>
<path style="fill:#c4ab74; stroke:none;" d="M276.667 311.333L277.333 311.667L276.667 311.333z"/>
<path style="fill:#5b5a59; stroke:none;" d="M278 311L279 312L278 311z"/>
<path style="fill:#c4ab74; stroke:none;" d="M273 312L274 313L273 312z"/>
<path style="fill:#5b5a59; stroke:none;" d="M274 312L275 313L274 312M443 312L444 313L443 312M484.333 312.667L484.667 313.333L484.333 312.667M85 313L86 314L85 313M197 313L198 314L197 313z"/>
<path style="fill:#c4ab74; stroke:none;" d="M269 313L270 314L269 313z"/>
<path style="fill:#5b5a59; stroke:none;" d="M270 313L271 314L270 313M461 313L462 314L461 313z"/>
<path style="fill:#c4ab74; stroke:none;" d="M265 314L266 315L265 314z"/>
<path style="fill:#5b5a59; stroke:none;" d="M266 314L267 315L266 314z"/>
<path style="fill:#c4ab74; stroke:none;" d="M461 314L462 315L461 314M198 315L199 316L198 315M261 315L262 316L261 315z"/>
<path style="fill:#5b5a59; stroke:none;" d="M262.667 315.333L263.333 315.667L262.667 315.333M442 315L443 316L442 315M483 315L484 316L483 315M198 316L199 317L198 316z"/>
<path style="fill:#c4ab74; stroke:none;" d="M256.667 316.333L257.333 316.667L256.667 316.333z"/>
<path style="fill:#5b5a59; stroke:none;" d="M258 316L259 317L258 316M316 316L317 317L316 316M460.333 316.667L460.667 317.333L460.333 316.667z"/>
<path style="fill:#c4ab74; stroke:none;" d="M199 317L200 318L199 317M252 317L253 318L252 317z"/>
<path style="fill:#5b5a59; stroke:none;" d="M253.667 317.333L254.333 317.667L253.667 317.333M314 317L315 318L314 317M482 317L483 318L482 317M84 318L85 319L84 318M199 318L200 319L199 318z"/>
<path style="fill:#c4ab74; stroke:none;" d="M247 318L248 319L247 318z"/>
<path style="fill:#5b5a59; stroke:none;" d="M248.667 318.333L249.333 318.667L248.667 318.333z"/>
<path style="fill:#c4ab74; stroke:none;" d="M460 318L461 319L460 318M241.667 319.333L242.333 319.667L241.667 319.333z"/>
<path style="fill:#5b5a59; stroke:none;" d="M243.667 319.333L244.333 319.667L243.667 319.333M309 319L310 320L309 319M38 320L39 321L38 320z"/>
<path style="fill:#c4ab74; stroke:none;" d="M200 320L201 321L200 320M236 320L237 321L236 320z"/>
<path style="fill:#5b5a59; stroke:none;" d="M237.667 320.333L238.333 320.667L237.667 320.333M459 320L460 321L459 320M481 320L482 321L481 320M200 321L201 322L200 321M234 321L235 322L234 321M304 321L305 322L304 321z"/>
<path style="fill:#c4ab74; stroke:none;" d="M201 322L202 323L201 322M232 322L233 323L232 322z"/>
<path style="fill:#5b5a59; stroke:none;" d="M301 322L302 323L301 322M458 322L459 323L458 322M480 322L481 323L480 322M201 323L202 324L201 323z"/>
<path style="fill:#c4ab74; stroke:none;" d="M231 323L232 324L231 323z"/>
<path style="fill:#5b5a59; stroke:none;" d="M298 323L299 324L298 323z"/>
<path style="fill:#c4ab74; stroke:none;" d="M458 323L459 324L458 323M202 324L203 325L202 324M230 324L231 325L230 324z"/>
<path style="fill:#5b5a59; stroke:none;" d="M295 324L296 325L295 324M479 324L480 325L479 324M39 325L40 326L39 325M202 325L203 326L202 325M230 325L231 326L230 325M292 325L293 326L292 325M437 325L438 326L437 325M457 325L458 326L457 325z"/>
<path style="fill:#c4ab74; stroke:none;" d="M203 326L204 327L203 326z"/>
<path style="fill:#5b5a59; stroke:none;" d="M289 326L290 327L289 326M478 326L479 327L478 326M203 327L204 328L203 327z"/>
<path style="fill:#c4ab74; stroke:none;" d="M229 327L230 328L229 327z"/>
<path style="fill:#5b5a59; stroke:none;" d="M286 327L287 328L286 327M456 327L457 328L456 327z"/>
<path style="fill:#c4ab74; stroke:none;" d="M204 328L205 329L204 328z"/>
<path style="fill:#5b5a59; stroke:none;" d="M229 328L229 331L230 331L229 328M282 328L283 329L282 328M435 328L436 329L435 328M477 328L478 329L477 328M40 329L41 330L40 329M83 329L83 336L84 336L83 329M204 329L205 330L204 329M278 329L279 330L278 329M455 329L456 330L455 329z"/>
<path style="fill:#c4ab74; stroke:none;" d="M205 330L206 331L205 330z"/>
<path style="fill:#5b5a59; stroke:none;" d="M274 330L275 331L274 330M476 330L477 331L476 330M205 331L206 332L205 331z"/>
<path style="fill:#c4ab74; stroke:none;" d="M229 331L230 332L229 331z"/>
<path style="fill:#5b5a59; stroke:none;" d="M270 331L271 332L270 331z"/>
<path style="fill:#c4ab74; stroke:none;" d="M454 331L455 332L454 331M206 332L207 333L206 332z"/>
<path style="fill:#5b5a59; stroke:none;" d="M266 332L267 333L266 332M475 332L476 333L475 332M230 333L231 334L230 333M262 333L263 334L262 333z"/>
<path style="fill:#c4ab74; stroke:none;" d="M453 333L454 334L453 333z"/>
<path style="fill:#5b5a59; stroke:none;" d="M207 334L208 335L207 334M452 334L453 335L452 334M474 334L475 335L474 334M42 335L43 336L42 335z"/>
<path style="fill:#c4ab74; stroke:none;" d="M231 335L232 336L231 335z"/>
<path style="fill:#5b5a59; stroke:none;" d="M262 335L263 336L262 335M429 335L430 336L429 335M208 336L209 337L208 336z"/>
<path style="fill:#c4ab74; stroke:none;" d="M232 336L233 337L232 336z"/>
<path style="fill:#5b5a59; stroke:none;" d="M264 336L265 337L264 336M428 336L429 337L428 336z"/>
<path style="fill:#c4ab74; stroke:none;" d="M451 336L452 337L451 336M209 337L210 338L209 337z"/>
<path style="fill:#5b5a59; stroke:none;" d="M234 337L235 338L234 337M450 337L451 338L450 337M472 337L473 338L472 337M43 338L44 339L43 338z"/>
<path style="fill:#c4ab74; stroke:none;" d="M235 338L236 339L235 338z"/>
<path style="fill:#5b5a59; stroke:none;" d="M210 339L211 340L210 339z"/>
<path style="fill:#c4ab74; stroke:none;" d="M236 339L237 340L236 339z"/>
<path style="fill:#5b5a59; stroke:none;" d="M237 339L238 340L237 339M269 339L270 340L269 339z"/>
<path style="fill:#c4ab74; stroke:none;" d="M449 339L450 340L449 339z"/>
<path style="fill:#5b5a59; stroke:none;" d="M471 339L472 340L471 339M44 340L45 341L44 340M238 340L239 341L238 340M271 340L272 341L271 340M423 340L424 341L423 340M448 340L449 341L448 340M211 341L212 342L211 341z"/>
<path style="fill:#c4ab74; stroke:none;" d="M239 341L240 342L239 341z"/>
<path style="fill:#5b5a59; stroke:none;" d="M273 341L274 342L273 341M447 341L448 342L447 341M45 342L46 343L45 342z"/>
<path style="fill:#c4ab74; stroke:none;" d="M212 342L213 343L212 342z"/>
<path style="fill:#5b5a59; stroke:none;" d="M241 342L242 343L241 342M420 342L421 343L420 342M469 342L470 343L469 342M242 343L243 344L242 343M46 344L47 345L46 344M213 344L214 345L213 344z"/>
<path style="fill:#c4ab74; stroke:none;" d="M243 344L244 345L243 344M445 344L446 345L445 344z"/>
<path style="fill:#5b5a59; stroke:none;" d="M84.3333 345.667L84.6667 346.333L84.3333 345.667M214 345L215 346L214 345M245 345L246 346L245 345M282 345L283 346L282 345M415 345L416 346L415 345z"/>
<path style="fill:#c4ab74; stroke:none;" d="M444 345L445 346L444 345z"/>
<path style="fill:#5b5a59; stroke:none;" d="M467 345L468 346L467 345M47 346L48 347L47 346z"/>
<path style="fill:#c4ab74; stroke:none;" d="M215 346L216 347L215 346M428 359C381.285 378.449 333.457 382.569 285 365.308C272.16 360.734 261.031 353.945 249 347.793C245.723 346.118 239.433 345.512 237.238 349.43C234.339 354.602 243.764 359.023 247 361.05C259.404 368.819 273.03 374.65 287 378.975C319.873 389.15 356.906 389.865 390 380.421C403.411 376.594 419.565 370.725 428 359z"/>
<path style="fill:#5b5a59; stroke:none;" d="M413 346L414 347L413 346z"/>
<path style="fill:#c4ab74; stroke:none;" d="M443 346L444 347L443 346z"/>
<path style="fill:#5b5a59; stroke:none;" d="M215 347L216 348L215 347M248 347L249 348L248 347M287 347L288 348L287 347z"/>
<path style="fill:#c4ab74; stroke:none;" d="M442 347L443 348L442 347z"/>
<path style="fill:#5b5a59; stroke:none;" d="M48 348L49 349L48 348M216 348L217 349L216 348M250 348L251 349L250 348M290 348L291 349L290 348M408 348L409 349L408 348M441 348L442 349L441 348M465 348L466 349L465 348z"/>
<path style="fill:#c4ab74; stroke:none;" d="M217 349L218 350L217 349z"/>
<path style="fill:#5b5a59; stroke:none;" d="M251 349L252 350L251 349M406 349L407 350L406 349z"/>
<path style="fill:#c4ab74; stroke:none;" d="M440 349L441 350L440 349z"/>
<path style="fill:#5b5a59; stroke:none;" d="M464 349L465 350L464 349M253 350L254 351L253 350M296 350L297 351L296 350M403 350L404 351L403 350z"/>
<path style="fill:#c4ab74; stroke:none;" d="M439 350L440 351L439 350z"/>
<path style="fill:#5b5a59; stroke:none;" d="M50 351L51 352L50 351M85.3333 351.667L85.6667 352.333L85.3333 351.667M218 351L219 352L218 351M299 351L300 352L299 351M400 351L401 352L400 351z"/>
<path style="fill:#c4ab74; stroke:none;" d="M438 351L439 352L438 351z"/>
<path style="fill:#5b5a59; stroke:none;" d="M219 352L220 353L219 352M256 352L257 353L256 352M302 352L303 353L302 352M397 352L398 353L397 352M436 352L437 353L436 352M462 352L463 353L462 352z"/>
<path style="fill:#c4ab74; stroke:none;" d="M220 353L221 354L220 353z"/>
<path style="fill:#5b5a59; stroke:none;" d="M258 353L259 354L258 353M306 353L307 354L306 353M393 353L394 354L393 353M435 353L436 354L435 353M461 353L462 354L461 353M52 354L53 355L52 354z"/>
<path style="fill:#c4ab74; stroke:none;" d="M221 354L222 355L221 354z"/>
<path style="fill:#5b5a59; stroke:none;" d="M260 354L261 355L260 354M310.667 354.333L311.333 354.667L310.667 354.333M389 354L390 355L389 354z"/>
<path style="fill:#c4ab74; stroke:none;" d="M434 354L435 355L434 354z"/>
<path style="fill:#5b5a59; stroke:none;" d="M262 355L263 356L262 355M315 355L316 356L315 355M384.667 355.333L385.333 355.667L384.667 355.333M432 355L433 356L432 355z"/>
<path style="fill:#c4ab74; stroke:none;" d="M433 355L434 356L433 355z"/>
<path style="fill:#5b5a59; stroke:none;" d="M86 356L87 357L86 356M222 356L223 357L222 356M264 356L265 357L264 356M321 356L322 357L321 356M378.667 356.333L379.333 356.667L378.667 356.333z"/>
<path style="fill:#c4ab74; stroke:none;" d="M431 356L432 357L431 356z"/>
<path style="fill:#5b5a59; stroke:none;" d="M223 357L224 358L223 357M266 357L267 358L266 357M327.667 357.333L328.333 357.667L327.667 357.333M371 357L371 358L374 358L371 357M429 357L430 358L429 357M458 357L459 358L458 357M55 358L56 359L55 358z"/>
<path style="fill:#c4ab74; stroke:none;" d="M224 358L225 359L224 358z"/>
<path style="fill:#5b5a59; stroke:none;" d="M268 358L269 359L268 358M337 358L337 359L341 359L337 358M360 358L360 359L364 359L360 358z"/>
<path style="fill:#c4ab74; stroke:none;" d="M428 358L429 359L428 358z"/>
<path style="fill:#5b5a59; stroke:none;" d="M457 358L458 359L457 358z"/>
<path style="fill:#c4ab74; stroke:none;" d="M225 359L226 360L225 359z"/>
<path style="fill:#5b5a59; stroke:none;" d="M270 359L271 360L270 359M426 359L427 360L426 359M456 359L457 360L456 359z"/>
<path style="fill:#c4ab74; stroke:none;" d="M226 360L227 361L226 360z"/>
<path style="fill:#5b5a59; stroke:none;" d="M272 360L273 361L272 360M424 360L425 361L424 360z"/>
<path style="fill:#c4ab74; stroke:none;" d="M227 361L228 362L227 361z"/>
<path style="fill:#5b5a59; stroke:none;" d="M275 361L276 362L275 361M422 361L423 362L422 361z"/>
<path style="fill:#c4ab74; stroke:none;" d="M228 362L229 363L228 362z"/>
<path style="fill:#5b5a59; stroke:none;" d="M277 362L278 363L277 362M420 362L421 363L420 362M88 363L89 364L88 363M280 363L281 364L280 363M418 363L419 364L418 363M282 364L283 365L282 364M416 364L417 365L416 364M230 365L231 366L230 365M285 365L286 366L285 365M413 365L414 366L413 365M89 366L90 367L89 366M231 366L232 367L231 366M288 366L289 367L288 366M410 366L411 367L410 366M232 367L233 368L232 367M291 367L292 368L291 367M407.667 367.333L408.333 367.667L407.667 367.333M90 368L91 369L90 368M294.667 368.333L295.333 368.667L294.667 368.333M405 368L406 369L405 368M66 369L67 370L66 369M298 369L299 370L298 369M401.667 369.333L402.333 369.667L401.667 369.333M67 370L68 371L67 370z"/>
<path style="fill:#c4ab74; stroke:none;" d="M236 370L237 371L236 370z"/>
<path style="fill:#5b5a59; stroke:none;" d="M301.667 370.333L302.333 370.667L301.667 370.333M397.667 370.333L398.333 370.667L397.667 370.333z"/>
<path style="fill:#c4ab74; stroke:none;" d="M237 371L238 372L237 371z"/>
<path style="fill:#5b5a59; stroke:none;" d="M305.667 371.333L306.333 371.667L305.667 371.333M394 371L395 372L394 371z"/>
<path style="fill:#c4ab74; stroke:none;" d="M238 372L239 373L238 372z"/>
<path style="fill:#5b5a59; stroke:none;" d="M310.667 372.333L311.333 372.667L310.667 372.333M389.667 372.333L390.333 372.667L389.667 372.333M71 373L72 374L71 373M92 373L93 374L92 373z"/>
<path style="fill:#c4ab74; stroke:none;" d="M239 373L240 374L239 373z"/>
<path style="fill:#5b5a59; stroke:none;" d="M315.667 373.333L316.333 373.667L315.667 373.333M383 373L383 374L386 374L383 373z"/>
<path style="fill:#c4ab74; stroke:none;" d="M240 374L241 375L240 374z"/>
<path style="fill:#5b5a59; stroke:none;" d="M321 374L321 375L324 375L321 374M377 374L377 375L380 375L377 374M441 374L442 375L441 374M74 375L75 376L74 375M93 375L94 376L93 375M241 375L242 376L241 375M329 375L329 376L333 376L329 375M368 375L368 376L372 376L368 375M440 375L441 376L440 375M76 376L77 377L76 376M242 376L243 377L242 376M344 376L344 377L359 377L344 376M439 376L440 377L439 376M94 377L95 378L94 377z"/>
<path style="fill:#c4ab74; stroke:none;" d="M244 377L245 378L244 377M245 378L246 379L245 378z"/>
<path style="fill:#5b5a59; stroke:none;" d="M81 379L82 380L81 379M95 379L96 380L95 379M246 379L247 380L246 379M435 379L436 380L435 379M247 380L248 381L247 380M434 380L435 381L434 380z"/>
<path style="fill:#c4ab74; stroke:none;" d="M249 381L250 382L249 381z"/>
<path style="fill:#5b5a59; stroke:none;" d="M88 382L89 383L88 382M250 382L251 383L250 382M431 382L432 383L431 382M91 383L92 384L91 383M251 383L252 384L251 383M430 383L431 384L430 383M94 384L95 385L94 384M98.3333 384.667L98.6667 385.333L98.3333 384.667z"/>
<path style="fill:#c4ab74; stroke:none;" d="M253 384L254 385L253 384z"/>
<path style="fill:#5b5a59; stroke:none;" d="M254 385L255 386L254 385M427 385L428 386L427 385z"/>
<path style="fill:#c4ab74; stroke:none;" d="M256 386L257 387L256 386z"/>
<path style="fill:#5b5a59; stroke:none;" d="M257 387L258 388L257 387M424 387L425 388L424 387z"/>
<path style="fill:#c4ab74; stroke:none;" d="M259 388L260 389L259 388z"/>
<path style="fill:#5b5a59; stroke:none;" d="M260 389L261 390L260 389z"/>
<path style="fill:#c4ab74; stroke:none;" d="M261 389L262 390L261 389z"/>
<path style="fill:#5b5a59; stroke:none;" d="M421 389L422 390L421 389M262 390L263 391L262 390M419 390L420 391L419 390z"/>
<path style="fill:#c4ab74; stroke:none;" d="M264 391L265 392L264 391z"/>
<path style="fill:#5b5a59; stroke:none;" d="M265 392L266 393L265 392z"/>
<path style="fill:#c4ab74; stroke:none;" d="M266 392L267 393L266 392z"/>
<path style="fill:#5b5a59; stroke:none;" d="M416 392L417 393L416 392M267 393L268 394L267 393z"/>
<path style="fill:#c4ab74; stroke:none;" d="M268 393L269 394L268 393z"/>
<path style="fill:#5b5a59; stroke:none;" d="M414 393L415 394L414 393M269 394L270 395L269 394M412 394L413 395L412 394M271 395L272 396L271 395M410 395L411 396L410 395M273 396L274 397L273 396M408 396L409 397L408 396M275 397L276 398L275 397M406 397L407 398L406 397M277 398L278 399L277 398z"/>
<path style="fill:#c4ab74; stroke:none;" d="M278 398L279 399L278 398z"/>
<path style="fill:#5b5a59; stroke:none;" d="M404 398L405 399L404 398M279 399L280 400L279 399z"/>
<path style="fill:#c4ab74; stroke:none;" d="M280 399L281 400L280 399z"/>
<path style="fill:#5b5a59; stroke:none;" d="M402 399L403 400L402 399M282 400L283 401L282 400M399 400L400 401L399 400M284 401L285 402L284 401z"/>
<path style="fill:#c4ab74; stroke:none;" d="M285 401L286 402L285 401z"/>
<path style="fill:#5b5a59; stroke:none;" d="M397 401L398 402L397 401M287 402L288 403L287 402z"/>
<path style="fill:#c4ab74; stroke:none;" d="M288 402L289 403L288 402z"/>
<path style="fill:#5b5a59; stroke:none;" d="M394 402L395 403L394 402M289.667 403.333L290.333 403.667L289.667 403.333M391.667 403.333L392.333 403.667L391.667 403.333M292 404L293 405L292 404z"/>
<path style="fill:#c4ab74; stroke:none;" d="M293 404L294 405L293 404z"/>
<path style="fill:#5b5a59; stroke:none;" d="M388.667 404.333L389.333 404.667L388.667 404.333M295 405L296 406L295 405z"/>
<path style="fill:#c4ab74; stroke:none;" d="M296.667 405.333L297.333 405.667L296.667 405.333M384 405L385 406L384 405z"/>
<path style="fill:#5b5a59; stroke:none;" d="M385 405L386 406L385 405M299 406L300 407L299 406z"/>
<path style="fill:#c4ab74; stroke:none;" d="M300 406L301 407L300 406M381 406L382 407L381 406z"/>
<path style="fill:#5b5a59; stroke:none;" d="M382 406L383 407L382 406M302.667 407.333L303.333 407.667L302.667 407.333z"/>
<path style="fill:#c4ab74; stroke:none;" d="M304 407L305 408L304 407M377 407L378 408L377 407z"/>
<path style="fill:#5b5a59; stroke:none;" d="M378.667 407.333L379.333 407.667L378.667 407.333M306.667 408.333L307.333 408.667L306.667 408.333z"/>
<path style="fill:#c4ab74; stroke:none;" d="M308.667 408.333L309.333 408.667L308.667 408.333M373 408L374 409L373 408z"/>
<path style="fill:#5b5a59; stroke:none;" d="M374 408L375 409L374 408M312.667 409.333L313.333 409.667L312.667 409.333z"/>
<path style="fill:#c4ab74; stroke:none;" d="M314 409L315 410L314 409M367.667 409.333L368.333 409.667L367.667 409.333z"/>
<path style="fill:#5b5a59; stroke:none;" d="M369.667 409.333L370.333 409.667L369.667 409.333M317.667 410.333L318.333 410.667L317.667 410.333z"/>
<path style="fill:#c4ab74; stroke:none;" d="M319.667 410.333L320.333 410.667L319.667 410.333M360.667 410.333L361.333 410.667L360.667 410.333z"/>
<path style="fill:#5b5a59; stroke:none;" d="M362 410L362 411L365 411L362 410M323 411L323 412L328 412L323 411z"/>
<path style="fill:#c4ab74; stroke:none;" d="M328 411L328 412L333 412L328 411M349 411L349 412L355 412L349 411z"/>
<path style="fill:#5b5a59; stroke:none;" d="M355 411L355 412L358 412L355 411M337 412L337 413L340 413L337 412M309 427L309 430L310 430L309 427z"/>
<path style="fill:#c4ab74; stroke:none;" d="M310 427C309.009 436.341 312.931 443.48 318 451L320 451L337 430L310 427z"/>
<path style="fill:#5b5a59; stroke:none;" d="M312 427L312 428L315 428L312 427M319 428L319 429L322 429L319 428M328 429L328 430L335 430L328 429M337 430L338 431L337 430M309 431L309 435L310 435L309 431M336 431L337 432L336 431M310.333 436.667L310.667 437.333L310.333 436.667M311 440L312 441L311 440M312 442L313 443L312 442M325 442L326 443L325 442M324 443L325 444L324 443M314 445L315 446L314 445M322 446L323 447L322 446M315 447L316 448L315 447M321 447L322 448L321 447M316 448L317 449L316 448M320 449L321 450L320 449M318 451L319 452L318 451z"/>
</svg>
